<?xml version="1.0" encoding="UTF-8" standalone="no"?>
<!-- Created with Inkscape (http://www.inkscape.org/) -->

<svg
   xmlns:dc="http://purl.org/dc/elements/1.1/"
   xmlns:cc="http://creativecommons.org/ns#"
   xmlns:rdf="http://www.w3.org/1999/02/22-rdf-syntax-ns#"
   xmlns:svg="http://www.w3.org/2000/svg"
   xmlns="http://www.w3.org/2000/svg"
   xmlns:sodipodi="http://sodipodi.sourceforge.net/DTD/sodipodi-0.dtd"
   xmlns:inkscape="http://www.inkscape.org/namespaces/inkscape"
   width="210mm"
   height="297mm"
   viewBox="0 0 744.09448819 1052.3622047"
   id="svg2"
   version="1.1"
   inkscape:version="0.91 r13725"
   sodipodi:docname="gravure-sacha-and-pikachu-walk-on-geek-9.svg">
  <title
     id="title3349">Sacha and Pikachu Walk On</title>
  <defs
     id="defs4" />
  <sodipodi:namedview
     id="base"
     pagecolor="#ffffff"
     bordercolor="#666666"
     borderopacity="1.0"
     inkscape:pageopacity="0.0"
     inkscape:pageshadow="2"
     inkscape:zoom="0.35"
     inkscape:cx="897.14276"
     inkscape:cy="174.28571"
     inkscape:document-units="px"
     inkscape:current-layer="layer1"
     showgrid="false"
     inkscape:window-width="1536"
     inkscape:window-height="877"
     inkscape:window-x="-8"
     inkscape:window-y="-8"
     inkscape:window-maximized="1" />
  <metadata
     id="metadata7">
    <rdf:RDF>
      <cc:Work
         rdf:about="">
        <dc:format>image/svg+xml</dc:format>
        <dc:type
           rdf:resource="http://purl.org/dc/dcmitype/StillImage" />
        <dc:title>Sacha and Pikachu Walk On</dc:title>
      </cc:Work>
    </rdf:RDF>
  </metadata>
  <g
     inkscape:label="Calque 1"
     inkscape:groupmode="layer"
     id="layer1">
    <path
       style="fill:#000000"
       d="m 252.97351,1030.2809 -10.38052,-1.117 -12.68816,-3.9531 c -6.97848,-2.1742 -13.76426,-4.203 -15.0795,-4.5085 -1.31525,-0.3055 -6.60364,-2.2738 -11.75197,-4.3741 -7.93698,-3.238 -9.96791,-4.2066 -13.35367,-6.3693 -2.19617,-1.4028 -4.80773,-3.0568 -5.80343,-3.6756 -7.24422,-4.5019 -13.86957,-8.9966 -16.19113,-10.98413 -2.83474,-2.4269 -12.46017,-12.4335 -12.46017,-12.95361 0,-0.48046 3.16293,-16.85961 3.81362,-19.74878 l 0.59926,-2.66074 -3.64654,-3.99726 -3.64653,-3.99725 1.5897,-8.78377 c 1.5608,-8.62402 1.64591,-8.94832 4.6806,-17.83448 1.7,-4.97793 4.35338,-12.07387 5.89641,-15.76878 1.60188,-3.83584 2.68463,-6.80956 2.52374,-6.93133 -0.15498,-0.11731 -0.0167,-0.3756 0.30724,-0.57395 1.01104,-0.61906 1.23033,-2.15687 1.23206,-8.64056 l 0.002,-6.17499 -1.21168,-4.75011 -1.2117,-4.75016 1.21824,-6.53697 c 1.49582,-8.02651 3.31038,-18.91825 3.30136,-19.81597 -0.01,-0.94437 -1.15113,-9.94888 -1.80983,-14.2749 -1.30032,-8.54004 -2.41258,-17.56356 -3.31447,-26.88991 l -0.96312,-9.95923 -1.81518,-4.48166 c -0.99835,-2.46491 -3.04426,-7.19481 -4.54645,-10.5109 -1.5022,-3.31612 -3.03829,-6.92551 -3.41352,-8.02093 -0.37523,-1.09542 -1.09705,-2.68142 -1.60402,-3.52444 -1.27045,-2.11256 -1.98112,-4.05184 -4.0219,-10.97517 -1.61071,-5.4643 -5.6185,-20.23502 -6.4234,-23.67345 -0.29669,-1.26744 -0.42108,-1.41936 -1.08723,-1.32789 -0.64542,0.0886 -0.88312,0.48033 -1.67425,2.75906 -0.50711,1.4607 -1.2195,3.40274 -1.58306,4.31567 -0.36355,0.91293 -0.83088,2.18273 -1.03849,2.82179 -0.20761,0.63904 -1.83656,4.89661 -3.61989,9.46126 -6.59547,16.88189 -11.4892,31.11967 -14.33559,41.70789 l -2.64481,9.83832 -4.35258,5.4146 c -11.0545,13.75176 -11.33703,14.06476 -24.604123,27.25592 l -13.118325,13.04316 -3.62716,-0.0845 c -2.964691,-0.0691 -4.304521,-0.28053 -7.331599,-1.15714 l -3.704016,-1.07265 -3.081266,-3.53612 -3.081266,-3.53613 -0.551351,-3.60179 c -0.638885,-4.17364 -1.308876,-15.49409 -1.578686,-26.674 -0.157205,-6.51442 -0.08057,-9.33477 0.464633,-17.09667 l 0.652899,-9.29528 2.989253,-12.21662 c 2.821284,-11.53019 3.080135,-12.39519 4.606764,-15.39404 1.012081,-1.9881 1.835178,-4.12535 2.199045,-5.70999 1.084035,-4.72098 2.901892,-13.59007 2.901892,-14.15791 0,-0.71013 10.298781,-23.90975 13.48153,-30.36927 4.932437,-10.01062 6.342285,-13.10717 11.332998,-24.89137 3.488645,-8.23751 6.055667,-14.85033 8.027195,-20.67861 l 2.898413,-8.56839 -2.781121,-3.31496 c -1.529619,-1.82323 -2.781133,-3.46648 -2.781133,-3.65169 0,-1.09332 3.604567,-16.31736 6.117424,-25.83716 2.74254,-10.39002 3.01329,-11.22816 3.94159,-12.20191 0.9939,-1.04257 0.99719,-1.05591 1.14939,-4.64763 0.0839,-1.98117 0.734,-8.23314 1.44458,-13.8933 l 1.29195,-10.2912 1.71044,-3.8177 1.71044,-3.81771 0.21041,-5.80955 0.2104,-5.80955 1.20306,-3.31974 1.20305,-3.31974 4.64669,-3.18537 c 3.5241,-2.41584 5.13914,-3.32342 6.68512,-3.75688 l 2.03843,-0.57149 0.51511,-2.55066 c 0.28331,-1.40282 1.49874,-7.17858 2.70097,-12.83496 2.0772,-9.77305 2.29016,-10.54124 4.28366,-15.45198 2.02758,-4.99471 2.31775,-5.49921 8.67093,-15.07567 l 6.57315,-9.90801 6.36947,-5.01566 6.36947,-5.01564 -0.19038,-1.82586 c -0.1047,-1.00422 -0.19922,-2.10717 -0.21002,-2.45103 -0.0164,-0.52243 1.12485,-1.08047 6.94447,-3.39583 5.85331,-2.32871 9.20891,-3.38767 21.03747,-6.63895 12.94309,-3.55765 16.48133,-4.76161 14.06298,-4.78525 -0.47308,-0.004 -5.56094,0.24171 -11.30634,0.54742 -10.22353,0.54401 -10.67131,0.54092 -21.00769,-0.1447 l -10.56149,-0.70056 -8.29969,-5.10275 -8.29968,-5.10278 -19.23541,-31.67625 c -10.57948,-17.42194 -20.29827,-33.61831 -21.59731,-35.99193 -4.69852,-8.58512 -8.853492,-19.87294 -10.386775,-28.2178 -0.442519,-2.40844 -0.648192,-5.00564 -0.749208,-9.46127 -0.09459,-4.17003 -0.286205,-6.72763 -0.597048,-7.96739 l -0.457816,-1.82585 -7.708709,-6.80548 c -10.232992,-9.03397 -19.21011,-17.24109 -19.21011,-17.56239 0,-0.25525 8.213733,-0.69619 12.968275,-0.69619 2.646369,0 2.825481,-0.13278 2.473476,-1.83372 -0.149637,-0.72309 -1.708743,-2.63785 -5.575899,-6.84784 -2.952504,-3.21424 -8.893782,-9.76757 -13.202827,-14.56295 -4.309055,-4.79537 -10.739994,-11.69223 -14.29097,-15.32635 -3.550987,-3.63411 -6.456337,-6.73592 -6.456337,-6.89291 0,-0.15697 1.909697,-2.54363 4.243767,-5.30367 4.016402,-4.74942 4.658614,-5.35134 11.987583,-11.23576 4.259097,-3.41964 10.633825,-8.30896 14.166068,-10.86515 4.784637,-3.46255 6.296849,-4.70932 5.930536,-4.88954 -0.270441,-0.13303 -5.780094,-1.29697 -12.243672,-2.58653 -6.463578,-1.28954 -12.002109,-2.45998 -12.307831,-2.60097 -0.461675,-0.21291 0.43929,-1.18093 5.317027,-5.71283 5.656323,-5.25528 15.384965,-13.3299 16.829616,-13.96833 1.027411,-0.45403 11.99104,-7.28804 12.528062,-7.80916 0.252381,-0.24492 3.275317,-2.21862 6.717634,-4.38599 5.650448,-3.55767 6.444868,-3.96348 8.173738,-4.17529 2.16189,-0.26488 2.32798,-0.56523 1.1775,-2.12945 -0.83249,-1.13189 -2.79476,-2.05961 -5.791401,-2.73806 -2.127983,-0.48178 -14.956243,-0.64495 -16.400286,-0.2086 -0.685506,0.20713 -0.7809,0.0736 -1.532989,-2.14545 -0.441105,-1.30149 -0.699749,-2.47102 -0.574782,-2.59897 0.231322,-0.23685 9.681978,-1.96058 19.041758,-3.47311 2.84706,-0.46009 7.48256,-1.06867 10.30111,-1.35243 2.81856,-0.28375 5.35233,-0.61865 5.63061,-0.74422 0.79122,-0.357 -10.54209,-6.86406 -17.408299,-9.99502 -5.363355,-2.44567 -6.98665,-2.99732 -18.612443,-6.32507 l -12.736627,-3.64571 -9.534244,-0.34503 c -7.095874,-0.25679 -11.230047,-0.24302 -16.164973,0.0539 -5.241366,0.31529 -7.247806,0.31248 -9.575678,-0.0135 -6.769419,-0.94773 -11.071245,-2.38365 -10.870474,-3.62848 0.270234,-1.67553 5.585075,-2.86825 19.097145,-4.28562 5.116529,-0.53671 9.581539,-0.59355 46.628366,-0.59355 l 40.970007,0 1.62408,-4.14968 c 0.89325,-2.28232 4.8715,-11.24562 8.84056,-19.91847 5.2549,-11.48249 8.58822,-18.29543 12.26293,-25.06405 2.77554,-5.112405 5.71681,-10.71447 6.53617,-12.449038 1.13795,-2.409042 2.74573,-4.839144 6.80877,-10.291198 2.92546,-3.925596 7.51782,-10.248567 10.20523,-14.051051 3.79188,-5.365192 5.51312,-7.508474 7.68534,-9.569686 6.59404,-6.257084 12.76238,-11.135735 16.96962,-13.421578 1.65774,-0.900669 3.6974,-1.499916 10.05899,-2.955293 l 7.9796,-1.825545 19.40099,-1.752048 19.401,-1.752049 11.6474,1.080452 c 11.49238,1.066069 11.90232,1.129614 30.79876,4.773965 l 19.15135,3.693515 12.04214,5.065794 12.04214,5.065792 14.94386,8.550084 14.94386,8.550081 14.36351,11.483916 14.36351,11.483916 9.86584,10.963981 c 5.42622,6.03019 13.5018,15.07283 17.9457,20.09475 l 8.07987,9.13078 7.22665,11.04532 c 7.80762,11.93332 7.56297,11.46614 13.1646,25.13987 l 3.53598,8.63134 0.63759,9.95922 c 0.35071,5.47758 0.63478,10.67698 0.63131,11.55423 -0.003,0.87726 -0.72797,6.55402 -1.60997,12.61502 l -1.60364,11.02003 -4.23859,14.60686 c -3.61341,12.45224 -4.72186,15.8311 -7.51462,22.90623 -5.20415,13.18414 -7.64272,19.56571 -7.52718,19.69791 0.0589,0.0675 1.19716,-0.97572 2.52932,-2.3182 12.37763,-12.47355 18.71986,-18.41856 25.40157,-23.81054 7.00036,-5.64918 9.15614,-7.16947 29.81267,-21.02479 20.47967,-13.7367 20.55459,-13.78318 31.0484,-19.2699 12.63279,-6.60508 25.82894,-12.95805 45.12175,-21.7228 l 14.94385,-6.78903 7.83465,-1.46594 c 4.30905,-0.80628 8.31781,-1.46836 8.90837,-1.4713 1.87288,-0.01 1.81735,0.58194 -0.51779,5.51274 -1.99484,4.21231 -2.49776,4.96156 -9.16792,13.65783 -7.88847,10.28467 -15.85309,20.31274 -27.07029,34.08358 -5.86296,7.1977 -9.94973,11.78884 -18.2614,20.5152 -10.66718,11.19939 -10.75302,11.27994 -22.49012,21.10274 -11.65934,9.75773 -11.90532,9.9414 -23.61716,17.63252 l -11.8351,7.77207 7.3392,3.20333 7.33923,3.20335 7.44379,5.45731 c 6.46317,4.73841 8.01402,6.0477 11.77263,9.93897 2.38085,2.46491 5.82116,5.81743 7.64516,7.45004 3.13821,2.80895 3.66304,3.46867 9.77214,12.28304 3.5507,5.12306 7.62906,11.14468 9.06304,13.38136 l 2.60722,4.06668 9.50795,0.003 c 5.22939,0.003 17.60378,0.37347 27.49864,0.82626 9.89486,0.45274 19.78514,0.82485 21.97842,0.8269 5.47635,0.005 19.35246,2.49884 28.6566,5.15009 3.59088,1.02321 10.57677,2.97835 15.52419,4.34468 10.4867,2.89618 12.92865,3.88353 33.36694,13.49127 20.4111,9.59498 18.37137,8.38713 31.43915,18.61718 6.27793,4.91468 11.30515,9.0563 11.17162,9.20362 -0.13357,0.1473 -5.00889,1.17128 -10.8341,2.27545 -10.00965,1.89734 -10.93388,2.01715 -16.82997,2.18167 -3.43128,0.0958 -7.75316,0.26515 -9.60416,0.37643 l -3.36548,0.20231 -2.93863,10.34053 c -1.61626,5.68728 -4.05725,14.6728 -5.42442,19.96779 -2.26999,8.79154 -2.64648,10.67911 -4.33717,21.74432 -1.01824,6.66437 -2.46202,16.82279 -3.20834,22.57425 -0.74635,5.75145 -1.38537,10.49198 -1.42007,10.53447 -0.0347,0.0425 -8.01966,0.23726 -17.7444,0.43276 -17.29425,0.34771 -17.80196,0.37669 -23.19455,1.32441 -3.0323,0.53292 -6.16615,1.06142 -6.96412,1.17443 -0.79798,0.113 -1.71202,0.26042 -2.03121,0.32756 -0.31919,0.0671 -1.62497,0.27766 -2.90172,0.46784 -2.21494,0.32988 -8.28998,1.45163 -25.9704,4.7953 -4.38884,0.83001 -8.43674,1.57054 -8.99533,1.64567 -1.086,0.146 -7.65418,2.41943 -8.40193,2.90813 -0.24659,0.16114 -2.08053,0.87478 -4.07546,1.58587 -3.52594,1.25682 -3.62962,1.32073 -3.71595,2.29036 -0.0701,0.78768 2.30002,20.40553 2.99612,24.79914 0.1667,1.0523 1.31962,22.49757 1.21573,22.61429 -0.0334,0.0374 -5.41431,2.85448 -11.95769,6.25997 -8.24086,4.28898 -14.90672,8.04716 -21.69033,12.22897 -5.38632,3.32041 -9.79331,6.13445 -9.79331,6.25343 -2e-5,0.11898 4.99456,4.66125 11.09905,10.09398 6.1045,5.43273 11.22966,10.01636 11.38926,10.18586 0.40075,0.4257 -1.46265,2.22891 -4.20167,4.06603 -5.97264,4.00596 -21.82908,10.89971 -37.43802,16.27653 -1.99493,0.68719 -3.66382,1.28284 -3.70866,1.32365 -0.0448,0.0408 -0.19769,0.53776 -0.33973,1.10438 -0.23998,0.95725 -0.18284,1.08226 0.80694,1.76626 4.34927,3.00573 18.52881,13.04112 18.74629,13.26749 0.14899,0.15506 0.2107,0.3507 0.1372,0.43482 -0.37487,0.42885 -35.95321,11.3404 -40.01649,12.27269 -0.39898,0.0915 -1.05187,0.25941 -1.45085,0.37301 -0.39899,0.1136 -0.9213,0.24387 -1.16069,0.28948 -0.2394,0.0456 -0.63113,0.17731 -0.87052,0.2927 -0.23939,0.1154 -0.87194,0.28075 -1.40568,0.36747 -0.53371,0.0867 -0.99445,0.20582 -1.02382,0.26467 -0.0294,0.0589 -0.9311,1.24979 -2.00383,2.64651 -1.07274,1.39668 -1.95046,2.64713 -1.95046,2.77875 0,0.1316 -1.01197,1.60613 -2.24883,3.27669 -1.23685,1.67056 -2.967,4.26358 -3.84478,5.76224 -1.53837,2.62654 -1.65612,2.74467 -3.26443,3.2739 -1.89575,0.62381 -1.9138,0.68108 -1.23724,3.92251 0.22582,1.0819 0.34052,2.09684 0.25486,2.2554 -0.0857,0.15851 -0.0282,0.46845 0.12791,0.68868 0.51079,0.72108 2.30811,10.76373 4.52764,25.2985 7.25941,47.53859 7.12756,46.58927 8.02308,57.76352 l 0.85139,10.62318 0,29.87768 c 0,29.9317 -0.19926,41.91796 -1.02485,61.74722 -0.37154,8.92333 -0.53925,10.96846 -1.04816,12.781 -0.45308,1.61367 -2.17551,4.88806 -6.83007,12.98419 l -6.22418,10.82631 -12.927,12.90371 c -7.96951,7.9551 -13.60915,13.33753 -14.70574,14.03497 -0.97831,0.62225 -3.45679,2.13918 -5.5077,3.37097 l -3.72894,2.23963 0.0426,4.85214 0.0426,4.8521 -2.73677,3.69115 -2.73675,3.69112 0.1434,13.32197 0.14341,13.32199 -12.29132,6.46096 c -6.76019,3.55351 -15.24743,7.98794 -18.86051,9.85414 l -6.56923,3.3933 -19.83642,6.313 c -16.90211,5.3792 -21.0812,6.5879 -28.25141,8.1707 -4.62823,1.0216 -9.00258,2.0781 -9.72076,2.3476 -0.71817,0.2695 -5.42926,1.3772 -10.46905,2.4615 -9.07606,1.9527 -9.23905,1.9749 -17.12015,2.3336 -4.37628,0.1992 -13.44112,0.6535 -20.14408,1.0095 -6.70298,0.3561 -13.55829,0.6295 -15.23404,0.6076 -1.67574,-0.022 -7.71803,-0.5426 -13.42732,-1.1569 z m 27.64575,-2.1233 c 8.19563,-0.256 12.04356,-0.5527 21.22033,-1.6359 6.16517,-0.7277 11.78,-1.4782 12.4774,-1.6677 0.6974,-0.1894 6.75224,-1.6211 13.45522,-3.1815 8.87604,-2.0663 17.54817,-4.4067 31.91891,-8.6144 l 19.7317,-5.7773 11.31671,-4.7936 c 9.85815,-4.17573 12.57892,-5.49197 21.11001,-10.21265 l 9.7933,-5.41915 0,-5.49228 c 0,-3.02076 -0.0869,-7.41421 -0.19154,-9.7632 l -0.19037,-4.27085 -1.0417,1.28764 c -0.91517,1.1313 -2.11622,1.78704 -9.8919,5.40069 -4.86764,2.26216 -17.60872,8.18787 -28.31347,13.16822 l -19.46323,9.0552 -11.58518,3.48732 c -6.37186,1.91806 -14.13144,4.22906 -17.24353,5.13556 l -5.65835,1.6483 -17.99066,1.036 -17.99067,1.036 -30.17468,-0.6877 c -27.80022,-0.6336 -30.37968,-0.7399 -32.77999,-1.3516 -1.43293,-0.3652 -2.65662,-0.7226 -2.71932,-0.7944 -0.0627,-0.072 -1.00956,-8.24313 -2.10414,-18.15871 -1.60869,-14.57284 -5.36787,-42.34713 -5.68281,-41.98684 -0.071,0.0813 -1.19778,13.86128 -1.42972,17.48505 -0.16213,2.53299 -3.56749,34.26581 -3.69253,34.4089 -0.0468,0.0536 -0.97066,0.47867 -2.05301,0.94477 l -1.96791,0.84743 -14.41097,-7.98239 -14.41097,-7.98243 -9.70871,-8.82882 c -8.32578,-7.57127 -9.74005,-8.74062 -9.9286,-8.20932 -0.1738,0.48972 -1.87878,10.65677 -2.46992,14.72847 -0.10448,0.71999 0.5446,1.50125 4.89977,5.89732 l 5.02024,5.06735 13.34792,8.74332 13.34791,8.7434 6.88619,2.8874 c 7.16522,3.0044 33.84601,12.1355 39.97658,13.6813 2.59568,0.6545 5.56087,1.0109 13.34792,1.6045 11.90103,0.9072 12.41018,0.9176 25.24496,0.5166 z m 26.98599,-24.5527 c 18.3324,-0.3684 18.43991,-0.3746 21.18256,-1.2153 1.51615,-0.4647 8.82103,-2.7822 16.23303,-5.15001 12.83173,-4.09912 14.11577,-4.58283 26.84092,-10.11164 7.35048,-3.19358 15.12729,-6.75049 17.28182,-7.90424 2.15453,-1.15371 10.05446,-5.27457 17.55541,-9.15748 l 13.63808,-7.05983 3.69969,-4.78348 c 2.03483,-2.63089 3.69392,-5.0397 3.68687,-5.35288 -0.0212,-0.94255 -5.67011,-38.22129 -5.81719,-38.38954 -0.0749,-0.0857 -1.5828,0.26296 -3.35094,0.77473 l -3.21473,0.93055 -6.32754,-16.79988 c -3.48015,-9.23991 -6.48096,-17.15378 -6.66848,-17.58631 -0.32766,-0.75587 -0.4179,-0.65904 -2.31916,2.48981 -8.17349,13.53668 -15.82115,19.5397 -23.07898,18.11583 -3.54883,-0.69625 -7.27128,-3.4048 -9.69845,-7.05684 -0.63147,-0.95011 -1.19034,-1.58256 -1.24196,-1.40541 -0.0515,0.17714 0.50045,3.96861 1.22679,8.42547 1.07435,6.59238 3.58458,28.87167 3.26641,28.99088 -0.0396,0.015 -0.3443,0.19961 -0.67718,0.41069 -0.33291,0.21107 -5.00315,2.41195 -10.37836,4.89088 -5.37517,2.47892 -10.13767,4.72283 -10.58332,4.98648 -0.86296,0.51055 -13.00847,2.76057 -39.36916,7.29334 l -16.24964,2.7942 -20.45712,0.18979 c -18.60042,0.17259 -21.19299,0.12957 -28.56482,-0.4742 -4.45924,-0.3652 -8.35899,-0.62212 -8.66614,-0.57089 -0.49897,0.0832 -1.16841,-2.23143 -6.28682,-21.73711 l -5.72839,-21.83024 -0.91853,-17.34273 c -1.0429,-19.69095 -3.87854,-59.82113 -4.50952,-63.81914 -0.23053,-1.46068 -1.54772,-8.78071 -2.92709,-16.26673 -2.79474,-15.1674 -2.98102,-16.79153 -7.08239,-61.74721 -0.96614,-10.58998 -1.90427,-20.07615 -2.08474,-21.08037 -0.18047,-1.00423 -0.64492,-3.39444 -1.0321,-5.31159 l -0.70397,-3.48573 0.45649,-13.44496 c 0.73768,-21.72643 2.79673,-60.56479 3.23832,-61.0818 0.0787,-0.0921 3.69187,-3.23659 8.02936,-6.98773 l 7.88635,-6.82025 0.20974,-2.14305 c 0.11536,-1.17869 0.28882,-3.42974 0.38546,-5.0024 l 0.17571,-2.85935 2.40978,-3.39477 c 2.11776,-2.98343 2.43416,-3.6024 2.61099,-5.10803 1.58355,-13.4828 -0.28674,-25.96092 -5.43167,-36.23857 -1.5806,-3.15748 -3.41719,-5.93381 -3.69938,-5.59227 -0.33832,0.40945 -5.03642,12.36989 -11.50576,29.29138 -3.23592,8.46401 -7.08796,19.21959 -8.98981,25.10111 l -3.32775,10.29119 -0.40241,16.26674 c -0.30859,12.47441 -0.67668,20.32995 -1.57887,33.69539 -1.45829,21.60383 -1.66507,24.2412 -1.9221,24.51415 -0.23192,0.24629 -0.0286,-23.5571 0.47314,-55.38775 l 0.33751,-21.41234 -2.91237,-19.08852 c -2.77853,-18.21121 -2.94063,-19.53862 -3.52706,-28.88176 l -0.61467,-9.79325 -1.92159,-8.79732 c -1.05688,-4.83852 -2.00042,-8.90407 -2.09676,-9.03454 -0.0963,-0.13047 -2.87861,6.89078 -6.18278,15.60279 l -6.0076,15.84002 0.25685,5.97553 c 0.28393,6.60556 1.00098,11.60682 2.91384,20.32331 3.03777,13.84242 7.14765,23.70943 10.94362,26.27337 l 1.29644,0.87565 -0.17294,7.6354 c -0.0951,4.19948 -0.17234,22.59654 -0.1716,40.88237 0.001,31.60269 0.031,33.5154 0.59987,38.67501 0.3292,2.98541 0.71982,5.95939 0.86807,6.6088 0.14825,0.64944 0.99349,7.59601 1.87833,15.43681 0.88483,7.84083 1.78889,15.30176 2.00902,16.57986 0.22012,1.2781 1.07327,7.62711 1.89586,14.1089 0.82261,6.4818 1.68253,12.53204 1.91093,13.44496 0.58864,2.3528 4.44486,21.98798 6.38327,32.50244 0.23249,1.26103 0.53784,2.45615 0.67858,2.65579 0.31332,0.44445 0.71604,5.61134 0.75282,9.6583 0.14538,15.99595 0.80615,49.39717 1.02123,51.622 0.15003,1.55198 0.58711,5.66016 0.97127,9.1293 0.38416,3.46912 1.13099,11.19038 1.6596,17.15835 l 0.96112,10.85085 -0.35809,8.07168 c -0.19695,4.43943 -0.43353,8.71008 -0.52571,9.49035 l -0.16763,1.41863 -1.05418,-0.2062 c -2.15131,-0.4208 -8.789,-3.13788 -11.97886,-4.90342 -8.13221,-4.50104 -17.06938,-11.52422 -25.67181,-20.17394 l -3.22672,-3.24446 -3.56109,16.49312 -3.56108,16.49314 2.22951,2.35221 c 2.17167,2.29115 2.24615,2.42185 2.87048,5.03824 l 0.64097,2.68611 10.88388,9.42965 10.88389,9.42967 7.07808,3.71678 c 3.89293,2.04424 7.10119,3.67708 7.12944,3.62862 0.0283,-0.0485 1.08579,-8.28051 2.35008,-18.29334 1.26429,-10.01285 2.37728,-18.35161 2.47332,-18.53054 0.096,-0.17898 0.6212,-0.27771 1.167,-0.21941 l 0.99238,0.10597 -1.53353,15.10482 c -0.84345,8.30766 -1.78528,17.03852 -2.09297,19.40194 -0.33933,2.60647 -0.46002,4.50031 -0.30676,4.81363 0.13896,0.28407 0.31263,0.44183 0.38592,0.35054 0.0733,-0.0913 1.6665,1.07403 3.54048,2.58962 2.86854,2.31995 3.53426,2.72368 4.21058,2.55375 0.62242,-0.15639 0.83951,-0.44053 0.96401,-1.26174 0.64061,-4.22546 2.44753,-24.14717 3.6642,-40.39881 l 1.45392,-19.42049 1.087,-2.40682 c 0.59785,-1.32374 1.18884,-2.40681 1.31331,-2.40681 0.12447,0 0.35201,0.33613 0.50563,0.74694 0.30145,0.80617 2.36645,10.25615 5.2209,23.89226 l 1.78735,8.53841 1.94219,20.01138 1.94219,20.01134 4.99908,0.091 c 2.7495,0.05 4.9959,-0.025 4.992,-0.166 -0.004,-0.1413 -0.12824,-0.8566 -0.2763,-1.5896 -0.66688,-3.30164 -6.09289,-38.45738 -5.9592,-38.61032 0.20312,-0.23238 1.2577,0.44731 2.38019,1.53406 l 0.92544,0.89596 2.49419,17.92661 c 1.37179,9.85964 2.55179,18.23709 2.6222,18.61659 0.15707,0.8466 2.26634,1.3693 5.09482,1.2626 2.37053,-0.09 38.64187,0.8374 38.77599,0.9909 0.055,0.063 0.84785,0.073 1.76201,0.023 0.91414,-0.05 9.95374,-0.2583 20.08799,-0.462 z m -6.94651,-56.61668 22.18054,-2.82264 22.34324,-6.85213 c 12.28879,-3.76863 22.38785,-6.89421 22.44241,-6.94569 0.0545,-0.0514 -0.0565,-4.32503 -0.24692,-9.49679 l -0.34606,-9.40317 -2.16079,-10.76383 c -1.18845,-5.92013 -2.25255,-10.94527 -2.36464,-11.16696 -0.11212,-0.22168 -6.8633,-5.72994 -15.00262,-12.24056 -11.74378,-9.39383 -15.15817,-12.28971 -16.5398,-14.02813 -0.95756,-1.20484 -4.07024,-5.64231 -6.91706,-9.86104 l -5.17604,-7.67039 -6.10773,-13.94292 c -3.37729,-7.70973 -9.18456,-21.80858 -12.99022,-31.53755 -3.78535,-9.67706 -9.92641,-25.02296 -13.64678,-34.10202 l -6.76432,-16.50737 -4.35806,-0.0913 -4.35806,-0.0913 -2.20554,-7.30343 c -1.99484,-6.60575 -2.75447,-8.54654 -7.95203,-20.31669 l -5.74651,-13.01327 0.88353,-2.72842 c 0.48596,-1.50066 0.79703,-2.89001 0.69128,-3.0875 -0.10568,-0.19748 -5.19568,-7.6791 -11.31098,-16.6258 -9.29194,-13.59414 -11.51341,-16.64854 -13.52106,-18.59055 -1.32127,-1.27811 -3.4112,-3.7699 -4.64426,-5.53734 -2.03409,-2.9156 -2.44153,-3.76628 -4.39472,-9.17587 l -2.15279,-5.96239 0.83117,-5.43097 c 0.45714,-2.98707 0.78663,-5.48222 0.73219,-5.54483 -0.0693,-0.0797 -9.00481,6.95616 -11.0929,8.73461 -0.0384,0.0326 -0.33225,4.7541 -0.65317,10.49215 -0.32091,5.73804 -0.97131,16.48302 -1.44534,23.87775 -0.47403,7.39472 -1.12615,20.09274 -1.44916,28.21781 -0.32302,8.12507 -0.63297,15.46946 -0.68879,16.32088 -0.0944,1.43885 -0.0484,1.56054 0.65147,1.72567 0.41412,0.0977 4.01738,-0.64503 8.00726,-1.65051 19.05722,-4.80271 32.22681,-9.03279 35.12357,-11.28178 0.56574,-0.43924 1.0881,-0.7986 1.16081,-0.7986 0.46423,0 -0.0873,0.97647 -1.52637,2.70258 -6.18042,7.41298 -17.88221,11.25488 -35.91871,11.79275 -3.67067,0.10948 -6.8139,0.2914 -6.98495,0.40427 -0.20687,0.13652 0.29037,3.05407 1.48509,8.7137 1.69124,8.0118 1.84977,9.11641 2.71577,18.92254 1.50842,17.08047 6.05895,53.66307 9.77902,78.61522 l 3.33788,22.38871 0.27964,15.12439 c 0.1538,8.31841 0.54069,20.20358 0.85973,26.4115 l 0.5801,11.28713 5.41706,20.16744 5.41707,20.16743 1.46946,0.0256 c 0.80819,0.0139 5.97436,0.2917 11.48038,0.617 5.50601,0.3253 14.19734,0.61259 19.31405,0.63839 l 9.30313,0.0469 22.18053,-2.8226 z m -96.92518,-3.89987 c 0.005,-0.22823 0.25044,-4.74724 0.54449,-10.04223 l 0.53462,-9.62724 -1.84399,-13.99684 c -2.03684,-15.46084 -2.02764,-15.29651 -2.2743,-40.61294 -0.0489,-5.0211 -0.2963,-13.16277 -0.54972,-18.09259 -0.42533,-8.27367 -0.61805,-10.01514 -2.50499,-22.63431 -1.1243,-7.51905 -3.28077,-20.46399 -4.79212,-28.7665 -1.51137,-8.30251 -2.88048,-16.11838 -3.04247,-17.3686 -0.16199,-1.25021 -1.80589,-15.1925 -3.65312,-30.98289 -1.84722,-15.79039 -3.3827,-28.73197 -3.41217,-28.75907 -0.0295,-0.0273 -0.70646,-0.49961 -1.50443,-1.05007 -1.30138,-0.89769 -1.69357,-0.9999 -3.80628,-0.99193 -5.52039,0.0206 -10.15212,-2.54628 -14.93752,-8.27878 -2.15677,-2.58365 -4.80092,-6.63659 -4.53111,-6.94526 0.0748,-0.0856 5.06693,3.14445 11.09368,7.17778 l 10.95775,7.33331 1.77242,-0.60592 1.77243,-0.60595 -0.026,-4.96939 c -0.0908,-17.34565 -0.72197,-65.78465 -0.88229,-67.71253 -0.17688,-2.12722 -0.29744,-2.45691 -1.42509,-3.89721 -2.94411,-3.7604 -7.48924,-16.69289 -11.31429,-32.19311 -0.61793,-2.50401 -1.15636,-4.51514 -1.19652,-4.46919 -0.0401,0.0459 -0.53604,4.02219 -1.10194,8.83608 -0.87867,7.47457 -1.02823,9.67825 -1.02428,15.09238 0.005,7.28386 -0.5802,21.86223 -0.88798,22.10862 -0.11403,0.0913 -1.79692,4.70023 -3.73973,10.24211 l -3.5324,10.07612 0.45059,3.24245 c 1.35402,9.74359 -0.64829,19.52647 -5.48314,26.78953 l -1.50957,2.26772 0.95119,11.6191 c 1.04427,12.75627 1.17763,13.753 5.37167,40.14741 2.4961,15.70879 3.23293,19.66679 5.31482,28.54979 2.19809,9.3787 2.61736,11.69572 4.62951,25.58349 1.21688,8.39895 2.98251,21.34768 3.92359,28.77494 l 1.71108,13.50411 -1.95543,13.64909 -1.95543,13.64913 0.88226,3.66961 0.88226,3.66961 -0.66464,9.18005 -0.66466,9.18008 -2.46698,5.31159 c -1.35685,2.92138 -2.48959,5.40822 -2.51721,5.52631 -0.0514,0.22007 13.83518,12.353 20.27197,17.71189 5.67457,4.72429 11.40756,8.2058 15.56345,9.45124 2.58739,0.77543 2.55982,0.77264 2.57204,0.25901 z m 232.91904,-7.15727 c 3.79403,-2.70406 7.44494,-5.28102 8.11318,-5.72656 0.66821,-0.44557 4.70203,-4.47012 8.96405,-8.94348 4.26201,-4.47335 7.89245,-8.23904 8.06762,-8.36817 0.52789,-0.38914 -1.1547,-14.74578 -1.86125,-15.88096 -0.55791,-0.89639 -0.55745,-0.90224 0.30565,-3.82341 l 0.86439,-2.92562 0.008,-19.10924 c 0.007,-16.93493 -0.81997,-56.61506 -1.34715,-64.64216 l -0.15605,-2.37628 -2.84656,1.09671 c -1.5656,0.6032 -3.28574,1.20049 -3.82253,1.32727 -0.53678,0.12678 -9.92051,3.50412 -20.85274,7.50518 -10.93223,4.00105 -20.04,7.27414 -20.2395,7.27355 -0.1995,0 -0.36259,-0.11317 -0.36248,-0.2501 1.5e-4,-0.13695 10.39657,-4.65263 23.10315,-10.03483 12.7066,-5.38223 23.16358,-9.9668 23.23776,-10.18796 0.14363,-0.42817 -0.43045,-4.00746 -0.74305,-4.63276 -0.12654,-0.25316 -7.43642,2.00309 -22.81959,7.0434 -12.44838,4.07873 -22.79664,7.42085 -22.99614,7.42693 -1.76424,0.0537 2.78641,-1.81714 23.08157,-9.48903 l 23.44426,-8.86231 -0.63234,-4.67875 c -0.34776,-2.5733 -1.04897,-11.32653 -1.55819,-19.4516 l -0.92588,-14.77285 -3.75535,-23.4042 c -2.06544,-12.87229 -5.11541,-30.64951 -6.77775,-39.50494 -1.6623,-8.85541 -4.02614,-21.70281 -5.25292,-28.54978 -2.20763,-12.32106 -2.27344,-12.59919 -6.40253,-27.0559 -2.29457,-8.03378 -4.17225,-14.76416 -4.17262,-14.95641 0,-0.19225 -1.08431,-0.58852 -2.4088,-0.88066 -1.98202,-0.43714 -3.04887,-0.47442 -6.02888,-0.2107 l -3.62073,0.32042 -8.69733,-2.53957 c -6.58456,-1.92267 -9.02072,-2.77444 -10.02851,-3.50645 -0.73216,-0.53178 -1.42685,-0.96687 -1.54375,-0.96687 -0.11691,0 0.3056,1.08307 0.93893,2.40681 1.89123,3.95309 4.9186,14.08903 10.03921,33.6124 1.67609,6.3905 3.25401,12.27604 3.50649,13.07896 0.25248,0.80294 1.50033,5.65807 2.77297,10.78915 1.27266,5.13113 2.3683,9.50353 2.43472,9.71647 0.0664,0.21289 -1.99282,2.57847 -4.5761,5.2568 -2.58326,2.67838 -5.09824,5.49192 -5.58883,6.25238 -0.49062,0.76045 -1.60053,1.94981 -2.46647,2.64301 -0.86595,0.69319 -2.57564,2.29806 -3.79928,3.56633 -1.81406,1.8802 -2.32067,2.62817 -2.74407,4.05122 -0.28558,0.95987 -0.47869,1.89464 -0.42913,2.07723 0.1111,0.40929 0.81295,5.9827 2.36203,18.75654 0.65317,5.38629 1.36958,10.70966 1.59203,11.82971 0.49672,2.50109 2.9661,25.16617 5.47476,50.24948 1.92126,19.20989 2.50111,28.38649 2.49902,39.54879 0,5.43184 -0.38454,9.41416 -3.75006,38.93866 -1.12961,9.90966 -1.36213,12.7045 -1.0919,13.1255 3.71024,5.78087 16.60069,24.55155 16.67805,24.28605 0.0584,-0.20018 -0.75358,-5.9305 -1.80423,-12.73401 -1.90217,-12.31757 -1.92565,-12.42832 -5.53628,-26.11598 -1.99433,-7.56025 -3.62602,-13.9466 -3.62602,-14.1919 0,-1.34483 0.81251,0.55227 4.423,10.32736 3.50377,9.48609 4.21998,11.75689 5.99426,19.00552 l 2.01504,8.23223 0.60591,8.13338 c 0.33323,4.47335 0.67616,9.40317 0.76205,10.95515 0.0859,1.55197 0.40375,3.86749 0.70634,5.14559 0.30256,1.27811 1.74158,8.29936 3.1978,15.60279 2.86079,14.34774 2.80955,14.10891 3.02715,14.10891 0.0811,0 3.25177,-2.21241 7.04577,-4.91644 z m 35.47861,-40.73002 4.8797,-10.2912 0.3707,-32.69947 0.37069,-32.69947 -0.78097,-24.23412 -0.781,-24.23412 -2.60258,-21.9103 c -5.2195,-43.94109 -5.77665,-47.934 -8.84772,-63.40709 -2.53497,-12.77225 -7.2464,-33.67345 -12.83358,-56.93358 -1.2061,-5.02112 -2.25632,-9.46543 -2.33383,-9.87624 -0.10253,-0.54338 -0.34919,-0.74794 -0.90507,-0.75059 -1.00565,-0.004 -16.69777,1.4012 -16.81123,1.50623 -0.0482,0.0447 1.49825,8.02926 3.43656,17.74363 1.93829,9.71436 3.45613,17.96026 3.37291,18.32431 -0.16825,0.73602 1.52856,10.40746 6.04724,34.46789 1.66306,8.85541 4.71381,26.63264 6.7794,39.50494 l 3.75564,23.40418 0.91215,14.60688 c 0.92255,14.77308 1.59305,21.06894 3.2327,30.3541 0.63573,3.60016 0.87774,6.03599 0.97297,9.79324 0.0697,2.75064 0.39377,13.4416 0.72015,23.7577 0.40616,12.83835 0.59453,25.02138 0.59697,38.6116 0.003,11.83674 0.11018,19.7797 0.26754,19.66842 0.26858,-0.18993 0.47823,0.75095 2.67274,11.99638 l 1.24336,6.37136 0.69241,-1.39174 c 0.38085,-0.76547 2.88831,-6.02278 5.57215,-11.68294 z m -89.95176,1.47251 c 7.26849,-1.34234 12.90502,-9.25589 16.22245,-22.77586 1.42657,-5.814 2.75678,-14.35885 3.11438,-20.00604 l 0.15904,-2.51121 -7.31497,-19.73594 -7.31494,-19.73594 -22.05563,-25.46376 -22.05565,-25.46375 -11.30208,-20.19924 c -6.21619,-11.10958 -11.40017,-20.39534 -11.52,-20.63499 -0.17158,-0.34316 -0.92241,-0.17658 -3.53317,0.78389 -14.14379,5.20337 -27.23856,13.37166 -35.00417,21.83498 l -1.80118,1.96303 0.69619,1.57183 c 0.38292,0.8645 2.12669,5.21655 3.87506,9.67124 1.74837,4.45467 5.94888,14.5978 9.33445,22.54029 3.38558,7.94249 9.61496,22.58256 13.8431,32.53348 7.4178,17.45789 7.93326,18.5558 14.69409,31.29685 l 7.00665,13.20426 4.49766,5.38208 4.49767,5.38206 11.95041,9.09706 11.95042,9.09705 0.34199,1.69636 c 0.42293,2.09758 0.93662,3.06901 1.78601,3.37741 0.35982,0.13066 1.30998,0.80195 2.11147,1.49176 3.184,2.74038 7.74521,4.9891 11.33202,5.58682 2.42312,0.40382 2.39097,0.40369 4.48873,0.0162 z M 82.52814,841.56746 c 12.812028,-12.78563 20.58125,-21.25259 25.83625,-28.15647 2.41471,-3.17237 4.60162,-6.08545 4.85982,-6.47349 0.2582,-0.38805 2.36808,-7.4339 4.68862,-15.65743 4.00548,-14.19462 4.54568,-15.83886 10.66589,-32.46433 3.54571,-9.63184 6.39777,-17.56324 6.33792,-17.62535 -0.0598,-0.062 -1.61045,0.0379 -3.44579,0.22212 -7.48116,0.7511 -15.71934,-1.09275 -22.64565,-5.06847 -5.04778,-2.89745 -7.90819,-5.33418 -12.533956,-10.67743 -3.781787,-4.36835 -4.40943,-5.25502 -5.427545,-7.66757 -1.311801,-3.10844 -2.32896,-7.37936 -3.295246,-13.83623 l -0.668752,-4.46874 -0.979257,3.10698 c -0.538598,1.70888 -3.763684,9.52209 -7.166882,17.36279 -3.403187,7.84066 -6.187625,14.35234 -6.187625,14.4704 0,0.11807 1.888778,-1.94236 4.197276,-4.5787 2.308498,-2.63637 4.254237,-4.72585 4.323864,-4.64336 0.06958,0.0825 -3.524893,7.47006 -7.987815,16.41677 -4.462922,8.9467 -8.695675,17.67507 -9.406101,19.39636 -1.220179,2.95629 -2.040232,6.09753 -6.035063,23.11749 -0.836981,3.5659 -1.125709,5.71975 -1.624329,12.11706 -1.299004,16.66603 -1.277596,15.65451 -0.657847,31.08886 l 0.576021,14.3453 3.545279,4.24526 3.545279,4.24525 2.948144,0.18402 c 1.62148,0.10119 3.905547,0.21322 5.075702,0.24898 l 2.127559,0.0649 9.334234,-9.31503 z m 319.37544,-29.99786 -1.1671,-34.11325 -3.91033,-36.338 c -2.1507,-19.98591 -3.91033,-36.50263 -3.91033,-36.7038 0,-0.20114 -0.75082,0.45025 -1.66849,1.44757 -6.83962,7.43334 -20.01055,12.5154 -37.64982,14.52723 -5.36501,0.61189 -15.92229,1.10417 -20.48541,0.95522 l -4.52594,-0.14773 1.79904,3.51056 c 0.98947,1.93083 5.15593,10.08369 9.25881,18.11747 l 7.45978,14.60686 3.86332,4.31567 c 6.03113,6.73732 40.62877,46.98299 40.76226,47.41665 0.0657,0.21319 1.77413,4.71991 3.79663,10.0149 3.61674,9.46864 3.70785,9.76781 5.52961,18.15873 1.01877,4.69228 1.8889,8.48954 1.9337,8.43832 0.0448,-0.0512 -0.44381,-15.44411 -1.08573,-34.2064 z m -243.5634,-42.57656 c -2.14381,-11.46161 -3.81395,-21.38037 -4.65779,-27.66206 -2.16299,-16.10171 -2.02624,-14.68674 -2.91979,-30.20966 -0.60095,-10.43989 -0.71694,-15.03412 -0.71866,-28.46679 -0.001,-8.80977 0.10415,-16.01776 0.2339,-16.01776 0.1298,0 0.5288,2.27403 0.88665,5.05338 0.35786,2.77938 0.7,5.10985 0.76031,5.17887 0.71562,0.8187 4.73847,-7.3778 7.62894,-15.54384 4.4105,-12.46039 6.09353,-23.89727 4.65656,-31.64309 l -0.29671,-1.59938 -1.00238,3.42524 c -1.17162,4.00357 -3.63764,9.89353 -6.29885,15.04438 l -1.88668,3.65171 0.38862,3.81771 c 0.63074,6.19606 0.85196,11.28712 0.49045,11.28712 -0.34152,0 -0.84622,-1.79887 -2.64499,-9.4275 -0.64141,-2.72024 -1.2169,-5.00385 -1.27885,-5.07473 -0.062,-0.0709 -0.9055,-0.29755 -1.87457,-0.50374 -1.66589,-0.35441 -1.75568,-0.42163 -1.64698,-1.23278 0.0633,-0.47188 0.18961,-2.22004 0.28084,-3.88487 0.16247,-2.96476 0.15082,-3.03819 -0.5671,-3.57635 l -0.73296,-0.54945 -0.002,1.7505 c -0.001,0.96279 -0.26142,7.72606 -0.57771,15.0295 -0.31628,7.30344 -0.57625,13.46571 -0.5777,13.69394 -0.001,0.22823 -0.13195,0.41497 -0.29,0.41497 -0.18463,0 -0.3143,-5.66302 -0.36271,-15.84082 l -0.0753,-15.84078 -2.75663,-0.40926 c -1.51615,-0.22507 -3.19202,-0.48409 -3.72413,-0.57558 l -0.96751,-0.16635 0.19951,5.04628 c 0.10974,2.77543 0.24175,6.0173 0.29336,7.20411 0.0516,1.1868 0.17898,8.35744 0.28302,15.93475 0.14862,10.82343 0.0977,14.97038 -0.23726,19.34388 -0.39458,5.15115 -0.38704,5.94457 0.10079,10.62318 1.13163,10.8523 4.47122,32.71686 5.32001,34.83054 0.24278,0.60463 1.35554,5.58096 2.47279,11.05853 1.67184,8.19661 2.59673,11.85162 5.2259,20.65169 1.757,5.88086 3.42895,11.19819 3.71542,11.81629 1.11277,2.4009 6.32914,11.75779 6.41371,11.50464 0.0491,-0.14717 -1.41462,-8.30856 -3.25285,-18.13642 z m 118.67007,-24.03109 c -0.23648,-1.15972 -0.40259,-2.13124 -0.36913,-2.15897 0.0335,-0.0276 1.17691,-1.00515 2.54101,-2.17206 1.36411,-1.16697 5.4262,-4.56741 9.02687,-7.55653 l 6.54669,-5.43486 13.75162,-6.27773 c 7.56339,-3.45273 13.98011,-6.30479 14.25937,-6.33788 0.30634,-0.0363 0.45757,-0.26264 0.38123,-0.57051 -0.0696,-0.28068 -0.29397,-1.18255 -0.49863,-2.00419 -0.20463,-0.82163 -1.00823,-2.49561 -1.78575,-3.71994 -1.24507,-1.96051 -1.96429,-3.9404 -6.02974,-16.59871 -2.53883,-7.90497 -4.61627,-14.39985 -4.61653,-14.43304 -2.6e-4,-0.0332 -0.36776,-0.35964 -0.81671,-0.72534 l -0.81626,-0.66495 -4.03037,0.97747 c -20.36143,4.93822 -35.6069,13.23084 -41.95136,22.81902 -0.78189,1.18166 -1.75833,2.96273 -2.16987,3.95799 -0.97504,2.35798 -1.68524,6.18674 -1.29372,6.97468 0.15929,0.32059 1.45427,3.72004 2.87771,7.55434 2.56803,6.91746 10.42457,27.43767 10.56771,27.60144 0.1009,0.11543 4.6771,1.01448 4.77685,0.93849 0.0434,-0.0332 -0.11452,-1.009 -0.35099,-2.16872 z m -147.28043,-7.50823 c 3.89971,-0.92594 9.97561,-3.82992 10.35026,-4.94692 0.0925,-0.27576 0.0142,-2.17522 -0.17387,-4.22098 -0.38163,-4.14955 -2.56725,-23.59371 -2.7696,-24.63943 -0.1059,-0.54746 -0.59048,-0.77799 -2.65944,-1.26519 -14.88317,-3.50488 -24.47135,-12.96662 -27.67863,-27.31355 -1.17257,-5.24518 -1.42923,-13.33956 -0.5831,-18.39011 0.13764,-0.82163 0.20792,-1.54285 0.15617,-1.60268 -0.0517,-0.0598 -0.60345,0.41763 -1.22598,1.0611 -1.02466,1.05906 -1.55477,2.37428 -5.596868,13.88572 -2.756071,7.84896 -4.884413,13.42554 -5.560808,14.57009 -2.556345,4.32572 -3.690208,8.29868 -3.923737,13.74854 -0.229919,5.36547 0.995936,11.66793 3.269207,16.80796 1.818162,4.11101 7.333526,11.059 11.966096,15.07432 2.97268,2.57662 8.57287,5.82535 11.71444,6.79568 4.2993,1.32796 8.36984,1.46736 12.71586,0.43545 z m 227.78502,-22.54138 c 5.50601,-1.35509 11.12084,-2.80356 12.47739,-3.2188 2.2892,-0.70072 2.4624,-0.81403 2.40999,-1.57654 -0.0801,-1.16563 -8.56077,-43.33729 -11.54771,-57.42315 -1.37445,-6.4818 -3.85552,-18.0594 -5.51341,-25.72801 -1.6579,-7.6686 -4.06026,-19.84376 -5.33855,-27.0559 -1.27833,-7.21214 -3.36373,-17.63477 -4.63432,-23.16141 l -2.31011,-10.04847 -3.72564,-9.14343 -3.72563,-9.14344 -3.88273,-3.96334 c -2.1355,-2.1798 -4.04399,-3.9633 -4.24104,-3.9633 -0.19709,0 -1.27609,0.52527 -2.3978,1.16728 -6.95602,3.98127 -14.12256,19.38106 -21.13437,45.41428 l -1.59307,5.91472 1.60758,1.83918 c 2.51489,2.87718 3.45264,5.43724 4.52265,12.34662 l 0.89278,5.76479 -1.46958,10.92262 -1.46961,10.92262 1.1615,14.27878 c 0.63882,7.85334 1.24766,16.4481 1.35296,19.09948 l 0.19146,4.82069 1.26666,0.84926 c 0.69667,0.46708 1.38847,1.10962 1.53733,1.42785 0.14885,0.3182 2.44867,7.36064 5.11067,15.6498 l 4.84005,15.0712 1.8782,2.60461 c 1.65462,2.2946 1.98404,2.99725 2.7678,5.90353 l 0.88964,3.29889 10.03299,-0.2033 10.03298,-0.2033 10.01094,-2.46381 z m 18.71609,-5.59082 c 6.6252,-2.86944 15.83477,-7.47108 21.17194,-10.57873 3.44979,-2.0087 6.86788,-5.02658 7.06182,-6.235 0.21496,-1.33915 -7.96502,-35.94571 -13.74083,-58.13271 l -4.482,-17.21695 0,-4.7323 0,-4.73229 -1.95866,-2.21068 c -1.07726,-1.21586 -3.14997,-3.10138 -4.60599,-4.19002 l -2.64729,-1.97935 -0.20715,-2.8452 -0.20716,-2.84514 -1.40066,-1.15123 c -1.25044,-1.02779 -1.44039,-1.35442 -1.7713,-3.0461 -0.27679,-1.41507 -0.7738,-2.49179 -1.96295,-4.25258 l -1.59232,-2.35778 0.7444,-2.32492 c 0.40941,-1.27869 1.04523,-3.25487 1.41297,-4.39149 0.66548,-2.05707 0.66612,-2.07543 0.1407,-3.98369 -0.29032,-1.05441 -0.58246,-2.08042 -0.6492,-2.28003 -0.0668,-0.19958 0.93551,-1.1567 2.22721,-2.12689 1.29171,-0.9702 2.28877,-1.92731 2.21567,-2.1269 -2.48442,-6.78598 -9.89585,-27.14879 -10.09476,-27.73535 -0.2667,-0.78632 -0.31713,-0.74329 -1.45919,1.2449 -0.65062,1.13267 -1.30383,2.0594 -1.45153,2.0594 -0.14769,0 -1.03771,-0.59755 -1.97775,-1.32789 -0.94004,-0.73034 -1.80743,-1.32791 -1.92747,-1.32791 -0.12008,0 -1.8721,1.19512 -3.89341,2.6558 -2.02131,1.46069 -3.82821,2.65579 -4.01534,2.65579 -0.18711,0 -0.66226,-0.2414 -1.05588,-0.53646 -0.68603,-0.51426 -0.78941,-0.48618 -2.49829,0.67842 l -1.78265,1.21489 -2.24178,-1.96409 -2.24177,-1.96413 -1.76753,1.28571 c -0.97211,0.7071 -1.87986,1.28566 -2.01722,1.28566 -0.13734,0 -1.53655,-1.04571 -3.1094,-2.32381 -2.93495,-2.38497 -3.50362,-2.60105 -5.589,-2.12391 -0.86135,0.1971 -0.81637,0.25914 3.18945,4.39866 l 4.06314,4.19874 3.76617,9.24257 3.76617,9.24259 2.30814,10.01192 c 1.26951,5.50659 3.27628,15.46461 4.45954,22.129 2.78855,15.70597 3.29786,18.33401 5.21137,26.88992 4.23939,18.95566 14.40846,68.26454 16.70517,81.00172 0.65011,3.60531 0.7544,3.98532 1.09256,3.98133 0.11029,0 1.37571,-0.51136 2.81206,-1.13349 z m -109.53992,-16.161 c 5.07871,-4.52527 11.21225,-9.02472 16.20006,-11.88398 7.27175,-4.16861 16.04518,-6.99938 21.7044,-7.00304 1.30903,0 2.17203,-0.15363 2.35101,-0.4163 0.18716,-0.27463 -0.1654,-5.97327 -1.04265,-16.85167 l -1.32542,-16.43674 0.36533,-5.63955 c 0.20091,-3.10176 0.65344,-8.92612 1.00562,-12.94301 0.35215,-4.01689 0.64029,-9.54426 0.64029,-12.28305 0,-4.28485 -0.0798,-5.16489 -0.57196,-6.30751 -1.29326,-3.00254 -5.09112,-6.0658 -9.10214,-7.34161 -2.11787,-0.67368 -2.19853,-0.61293 -2.48677,1.87293 -0.21898,1.88857 -0.78116,2.41412 -3.40532,3.18323 -3.27567,0.96007 -6.80418,-0.10416 -11.19021,-3.37494 -2.89487,-2.1588 -7.90276,-7.61639 -11.04375,-12.03543 l -2.19557,-3.08899 -0.39404,1.07217 c -0.21672,0.58966 -0.49558,0.93398 -0.61969,0.76514 -0.12411,-0.16884 -0.78926,-1.16553 -1.47811,-2.2148 -1.8105,-2.75781 -4.65019,-5.67384 -6.57384,-6.7506 -5.28624,-2.95888 -10.63487,0.16068 -15.21601,8.87467 l -1.05468,2.00616 0.55916,3.80678 c 0.30754,2.09376 0.51317,3.84672 0.45696,3.89549 -0.0562,0.0488 -1.9404,1.74777 -4.18709,3.77557 l -4.08487,3.6869 -0.49813,4.75136 -0.49813,4.75137 -2.60526,4.38652 -2.60527,4.38648 -2.29388,12.70515 -2.29389,12.70515 2.66311,7.59158 2.66312,7.59163 7.08506,8.43258 c 5.96543,7.09997 7.45573,9.07839 9.4306,12.51938 1.67859,2.92476 4.02918,6.22116 8.26683,11.59317 l 5.92132,7.50637 2.2035,-2.28688 c 1.21193,-1.25778 3.57456,-3.50853 5.25031,-5.00168 z m -129.55742,2.57041 c 0.161,-2.45674 0.0145,-5.04578 -0.70005,-12.36604 -0.75461,-7.73116 -0.90269,-10.51845 -0.89756,-16.89411 0.004,-6.04748 -0.18136,-9.87922 -0.89548,-18.42457 l -0.90164,-10.78916 -1.71434,-6.02417 c -0.94289,-3.31331 -1.71435,-6.50481 -1.71435,-7.0923 0,-0.88687 0.45194,-4.31438 1.60611,-12.18054 0.18588,-1.26685 0.73158,-1.0563 -8.06518,-3.11163 -3.3131,-0.7741 -5.95186,-1.48977 -5.86392,-1.59039 0.088,-0.10066 3.16078,-0.27975 6.82852,-0.39814 3.66774,-0.11834 6.71286,-0.27397 6.76695,-0.34581 0.13292,-0.17654 1.67938,-18.94295 1.57032,-19.05596 -0.0474,-0.0491 -2.55548,-0.47851 -5.57351,-0.95419 -7.41885,-1.16931 -7.59748,-1.39811 -1.32347,-1.69509 2.3096,-0.10936 4.75422,-0.2761 5.43249,-0.37058 l 1.23323,-0.17177 0,-6.91014 0,-6.91015 -2.82917,-0.38273 c -4.34962,-0.5885 -5.08108,-0.74345 -4.81566,-1.02029 0.135,-0.14082 1.91031,-0.88458 3.94514,-1.65283 l 3.69969,-1.39675 0,-7.27595 c 0,-4.00179 -0.098,-7.2697 -0.21762,-7.2621 -0.1197,0.007 -1.65398,0.35741 -3.40953,0.77732 -3.15102,0.75374 -3.24948,0.80619 -7.68955,4.09706 l -4.49767,3.33352 -1.18348,7.97894 c -0.96981,6.53833 -1.42647,8.74804 -2.5293,12.23886 l -1.34581,4.25993 -0.75275,12.61502 c -0.60096,10.07153 -0.77589,15.89844 -0.86759,28.89992 -0.0632,8.9567 -0.25599,18.59225 -0.42851,21.41234 -0.17253,2.82008 -0.4959,8.04052 -0.7186,11.60094 -0.56335,9.00603 -0.16645,13.92277 1.63465,20.25042 3.43454,12.06621 12.63548,19.61531 24.22752,19.87799 l 1.78649,0.0405 0.20363,-3.10735 z m 271.97037,-9.22261 3.47278,-5.19248 -6.47133,-24.68521 c -4.19809,-16.01371 -7.50733,-27.95044 -9.42046,-33.98046 -1.62204,-5.11239 -3.14245,-9.91852 -3.3787,-10.68027 -0.45331,-1.46159 -0.31398,-1.37056 -6.12133,-3.99943 -0.27943,-0.12648 -0.36271,0.8723 -0.36271,4.34946 l 0,4.51366 4.5124,17.34917 c 4.13925,15.91452 11.61631,46.9736 13.19236,54.79997 0.3608,1.79159 0.75682,3.13609 0.88009,2.98776 0.12326,-0.14833 1.78688,-2.6063 3.6969,-5.46217 z m 62.59355,-11.74018 c 1.75555,-1.78107 4.41788,-4.36837 5.91629,-5.74959 1.49842,-1.38121 3.4317,-3.49051 4.29617,-4.68735 2.69126,-3.72594 4.65065,-9.06813 4.38767,-11.96279 l -0.0915,-1.0071 -5.2231,3.98568 c -2.8727,2.19209 -5.31037,3.98582 -5.41704,3.98598 -0.10666,2e-4 -0.4787,-0.52671 -0.8267,-1.17091 l -0.63275,-1.17127 0.68161,-0.61727 c 0.37491,-0.33948 4.26509,-3.84881 8.64486,-7.79854 l 7.96328,-7.18127 0.83175,-2.2306 c 1.77632,-4.76373 4.26306,-14.15223 3.8682,-14.60398 -0.0524,-0.06 -3.32038,2.43629 -7.26205,5.54742 -3.94164,3.11114 -7.30334,5.65661 -7.47039,5.65661 -0.16708,0 2.09458,-2.83934 5.02592,-6.30964 5.35742,-6.34243 11.52215,-14.57695 12.30069,-16.43059 0.80609,-1.91928 8.21685,-39.83841 8.46681,-43.32265 0.0589,-0.82164 0.57515,-6.86005 1.14716,-13.41867 l 1.04001,-11.92477 3.3146,-7.82769 c 1.82307,-4.30524 3.99457,-9.46453 4.82559,-11.46507 5.72515,-13.78217 10.76045,-24.75439 17.53953,-38.2198 l 7.53522,-14.96726 3.4935,-11.42469 c 5.0339,-16.46208 5.86281,-20.04896 8.20226,-35.49284 1.90689,-12.58829 2.0001,-13.45834 2.32936,-21.74431 0.18864,-4.74723 0.3957,-8.6958 0.46018,-8.77461 0.0645,-0.0788 2.89003,0.85663 6.27904,2.07869 17.12997,6.17711 48.55427,13.91506 61.58467,15.16472 2.07473,0.19894 9.25648,1.16623 15.95946,2.14949 6.70297,0.98325 13.469,1.8421 15.03561,1.90853 l 2.84838,0.1208 -0.15445,-1.51018 c -0.62535,-6.11407 -0.38137,-12.08782 0.70575,-17.27897 0.325,-1.55197 1.19041,-4.24097 1.92309,-5.97553 1.11159,-2.63156 1.72255,-3.59425 3.68974,-5.8141 1.77155,-1.99908 2.84241,-2.90673 4.30838,-3.65171 1.07298,-0.54524 1.95438,-1.06999 1.95867,-1.16606 0.004,-0.0961 -2.76696,-1.32741 -6.15836,-2.73624 -5.97585,-2.48247 -6.42136,-2.61243 -14.43605,-4.21145 -4.54844,-0.90749 -13.81944,-2.76376 -20.60221,-4.12508 l -12.33231,-2.47514 -23.94572,-1.39808 c -21.01826,-1.22713 -24.78376,-1.36809 -30.8008,-1.15301 l -6.8551,0.24507 -0.17504,1.00136 c -0.0962,0.55072 -0.17505,1.91102 -0.17505,3.02283 0,1.71328 -0.0595,1.94736 -0.39046,1.53538 -0.21473,-0.26737 -2.13175,-3.92205 -4.26005,-8.12152 -3.71252,-7.32544 -4.04122,-7.85319 -8.09707,-13.00041 -3.45383,-4.38319 -6.33967,-7.47865 -15.76923,-16.91453 l -11.5417,-11.54951 -12.52243,-7.41699 -12.5224,-7.41698 -6.40392,-1.95306 -6.40392,-1.95304 -15.61329,-0.98391 c -8.5873,-0.54117 -15.69288,-1.07501 -15.7902,-1.18632 -0.0973,-0.11133 -0.12249,-0.26081 -0.056,-0.3322 0.0665,-0.0714 7.1482,-0.39372 15.73712,-0.7163 l 15.61624,-0.58651 5.15018,1.10253 5.15021,1.10254 10.93161,-6.84993 c 10.81205,-6.77501 11.07216,-6.96294 23.77499,-17.17894 l 12.84336,-10.329 6.2387,-7.03563 c 7.14008,-8.05215 11.11924,-12.4094 14.19208,-15.54051 l 2.14991,-2.19072 0.37372,-2.6104 c 0.51612,-3.60548 0.49279,-8.61915 -0.0544,-11.6707 -0.69761,-3.89055 -1.9107,-6.49283 -4.30228,-9.22893 -3.40379,-3.89414 -7.76963,-5.77436 -13.66486,-5.885 l -3.19189,-0.0599 -20.02187,11.91779 c -17.78658,10.58726 -21.02612,12.64064 -29.01719,18.39235 -4.94744,3.56099 -10.32795,7.40817 -11.95672,8.54926 -1.62873,1.14108 -6.97155,5.56254 -11.87293,9.82547 -7.42733,6.45984 -10.64,9.54772 -19.28913,18.53992 l -10.37757,10.78916 -8.29932,11.45312 -8.29935,11.45311 -9.34879,6.05553 -9.34883,6.05554 -6.96746,7.04723 -6.96744,7.04723 -4.97163,8.16128 -4.97163,8.16128 -4.81694,13.09529 c -4.36413,11.86433 -4.88382,13.48537 -5.52856,17.24497 -0.76159,4.44109 -2.43158,9.71371 -3.68014,11.6191 -1.85124,2.82524 -1.75882,3.07016 1.81271,4.80354 6.52727,3.1679 8.91171,8.74284 8.59451,20.09454 -0.13223,4.73223 -0.21887,5.38561 -1.07856,8.13336 -2.81398,8.99386 -7.06822,14.23387 -12.22612,15.05909 -1.92676,0.30827 -4.40976,0.0602 -6.21304,-0.62063 -0.57642,-0.21764 -1.08936,-0.34349 -1.13988,-0.27965 -0.0505,0.0639 2.29265,4.78544 5.20699,10.49244 l 5.29886,10.37636 7.07218,10.06047 7.07222,10.06045 10.4462,7.84077 10.44619,7.84074 17.97647,8.00001 17.9765,8.00002 10.0251,2.44373 10.02513,2.44369 11.44478,0.2109 c 6.29461,0.11596 11.50683,0.28189 11.58268,0.36866 0.0759,0.0868 0.0744,0.23053 -0.003,0.31943 -0.0777,0.0889 -5.61636,0.32055 -12.30813,0.51479 l -12.16686,0.35315 -11.75197,3.36039 -11.75196,3.36033 -12.62248,6.34666 -12.62248,6.34665 -9.39073,8.27625 c -8.98163,7.91573 -9.58322,8.51633 -13.81047,13.78872 l -4.41978,5.51247 -0.1943,2.16968 c -0.19317,2.15727 -0.79754,4.60584 -1.53684,6.22661 -0.60214,1.31999 -0.4946,3.76106 0.2109,4.78713 0.33076,0.4811 0.78779,0.87473 1.0156,0.87473 0.30555,0 0.41419,0.45144 0.41419,1.72105 0,1.07165 0.23069,2.26622 0.61137,3.1659 0.63333,1.49674 2.30959,3.08042 3.26051,3.08042 0.47722,0 0.5168,0.1554 0.31714,1.24491 -0.56137,3.06285 -0.68108,2.87276 3.9358,6.24981 2.31412,1.69264 4.66451,3.6726 5.22309,4.39989 0.8475,1.10344 2.21315,1.95848 8.25093,5.16595 l 7.23535,3.8436 12.06108,1.85471 12.06112,1.85473 6.96413,-0.22092 c 3.83027,-0.12154 7.48643,-0.36212 8.12481,-0.53461 0.63838,-0.17254 4.42513,-1.0665 8.41499,-1.98661 l 7.2543,-1.67288 11.42236,-7.29497 c 6.28231,-4.01221 11.49053,-7.21695 11.57386,-7.12161 0.0834,0.0952 -0.0948,0.95267 -0.39583,1.90516 -0.54528,1.72547 -0.56719,1.74645 -5.9155,5.67235 -9.24836,6.7887 -8.21137,6.25324 -16.51992,8.53018 -4.05876,1.11228 -7.42243,2.07142 -7.47489,2.13141 -0.0524,0.06 1.72373,7.1164 3.94703,15.68087 2.2233,8.56447 5.62505,21.92076 7.55945,29.68066 1.9344,7.7599 3.72131,14.82975 3.97089,15.71078 l 0.45379,1.60187 0.62231,-0.64764 c 0.34225,-0.35621 2.05864,-2.10492 3.81419,-3.886 z m 12.1414,-155.52347 c -4.28821,-1.28607 -9.49613,-5.04132 -13.09426,-9.44188 -2.03286,-2.48619 -2.49708,-3.83529 -3.0007,-8.72067 -0.78013,-7.56764 1.33453,-14.3141 6.07815,-19.39144 2.60469,-2.78796 4.37849,-4.08773 8.23394,-6.0336 2.32501,-1.17347 3.04649,-1.38075 5.20433,-1.49545 9.05354,-0.48109 16.68686,4.41384 20.51086,13.15276 1.35768,3.10279 1.44154,3.44547 1.47451,6.02587 0.0191,1.5048 0.0951,2.84747 0.16871,2.98368 0.29054,0.53783 -0.48834,6.244 -1.14888,8.41708 -1.25087,4.11498 -3.81858,7.85205 -7.08545,10.31215 -2.0969,1.57906 -6.1275,3.65115 -8.51911,4.37953 -2.14636,0.65373 -6.31135,0.56495 -8.8221,-0.18803 z m 9.6531,-4.15519 c 8.6899,-3.73962 13.47571,-11.07662 13.11226,-20.1021 -0.10296,-2.5575 -0.24243,-3.1363 -1.39967,-5.80955 -3.14634,-7.26821 -9.32987,-11.43442 -16.97109,-11.43442 -1.9933,0 -2.88219,0.18624 -4.92474,1.03177 -7.94467,3.28887 -13.40203,11.39871 -13.99177,20.79238 -0.17042,2.71405 -0.16368,2.74958 0.85194,4.49958 4.21981,7.27107 9.86559,11.61923 16.18225,12.46304 2.13306,0.28494 4.01163,-0.0941 7.14082,-1.4407 z M 416.48138,502.9532 c -4.42889,-1.28809 -6.80288,-2.76442 -9.26911,-5.7643 -2.18551,-2.65845 -3.50278,-5.00839 -4.70076,-8.38584 -1.08991,-3.07289 -2.25034,-8.24348 -2.78666,-12.41689 -0.62982,-4.90088 -0.86019,-15.4727 -0.45668,-20.95648 0.25307,-3.43912 0.25318,-4.92507 0,-6.07337 -0.29969,-1.36166 -0.27769,-1.56961 0.2109,-1.99284 0.86982,-0.75349 1.21464,-0.58382 1.76889,0.87033 l 0.51993,1.36402 5.36705,1.24862 c 9.43881,2.19591 9.10748,2.03318 13.02063,6.39545 8.82318,9.8359 16.48115,15.48225 22.81488,16.82177 1.42594,0.3016 1.96676,0.27228 3.12937,-0.1695 0.77302,-0.29374 1.43872,-0.4815 1.47935,-0.41727 0.0407,0.0643 0.35053,0.6699 0.68866,1.3459 0.69883,1.39697 0.72744,1.36766 -1.70182,1.74403 l -1.33694,0.20714 -0.6443,2.55956 c -2.07946,8.26101 -6.29734,16.38433 -10.43638,20.09958 -5.02145,4.50735 -10.51166,5.60121 -17.66745,3.52009 z m 7.57851,-2.77885 c 5.55827,-1.6131 10.31057,-5.1622 12.18327,-9.09869 l 0.78623,-1.65264 -1.67221,-1.53182 c -3.38746,-3.1031 -10.18152,-6.29334 -18.06692,-8.48354 -3.87495,-1.07626 -10.60613,-2.49469 -13.53716,-2.85259 l -1.78517,-0.21797 0.42383,2.61201 c 0.6196,3.81853 1.38877,6.5867 2.66288,9.58346 2.71462,6.38487 6.52475,10.22348 11.68081,11.76816 2.85164,0.85429 4.0144,0.83422 7.32444,-0.12638 z m 14.73909,-12.5547 c 1.72173,-2.66902 3.1559,-7.13118 3.1559,-9.81905 0,-0.84012 -0.14256,-0.94818 -1.95865,-1.48478 -6.37477,-1.88352 -13.70193,-7.60507 -20.82862,-16.26435 l -2.9105,-3.53639 -7.02823,-1.72384 c -3.86552,-0.94812 -7.06414,-1.66176 -7.10805,-1.58588 -0.0439,0.0758 -0.0321,5.15573 0.0264,11.28858 l 0.10623,11.15066 2.80308,0.41091 c 13.00473,1.90633 25.77238,6.59591 30.65961,11.2613 0.95756,0.91413 1.83814,1.67365 1.95683,1.68786 0.11871,0.0143 0.62538,-0.60904 1.12596,-1.38502 z m 40.87827,-20.70568 c -0.55859,-0.0772 -2.06023,-0.3724 -3.33699,-0.65598 -7.36308,-1.63537 -11.44858,-7.46245 -11.45959,-16.34465 -0.005,-4.1616 4.58397,-15.59661 7.98461,-19.89585 0.83619,-1.0571 2.20667,-2.34942 3.04553,-2.87175 1.42399,-0.88666 1.67618,-0.93636 3.80024,-0.74896 8.6074,0.75936 15.28058,6.52249 17.48333,15.09902 0.74353,2.89494 1.13639,8.26165 0.80501,10.99728 -0.80612,6.65509 -5.07754,12.0342 -10.92277,13.75535 -1.86151,0.54812 -5.73109,0.8962 -7.39937,0.66554 z m 6.54819,-2.64036 c 3.29382,-1.7827 7.03043,-6.71849 8.52604,-11.26229 0.82142,-2.49558 1.09682,-6.7171 0.59804,-9.167 -0.87278,-4.28692 -3.80218,-8.85904 -7.664,-11.96176 -1.10497,-0.88781 -2.04054,-1.57622 -2.07908,-1.52984 -0.0385,0.0464 0.30637,1.35415 0.76643,2.90613 1.60045,5.39894 0.95421,9.25501 -1.82527,10.89141 -1.11478,0.65635 -1.74326,0.77875 -3.8977,0.7591 -6.04788,-0.0552 -9.19131,-2.46415 -8.68877,-6.65878 0.17239,-1.43904 0.16088,-1.47017 -0.27821,-0.75298 -0.94524,1.54391 -3.59277,8.2879 -4.03658,10.28227 -0.49205,2.21118 -0.63186,5.91778 -0.28495,7.55527 0.37379,1.76448 1.20953,3.31702 2.54179,4.72197 1.99327,2.10203 4.32693,3.25531 8.32321,4.11333 1.03736,0.22276 2.27784,0.60698 2.75662,0.8539 1.20033,0.61903 3.25527,0.32477 5.24243,-0.75073 z m -63.05672,-22.60525 c -0.35772,-0.0856 -1.03862,-0.59972 -1.51308,-1.14252 -1.32126,-1.51158 -1.94233,-4.75387 -0.99064,-5.17167 0.46439,-0.20386 8.52231,4.12356 8.52231,4.5768 0,0.11968 -0.62024,0.52131 -1.37831,0.89254 -1.46708,0.71843 -3.56894,1.1011 -4.64028,0.84485 z m -38.17318,-24.88251 c -2.50148,-1.552 -5.11109,-4.41781 -6.16154,-6.7665 -1.06801,-2.38798 -1.32844,-6.39631 -0.58705,-9.036 0.78326,-2.78875 2.59284,-5.97245 5.16976,-9.09556 2.33674,-2.83198 6.82317,-7.17274 9.016,-8.72322 1.49491,-1.05701 4.10883,-1.27316 6.556,-0.54215 6.65785,1.98878 9.94887,7.60835 10.22291,17.45583 0.0728,2.61965 0.01,2.96945 -0.95577,5.29476 -2.53689,6.10976 -6.57338,10.06938 -12.05296,11.8234 -1.00449,0.32155 -3.22274,0.59646 -5.46336,0.67706 l -3.77224,0.13571 -1.97175,-1.22333 z m 6.03044,-0.29661 c 7.82264,-1.8957 14.65741,-6.78562 14.65741,-10.4866 0,-1.40618 -0.59659,-2.68577 -1.13983,-2.44473 -0.99958,0.44352 -3.13186,0.53899 -4.26033,0.19072 -1.41607,-0.43702 -3.6587,-2.59169 -4.1714,-4.00779 -0.20059,-0.55404 -0.49976,-1.00731 -0.66484,-1.00731 -0.2013,0 -0.2403,-1.58528 -0.11842,-4.81363 l 0.18173,-4.81363 -0.93452,0.007 c -1.66878,0.0129 -6.0836,1.29618 -8.01372,2.32949 -3.61235,1.93395 -5.53294,4.5941 -5.98276,8.28651 -0.39374,3.2322 1.21431,8.52875 4.08197,13.44496 2.45711,4.21246 2.52176,4.24611 6.36471,3.31483 z m 111.28468,241.1594 c 17.425,-4.84281 20.86549,-5.92468 20.60833,-6.48035 -0.0764,-0.16515 -3.59854,-2.61681 -7.82695,-5.44812 l -7.68796,-5.14783 -0.195,-1.32567 c -0.10731,-0.72911 -0.24131,-2.13589 -0.29789,-3.12614 l -0.10285,-1.80046 5.22309,-2.13858 c 2.87271,-1.17622 5.27966,-2.19847 5.34874,-2.27167 0.0691,-0.0732 -0.16125,-0.54145 -0.51192,-1.04057 -1.33316,-1.8976 -1.35983,-2.19806 -0.34475,-3.88593 0.51261,-0.85244 0.88682,-1.58985 0.83154,-1.63869 -0.0552,-0.0489 -2.18976,-0.34843 -4.74326,-0.66573 -7.27691,-0.9042 -6.766,-0.74502 -7.15457,-2.22888 -0.18519,-0.70707 -0.47922,-1.28245 -0.65347,-1.2786 -0.35703,0.008 -5.16643,1.5961 -5.24335,1.73154 -0.0273,0.048 -0.93029,3.44858 -2.00669,7.55676 -1.68686,6.43818 -3.16368,11.87689 -3.56906,13.14386 -0.0638,0.19959 1.13855,1.44176 2.672,2.76041 1.53345,1.31866 2.73791,2.56974 2.6766,2.78015 -0.0613,0.21043 -2.38637,1.50861 -5.16677,2.88485 l -5.05532,2.50226 -1.22946,4.81193 c -0.67619,2.64657 -1.2319,4.83388 -1.23489,4.86067 -0.003,0.027 2.44291,-0.68775 5.43531,-1.5879 2.9924,-0.90018 7.59525,-2.23548 10.22856,-2.96731 z m -396.1487,-6.11671 c 2.93949,-1.99008 2.942,-1.99287 2.80831,-3.15375 -0.0736,-0.63905 -0.52764,-7.88438 -1.00897,-16.10075 -0.48135,-8.21636 -0.9055,-15.20967 -0.94258,-15.54068 -0.0371,-0.33101 -1.94255,6.5946 -4.23441,15.39026 -4.547414,17.45189 -4.368215,16.18989 -2.67445,18.83496 0.8342,1.30274 2.54649,2.83998 2.94451,2.64348 0.091,-0.045 1.48941,-0.97799 3.10759,-2.07352 z m 48.43624,-5.95286 c 1.71361,-2.09489 3.08762,-5.1759 4.37747,-9.81591 0.96191,-3.46026 2.14246,-9.32522 2.69904,-13.4089 0.31931,-2.34272 0.39902,-2.55412 0.7537,-1.99919 0.52598,0.82293 1.21197,0.35054 1.94676,-1.34064 0.73483,-1.69128 0.95586,-5.51755 0.66523,-11.51586 l -0.23551,-4.86044 1.75851,-3.27292 1.75853,-3.27297 2.8e-4,-5.20699 c 2.2e-4,-2.872 -0.1378,-5.62285 -0.30779,-6.13436 -0.56948,-1.71391 -4.04431,-15.62363 -4.04431,-16.18972 0,-1.23852 0.56576,-0.005 1.7421,3.79835 0.68073,2.2009 1.2794,3.95385 1.33042,3.89552 0.051,-0.0583 -0.0292,-1.07154 -0.17828,-2.25151 -0.36358,-2.87822 -0.34895,-6.17472 0.0345,-7.75442 l 0.31389,-1.29334 -5.46218,-9.26311 c -4.83132,-8.19329 -5.53597,-9.24193 -6.10122,-9.07963 -0.6604,0.18962 -12.96713,1.63013 -17.06921,1.99795 -4.00323,0.35897 -3.54683,-0.75478 -3.60699,8.80216 -0.0287,4.56691 0.0528,8.29518 0.18142,8.28509 0.12852,-0.01 4.77125,-0.50341 10.31716,-1.09624 l 10.08348,-1.07789 0,1.39904 c 0,1.70535 0.97692,1.47403 -11.17162,2.64546 -4.94744,0.47709 -9.12179,1.00523 -9.27633,1.17367 -0.6938,0.75617 -0.46922,7.29102 0.4636,13.49004 l 0.31222,2.07484 2.40593,0 c 7.09473,0 14.60938,1.73028 18.42264,4.24193 1.92596,1.26854 4.02446,3.65574 4.87418,5.54474 0.60404,1.3428 0.77453,2.27159 0.8779,4.78248 0.0928,2.25574 0.0382,3.05231 -0.19823,2.8852 -0.17958,-0.12699 -0.32662,-0.4088 -0.32674,-0.62625 -1.3e-4,-0.21747 -0.39219,-1.34326 -0.87125,-2.50179 -2.29395,-5.54755 -7.89915,-9.24505 -15.66072,-10.33067 -2.65783,-0.37174 -7.60042,-0.4536 -8.61363,-0.14265 -0.40451,0.12416 -0.94142,0.92458 -1.51619,2.26028 -2.17165,5.04674 -2.33162,9.72512 -0.47913,14.01333 0.58028,1.34327 1.33496,2.61367 1.67707,2.82315 0.34211,0.20944 1.92565,0.43734 3.51897,0.50639 8.18503,0.35468 19.9139,5.23858 19.9139,8.29219 0,0.24924 -0.10579,0.45317 -0.23504,0.45317 -0.28852,0 -7.38491,-2.57512 -15.69622,-5.69581 -5.19403,-1.95025 -6.32335,-2.2731 -6.90006,-1.97246 -0.37926,0.19769 -0.78368,0.62547 -0.89871,0.95064 -0.11504,0.32514 -0.91376,1.91446 -1.77495,3.53184 l -1.5658,2.94063 0.17542,3.85727 c 0.27567,6.06226 1.41517,12.51913 2.46592,13.9729 0.39798,0.55065 1.33679,0.82752 4.98792,1.47102 6.33091,1.11579 9.19081,1.36561 9.73357,0.85028 0.24006,-0.22793 0.53125,-0.30492 0.6471,-0.17104 0.33134,0.38291 0.20241,6.41657 -0.19125,8.94934 -0.41167,2.64869 -0.26521,2.91503 1.37438,2.49953 0.74351,-0.18843 1.50807,-0.81769 2.56821,-2.11372 z m 381.29677,-24.17041 c 8.34052,-3.87809 15.15724,-7.12729 15.14828,-7.22044 -0.0309,-0.32059 -21.77396,-19.42421 -22.44582,-19.72106 -0.47197,-0.20852 -1.69106,-0.0315 -4.08653,0.59346 -1.87767,0.48987 -3.46169,0.83598 -3.52008,0.76919 -0.0584,-0.0667 3.84316,-2.344 8.67005,-5.06051 17.42521,-9.80666 42.87141,-24.48643 42.87141,-24.73226 0,-1.85102 -3.96299,-39.85245 -4.49645,-43.11684 -0.40026,-2.44935 -0.69488,-4.48176 -0.65465,-4.51645 0.0402,-0.0347 7.18956,-2.32302 15.88747,-5.08515 22.389,-7.1099 24.83181,-7.64201 50.48249,-10.99635 l 20.40637,-2.66854 9.35567,0 9.35569,0 0.15534,-0.74695 c 0.0855,-0.41081 1.6032,-11.50291 3.37281,-24.64909 l 3.21752,-23.90214 4.39883,-15.18521 c 2.41937,-8.35184 4.34341,-15.24655 4.27565,-15.32154 -0.0677,-0.075 -7.89256,-0.23841 -17.38844,-0.36314 l -17.26523,-0.2268 -16.10454,4.52882 c -8.8575,2.49087 -17.93263,5.0407 -20.16696,5.66634 -2.23433,0.62564 -5.75991,1.90042 -7.83464,2.83287 -2.07473,0.93245 -7.95071,3.53778 -13.05774,5.78969 -7.08986,3.12617 -11.78989,5.48133 -19.87678,9.96006 -13.95789,7.73026 -15.16221,8.33242 -21.56918,10.78495 -4.83647,1.85139 -5.49757,2.191 -5.75122,2.9544 -1.13999,3.43135 -5.3543,14.36114 -5.90073,15.30349 -0.37058,0.63905 -2.95091,5.64356 -5.73408,11.12114 -5.18895,10.21229 -8.07541,15.70022 -10.97594,20.86803 l -1.65093,2.94142 1.98309,5.19196 c 1.09074,2.85556 4.25294,11.09278 7.02715,18.30492 l 5.04407,13.11298 1.06339,-0.0974 c 0.58487,-0.0536 1.0634,-0.005 1.0634,0.1065 0,0.11213 -0.59155,1.15224 -1.31455,2.3114 l -1.31453,2.10753 -14.4273,8.88274 c -7.935,4.88553 -14.46495,8.91188 -14.51097,8.9475 -0.046,0.0356 -0.94809,5.3419 -2.00457,11.79176 l -1.92091,11.727 6.06701,6.72766 c 3.33683,3.70018 6.21743,6.66886 6.4013,6.59702 0.18392,-0.0718 0.4162,-0.0369 0.51622,0.0775 0.26777,0.30631 -3.65715,4.72579 -4.19696,4.72579 -0.25312,0 -1.93205,1.30346 -3.73091,2.8966 -3.26386,2.89057 -3.26934,2.8978 -2.63804,3.48268 1.65723,1.53525 6.16034,2.21211 10.69994,1.60835 1.64435,-0.21871 3.05145,-0.32707 3.12686,-0.24078 0.0755,0.0862 -0.26385,1.9111 -0.75392,4.05516 -1.00699,4.4054 -0.96232,4.13274 -0.67653,4.13274 0.11796,0 7.03856,-3.17297 15.37912,-7.05106 z M 210.79306,585.7356 c 3.40776,-8.90252 6.83365,-17.50105 8.63729,-21.67846 0.90669,-2.09996 1.62745,-3.84399 1.6017,-3.87555 -0.0258,-0.0315 -1.80879,-0.52284 -3.96231,-1.0916 l -3.91547,-1.03414 -7.97973,-5.10583 c -6.74216,-4.31397 -8.01303,-5.01995 -8.19446,-4.552 -0.11811,0.30462 -1.79516,6.96028 -3.72677,14.79035 l -3.51204,14.23646 1.1984,14.47932 c 1.09166,13.18974 1.34122,15.29236 2.80212,23.60858 0.88206,5.02112 1.67117,9.3966 1.75357,9.72326 0.0907,0.35953 2.70832,-6.19278 6.63112,-16.59872 3.5647,-9.45595 7.46467,-19.76172 8.66658,-22.90167 z m 79.67984,14.81299 c 3.00375,-0.79192 3.25492,-1.11241 3.62262,-4.62234 0.30745,-2.93482 1.05524,-6.38191 1.70324,-7.85139 0.39044,-0.88545 2.82887,-7.06255 5.41874,-13.72694 2.58984,-6.66439 5.07745,-12.97037 5.52804,-14.01329 0.71694,-1.65948 7.69327,-12.15803 14.55534,-21.90407 2.27997,-3.2382 2.84418,-4.36241 2.84418,-5.66706 0,-1.24956 -5.79456,-17.91244 -7.156,-20.57776 -0.72279,-1.41504 -1.37733,-2.57281 -1.45454,-2.57281 -0.35265,0 -19.94345,13.85276 -20.42255,14.44089 -0.29748,0.36517 -3.481,5.0952 -7.07449,10.51117 -6.13425,9.24535 -6.64676,10.12804 -8.38457,14.44087 -1.01803,2.52653 -3.63746,8.88972 -5.82094,14.14042 -4.50519,10.83382 -7.02337,17.97561 -6.65429,18.87211 0.52123,1.26608 5.25077,7.44615 7.86291,10.2744 4.24669,4.59804 8.36957,7.48489 11.81736,8.27449 1.62677,0.37258 2.14097,0.36992 3.61495,-0.0186 z m -54.61819,-4.53935 3.44089,-2.5728 -0.23746,-1.65987 c -0.1306,-0.91293 -0.51106,-3.30315 -0.84545,-5.31159 -1.46802,-8.81727 0.25696,-14.44101 4.99724,-16.29187 2.34631,-0.91615 6.57927,-0.78256 10.13316,0.3198 4.07321,1.26342 12.41497,3.52304 13.00594,3.52304 0.50454,0 1.53429,-3.02817 6.43477,-18.92254 0.83774,-2.71717 2.50406,-6.59298 5.78036,-13.44496 2.53181,-5.29499 4.55919,-9.68157 4.50529,-9.74795 -0.0539,-0.0664 -9.14743,4.60349 -20.20783,10.37748 -11.0604,5.774 -20.27303,10.49672 -20.47252,10.4949 -0.1995,-0.003 -0.35826,-0.11533 -0.35279,-0.25227 0.009,-0.22315 14.81106,-9.53682 35.80243,-22.52727 4.16259,-2.57603 9.39644,-6.02427 11.63077,-7.66283 2.23431,-1.63853 4.84587,-3.47621 5.80344,-4.08375 1.85167,-1.17476 6.39178,-4.60031 14.65368,-11.05628 2.79291,-2.18243 5.09594,-3.98671 5.11782,-4.00954 0.0221,-0.0229 0.2694,-4.14809 0.54993,-9.16724 l 0.51012,-9.12574 3.64141,-7.47298 3.64139,-7.47297 1.10198,-6.77792 1.102,-6.77788 -1.86683,-3.20814 c -2.91617,-5.01152 -4.85054,-6.66919 -6.41439,-5.4969 -0.97582,0.73151 -1.69052,2.11525 -2.75302,5.33015 -2.47281,7.48247 -2.99192,8.46535 -4.47119,8.46535 -0.80259,0 -1.02121,-0.17093 -1.3381,-1.04619 -0.81129,-2.24079 -4.01033,-6.91917 -9.247,-13.52314 l -2.47104,-3.1162 -0.37503,1.05152 c -0.88692,2.48669 -0.74007,8.52756 0.39218,16.13236 0.24436,1.64124 0.46749,3.00765 0.49587,3.03644 0.0284,0.0288 1.61261,-0.22524 3.52054,-0.5646 3.03616,-0.54001 4.05239,-0.59641 3.61609,-0.20064 -0.22116,0.20058 -6.77925,4.43597 -7.7506,5.00554 -0.52564,0.30821 -8.29499,3.26036 -17.26523,6.56031 l -16.30951,5.99991 -9.52883,2.09151 c -5.24085,1.15031 -9.60257,2.17585 -9.69271,2.27896 -0.0901,0.1031 -0.72556,3.0684 -1.41209,6.58956 -1.09491,5.61574 -4.73776,19.60561 -7.84403,30.12398 -0.56617,1.91714 -1.08834,3.8592 -1.16038,4.31566 -0.0721,0.45647 -2.20462,8.37405 -4.73905,17.59463 -2.53445,9.2206 -5.00901,18.25096 -5.49906,20.06752 l -0.89097,3.30278 0.6933,0.8469 c 1.01249,1.23676 2.70422,4.39231 3.65622,6.81981 1.81664,4.63224 3.84936,13.20836 4.64302,19.58907 0.40749,3.27612 0.55764,4.14968 0.71326,4.14968 0.0667,0 1.66951,-1.15775 3.56201,-2.5728 z M 169.4684,580.07448 c 0.18924,-0.86729 2.62222,-6.72069 5.4066,-13.00758 3.15937,-7.1336 4.9458,-11.51324 4.75204,-11.65024 -0.69813,-0.49365 -7.28995,-2.05867 -7.50229,-1.78121 -0.12461,0.16283 -1.25956,3.20912 -2.52211,6.76955 l -2.29554,6.4735 0.0145,3.48573 c 0.0141,3.41505 1.12699,11.28712 1.59566,11.28712 0.11393,0 0.36198,-0.70959 0.55123,-1.57687 z m 21.78326,-21.86768 c 5.61493,-23.61941 5.02487,-21.83007 14.7223,-44.64443 5.49835,-12.93552 5.77995,-13.51643 6.98166,-14.40211 1.17125,-0.86323 1.24237,-1.0005 1.10002,-2.12357 -0.0837,-0.66037 -0.22724,-3.81498 -0.31894,-7.01024 -0.13774,-4.79845 -0.39997,-7.36953 -1.50669,-14.77285 -0.73697,-4.92982 -1.44235,-9.09564 -1.56753,-9.25737 -0.16254,-0.21 -42.30433,14.10213 -42.83704,14.54824 -0.1774,0.14856 6.43843,28.79113 8.93076,38.66478 1.58577,6.28221 2.8832,11.71211 2.8832,12.0665 0,0.35438 -1.38423,4.67304 -3.07609,9.59701 -1.69184,4.92401 -3.03026,8.9978 -2.97426,9.05291 0.056,0.0551 1.4979,0.77277 3.2042,1.59487 2.99071,1.4409 3.15437,1.4813 4.54623,1.12267 0.79411,-0.20462 1.51732,-0.4561 1.60713,-0.55882 0.0898,-0.10278 -0.15993,-2.25705 -0.55496,-4.78733 -0.66562,-4.26341 -0.71805,-5.55546 -0.18544,-4.56953 0.11763,0.21774 1.5696,6.29992 3.22658,13.51594 1.65699,7.216 3.06029,13.06558 3.11843,12.99908 0.0582,-0.0665 1.27334,-5.03263 2.70044,-11.03575 z m 188.19913,2.48124 2.0888,-3.20268 -0.35566,-1.94292 c -0.65126,-3.55753 -2.81589,-11.86443 -5.64079,-21.64675 l -2.79427,-9.67625 -3.29517,5.98932 c -2.39174,4.34726 -3.2512,6.18172 -3.13478,6.691 0.0882,0.38592 2.4198,6.92727 5.18127,14.53639 4.66751,12.86098 5.0505,13.78616 5.44135,13.14466 0.23123,-0.37955 1.36041,-2.13128 2.50925,-3.89277 z m 142.88173,-3.03248 c 5.50601,-3.5665 10.54558,-6.83446 11.19905,-7.26214 l 1.18811,-0.77759 -1.44384,-4.31566 c -0.79414,-2.37362 -3.09788,-9.49592 -5.11945,-15.8273 l -3.67555,-11.51167 -5.00224,11.51167 -5.00228,11.51164 -2.02041,11.92962 c -1.11124,6.56131 -2.02043,12.06352 -2.02043,12.22715 0,0.16363 0.42437,0.005 0.94306,-0.35186 0.51868,-0.35714 5.44797,-3.56736 10.95398,-7.13386 z M 170.339,551.3587 c 1.96276,-5.29423 3.55015,-10.22298 4.63659,-14.3963 l 1.65204,-6.34595 -1.40729,-6.93302 c -3.586,-17.66641 -7.05573,-32.43478 -7.57391,-32.23716 -0.20641,0.0787 -6.19412,10.97703 -11.44019,20.82246 -1.12051,2.10289 -2.72027,6.45849 -6.2794,17.09668 -2.62671,7.85118 -4.85623,14.51145 -4.95448,14.8006 -0.15434,0.45424 0.61383,0.38386 5.64961,-0.51768 l 5.82824,-1.0434 5.23798,8.40208 c 2.88089,4.62115 5.33435,8.40207 5.45213,8.40207 0.11778,0 1.55719,-3.62267 3.19868,-8.05038 z m 53.20258,-3.48573 c 1.20977,-3.97124 5.47555,-17.97641 9.47953,-31.12258 l 7.27995,-23.90216 -0.0328,-5.95913 -0.0328,-5.95917 26.06796,-8.09606 c 14.33737,-4.45284 26.09082,-8.12148 26.11877,-8.1526 0.10786,-0.11996 -1.58552,-15.52826 -1.72403,-15.68671 -0.0806,-0.0922 -3.26269,0.49634 -7.07131,1.30788 -3.80862,0.81155 -6.9719,1.42523 -7.02951,1.36379 -0.0576,-0.0615 1.54197,-3.77093 3.55461,-8.24319 2.01265,-4.47225 3.65935,-8.19953 3.65935,-8.28285 0,-0.0834 -1.53428,0.90738 -3.40953,2.20159 -17.15779,11.84138 -40.56817,21.14396 -61.73254,24.53063 -3.55261,0.56848 -4.78818,0.88434 -4.78869,1.22423 -2.9e-4,0.25193 0.91921,8.28052 2.04354,17.84132 l 2.04423,17.38327 -0.60514,5.88063 c -0.33282,3.23436 -0.66513,5.94928 -0.73845,6.03316 -0.27197,0.31113 -0.4945,-0.31288 -1.10906,-3.1101 l -0.62989,-2.86693 -8.53441,19.78135 c -5.03304,11.66574 -8.42392,19.89432 -8.26507,20.05666 0.14814,0.15141 3.30469,2.38537 7.01456,4.96434 l 6.74519,4.68901 3.99117,0.62899 c 2.19514,0.34592 4.33177,0.64835 4.74805,0.67201 0.73109,0.0416 0.83186,-0.20306 2.95646,-7.17738 z m 169.95459,-1.85543 c 3.43128,-2.90604 6.35009,-5.39957 6.48623,-5.54115 0.31095,-0.32341 -3.77455,-5.24905 -5.9059,-7.12039 -2.66064,-2.33603 -6.88357,-5.04225 -10.58535,-6.78356 -3.25692,-1.53206 -8.14098,-3.34856 -9.00323,-3.34856 -0.24246,0 0.12246,1.33563 1.04659,3.83045 1.63701,4.41924 4.3906,13.08205 6.77326,21.30867 l 1.65629,5.71862 1.64671,-1.39017 c 0.90568,-0.7646 4.4541,-3.76788 7.8854,-6.67391 z m -256.26456,-0.44392 c 3.43625,-0.83133 3.91646,-1.03131 4.24403,-1.76734 0.20316,-0.45646 2.87295,-7.7018 5.93286,-16.10074 l 5.56349,-15.27082 5.59754,-10.29121 5.59755,-10.2912 -1.4768,-0.21615 c -3.45045,-0.50502 -2.26276,-1.58504 -13.13988,11.94879 l -9.82971,12.23062 -1.23481,5.28102 c -0.67915,2.90458 -1.81115,7.59657 -2.51558,10.42665 -0.70441,2.83008 -1.74855,7.16234 -2.3203,9.62725 -0.57176,2.46491 -1.11299,4.75782 -1.20274,5.09537 -0.12664,0.47633 -0.043,0.57472 0.37327,0.43945 0.29505,-0.0959 2.28004,-0.59613 4.41108,-1.11169 z m 211.64056,-4.41696 2.14729,0.39632 3.6104,-3.00069 3.61041,-3.00067 1.82355,1.13956 c 1.00298,0.62677 1.93824,1.13957 2.07836,1.13957 0.14013,0 1.16373,-1.75531 2.27469,-3.9007 3.92788,-7.58518 4.46385,-8.57174 5.9065,-10.87215 4.05568,-6.46716 5.89665,-13.35029 5.86021,-21.91031 -0.0209,-4.86747 -0.42131,-7.79648 -1.69267,-12.37746 -0.77456,-2.79084 -1.37179,-3.75376 -9.72128,-15.67436 -4.77077,-6.81122 -6.39305,-9.43402 -9.97956,-16.13442 l -4.28272,-8.00108 -8.13447,5.24128 -8.13445,5.24127 -6.87249,10.75136 c -6.69846,10.47904 -6.89194,10.82638 -7.64034,13.71492 -1.29124,4.98373 -1.70108,7.74483 -1.87501,12.63175 -0.26444,7.43135 0.67703,12.70523 3.27366,18.33816 0.86233,1.87068 1.27978,3.18752 1.27978,4.0371 0,3.0376 1.663,6.90508 4.14011,9.62822 1.29147,1.41972 1.66333,1.60328 1.66333,0.82108 0,-0.73941 0.30244,-0.61459 1.36449,0.56309 1.54155,1.70937 1.17625,2.30716 -0.86282,1.41195 -0.28922,-0.12694 -0.47858,0.10863 -0.59937,0.74555 -0.0971,0.5121 -0.37435,1.65808 -0.61607,2.54661 l -0.43946,1.61549 2.1,-0.2113 2.10003,-0.21128 2.73664,2.48045 2.73667,2.48048 1.03557,-0.98912 c 0.56957,-0.544 1.45866,-1.37501 1.97575,-1.84667 l 0.94012,-0.85759 2.39686,2.50189 2.39682,2.50186 0.62611,-0.66823 c 0.58687,-0.62637 0.76056,-0.6434 2.77336,-0.27193 z m 66.74694,-7.9299 c 10.50462,-4.85194 19.25917,-8.52344 24.30458,-10.1929 0.68436,-0.22647 0.69257,-0.25538 0.14508,-0.51097 -0.3192,-0.14903 -3.83506,-1.02743 -7.81306,-1.95202 l -7.23271,-1.68107 -14.91388,-7.45014 -14.91389,-7.4501 -7.74112,-6.58182 c -4.25761,-3.62001 -7.8717,-6.67285 -8.03129,-6.7841 -0.1896,-0.13212 -0.25483,1.28683 -0.1882,4.0939 0.15814,6.66519 -0.83024,14.47402 -2.8219,22.29453 -0.74185,2.91302 -0.77908,3.27649 -0.35958,3.51043 0.25738,0.14352 3.82766,1.89313 7.93397,3.88799 l 7.46598,3.62702 5.42813,5.56057 c 2.98547,3.05831 5.5332,5.56057 5.6616,5.56057 0.12841,0 6.01275,-2.66934 13.07629,-5.93189 z m -221.61619,-70.7705 c 6.64,-0.46018 11.16195,-1.16225 13.78317,-2.13998 2.83832,-1.0587 13.85954,-3.15522 16.58805,-3.15548 1.71666,-1.6e-4 3.60223,-0.45039 9.75392,-2.32906 6.82122,-2.08314 8.71955,-2.83171 17.99067,-7.09403 12.44784,-5.72277 23.86031,-12.06653 26.795,-14.89429 1.01784,-0.98075 3.44544,-3.24223 5.39467,-5.02546 l 3.54406,-3.24223 1.67904,1.02003 c 2.80456,1.70382 6.64902,2.31273 17.03097,2.69742 l 8.96813,0.33231 6.70115,-2.85697 c 3.68561,-1.57134 8.2679,-3.76386 10.1828,-4.87229 3.25535,-1.88428 3.74998,-2.30875 7.60906,-6.52937 4.02652,-4.40374 4.20282,-4.65604 7.21351,-10.32268 1.69733,-3.19475 4.57363,-8.82091 6.39173,-12.5026 l 3.30564,-6.69397 0,-5.66604 0,-5.66604 -1.16736,-2.89079 c -0.64206,-1.58993 -1.21725,-2.94784 -1.27821,-3.01755 -0.0609,-0.0698 -1.54049,1.1496 -3.28788,2.7096 l -3.17707,2.83639 -0.18794,2.31376 c -0.30062,3.70022 -1.54023,10.87419 -2.62199,15.17392 -3.59129,14.27453 -9.89124,22.87611 -18.24274,24.90753 -1.52172,0.37015 -3.10063,0.46649 -5.72797,0.34953 -4.33227,-0.19283 -7.38098,-1.10458 -11.67979,-3.49286 -2.82558,-1.56981 -2.8304,-1.5711 -3.4075,-0.91087 -0.57708,0.66022 -0.57972,0.6591 -1.88571,-0.8073 -0.7193,-0.80762 -1.29622,-1.62405 -1.28203,-1.81427 0.0142,-0.19022 3.16844,-3.48301 7.00945,-7.31731 l 6.98363,-6.97146 2.20989,-8.87098 c 1.21542,-4.87903 2.33757,-9.00119 2.49368,-9.16033 0.15611,-0.15915 3.2871,-1.75326 6.95777,-3.54244 3.67068,-1.78917 7.20227,-3.51212 7.848,-3.82879 l 1.17403,-0.57581 -0.33814,-3.27754 c -0.18599,-1.80269 -0.35522,-3.32151 -0.37609,-3.37519 -0.0209,-0.0537 -5.97917,3.35639 -13.24073,7.57791 l -13.20282,7.67548 0,-2.47659 c 0,-2.13998 0.31385,-3.66633 2.30893,-11.22963 1.26994,-4.81416 4.07059,-15.99834 6.2237,-24.85376 2.15313,-8.85541 4.32763,-17.59463 4.83226,-19.42049 0.92576,-3.3496 1.41017,-7.32963 2.77802,-22.82359 0.47657,-5.39821 0.47469,-5.61559 -0.0639,-7.42866 -0.30514,-1.02725 -0.68538,-1.9197 -0.84498,-1.98322 -0.1596,-0.0635 -4.86039,-0.6479 -10.44619,-1.2986 -5.58581,-0.65071 -12.2974,-1.55337 -14.91461,-2.0059 -2.61723,-0.45253 -4.79723,-0.77861 -4.84443,-0.72461 -0.0689,0.0788 5.22789,5.18064 7.03416,6.77528 0.38682,0.34148 1.72402,5.34174 1.49601,5.59402 -0.0483,0.0535 -10.42703,-3.60611 -23.06382,-8.13235 -22.72761,-8.14055 -23.04914,-8.24419 -29.74263,-9.58616 -6.20068,-1.24319 -7.36127,-1.37575 -13.87586,-1.58493 -3.91007,-0.12554 -7.42327,-0.32379 -7.80711,-0.44053 -0.48221,-0.14668 0.61466,-0.51223 3.54883,-1.18275 2.33571,-0.53374 4.15141,-1.06644 4.03489,-1.18376 -0.11653,-0.1173 -4.58621,-1.45536 -9.93263,-2.97342 l -9.72076,-2.76014 -5.54113,-3.05049 -5.54114,-3.05049 -14.62582,6.37609 c -11.02218,4.80509 -15.93356,7.12737 -19.93345,9.42528 -2.91921,1.67705 -5.35525,3.23205 -5.41342,3.45554 -1.2366,4.75039 -5.04867,17.4226 -6.58078,21.876 -2.34365,6.81235 -5.92784,15.23403 -8.09308,19.01616 -2.85858,4.99316 -6.42562,8.46702 -8.70459,8.47715 -0.40136,0.002 -1.25011,-0.31648 -1.88613,-0.70727 -0.63601,-0.39079 -3.31091,-1.73894 -5.94422,-2.99589 -2.63331,-1.25695 -6.6954,-3.29009 -9.02687,-4.51808 -4.13327,-2.177 -4.26466,-2.27826 -5.26693,-4.05857 -5.22761,-9.28573 -7.9278,-22.82754 -6.91729,-34.69131 0.76773,-9.0137 3.04695,-17.25546 7.41141,-26.80012 0.94288,-2.06198 1.43093,-3.63863 1.72362,-5.56818 0.23493,-1.54881 0.6276,-2.96896 0.92479,-3.34467 1.01103,-1.27812 6.52635,-5.32232 9.46798,-6.94255 4.49294,-2.47469 7.52868,-3.3895 11.40405,-3.43654 3.85175,-0.0468 6.29959,0.70439 9.06079,2.78047 5.70934,4.29267 9.31426,12.73469 11.67793,27.34732 0.47518,2.9376 1.03161,5.9947 1.23652,6.79357 l 0.37256,1.45246 1.37955,-5.66044 c 1.25026,-5.12998 1.83094,-6.75936 6.19636,-17.38723 2.64923,-6.44974 5.25958,-12.82946 5.80077,-14.17717 l 0.98396,-2.45037 -2.9751,0.17693 c -2.59465,0.15431 -6.90601,1.15524 -7.93476,1.84214 -0.24115,0.16102 0.10878,1.8874 1.21863,6.01224 0.8563,3.18249 1.49339,5.85903 1.41573,5.94787 -0.17369,0.19873 0.33312,0.91385 -4.19889,-5.92468 -2.11756,-3.19525 -3.88138,-5.85172 -3.91961,-5.90326 -0.0383,-0.0515 -1.27979,0.21471 -2.75904,0.59167 -1.47923,0.37697 -2.74068,0.62686 -2.80321,0.55533 -0.0625,-0.0715 0.41205,-0.8579 1.0546,-1.7475 l 1.16828,-1.61743 0,-3.04405 0,-3.04404 -6.29902,-8.08318 c -3.46446,-4.44575 -8.63016,-10.99626 -11.47933,-14.55668 l -5.1803,-6.4735 3.71722,-0.0954 3.71722,-0.0954 -2.17629,-1.63225 c -1.19696,-0.89774 -2.30687,-1.63872 -2.46646,-1.64663 -0.72908,-0.0361 -5.86437,2.82859 -11.86422,6.61837 l -6.5617,4.14468 0,2.35866 c 0,1.42167 -1.08738,9.86393 -2.73723,21.25135 -1.50546,10.39099 -3.21095,22.67936 -3.78996,27.30748 -0.97169,7.76691 -1.2957,9.44105 -4.20837,21.74432 -1.97003,8.32153 -3.92956,15.76167 -5.21561,19.80302 -4.77677,15.01096 -6.45676,20.47323 -6.58563,21.41235 -0.0751,0.54775 -0.922152,4.88002 -1.882187,9.62725 -2.378494,11.76126 -2.383028,11.64765 1.165437,29.21374 l 2.61537,12.94699 2.12173,4.33018 c 1.16792,2.38354 3.43883,6.26373 5.05159,8.63133 4.04734,5.94168 5.46498,8.18874 10.46257,16.58421 16.53333,27.77432 28.24384,46.00954 31.65903,49.29844 2.9303,2.82192 14.34988,9.17292 17.35278,9.65076 5.44944,0.86712 16.94043,1.15799 24.64735,0.62385 z m -29.78889,-27.25473 c -9.27188,-7.62143 -10.49464,-8.769 -11.83002,-11.10247 -3.36483,-5.87987 -8.37317,-21.33766 -13.75781,-42.4622 -2.51403,-9.86283 -2.43416,-9.32494 -1.44098,-9.70515 0.78705,-0.30129 0.85364,-0.23387 1.97519,2.00035 l 1.16069,2.31217 26.40565,11.53786 26.40565,11.53787 2.78083,3.34796 2.78084,3.34793 -0.2535,2.25138 c -0.23188,2.0593 -1.92488,9.26517 -2.98278,12.69559 -0.77553,2.51475 -3.58343,5.67524 -8.67271,9.76177 -2.57356,2.06651 -4.83573,3.85964 -5.02704,3.98476 -0.40677,0.26608 -13.0158,3.19715 -13.75354,3.19715 -0.27487,0 -1.98058,-1.21722 -3.79047,-2.70497 z m 14.26469,-4.27178 7.10921,-2.41737 3.16318,-3.57131 3.16318,-3.57128 -1.47745,-0.85653 c -7.52502,-4.36257 -18.64183,-6.48876 -28.93319,-5.5338 -3.68962,0.34239 -7.96791,0.97318 -8.22815,1.21319 -0.0569,0.0524 0.71904,2.13427 1.72416,4.62627 l 1.8275,4.53095 5.51876,4.575 5.51875,4.575 1.75242,-0.57637 c 0.96383,-0.317 4.95156,-1.66419 8.86163,-2.99375 z m 15.63915,-16.94659 1.8118,-6.66066 -0.72143,-1.05774 c -0.39678,-0.58175 -1.48319,-1.97786 -2.41423,-3.10246 l -1.69281,-2.0447 -24.32354,-10.35189 c -13.37795,-5.69355 -24.38577,-10.28074 -24.46181,-10.19373 -0.076,0.087 1.11379,5.10786 2.6441,11.15743 2.459,9.72097 3.07084,11.72197 5.2647,17.21803 1.36529,3.42037 2.52864,6.27313 2.58521,6.33948 0.0565,0.0664 1.83996,-0.11602 3.96307,-0.40534 8.59938,-1.17179 15.45447,-0.98181 22.44816,0.62219 3.82707,0.87771 8.61371,2.66347 11.13828,4.15532 0.88679,0.52406 1.68757,0.95998 1.77952,0.96877 0.092,0.008 0.9825,-2.98132 1.97898,-6.6447 z m 64.73849,-11.01257 c -7.26156,-0.73092 -13.26811,-1.39938 -13.34792,-1.48546 -0.0798,-0.0861 0.86506,-2.36745 2.09965,-5.06971 l 2.24473,-4.91319 -0.93895,-0.18999 c -0.51643,-0.10448 -4.52984,-0.73672 -8.91869,-1.40491 -4.38885,-0.66824 -8.03413,-1.27123 -8.10064,-1.33999 -0.0665,-0.0687 -0.0463,-0.21033 0.0448,-0.31463 0.19485,-0.2229 22.29471,-1.5575 22.47,-1.35695 0.0655,0.0749 -0.41432,2.56354 -1.06628,5.53026 -0.65194,2.96672 -1.14681,5.4381 -1.09969,5.49201 0.091,0.10416 19.38932,1.8175 20.42865,1.81368 0.52706,-0.003 0.65437,0.28821 0.90937,2.07258 0.16308,1.14116 0.23867,2.18688 0.16799,2.32382 -0.1715,0.33224 0.17458,0.35913 -14.89304,-1.15752 z m -12.04214,-27.0361 c -7.29543,-3.898 -8.22407,-4.30401 -13.493,-5.89941 l -5.65835,-1.71328 -0.78576,-1.80783 c -1.29218,-2.973 -3.37304,-10.65744 -4.29379,-15.85666 -3.2338,-18.2604 -0.69235,-35.11005 7.3054,-48.43422 4.07195,-6.78382 6.32142,-8.92534 12.65836,-12.05093 10.86598,-5.35944 20.99301,-5.29292 28.68003,0.1884 9.62437,6.86277 16.16972,23.52608 18.39145,46.82139 l 0.35109,3.68136 -2.0983,6.58709 -2.09829,6.58714 -6.11976,10.50357 -6.11976,10.50353 -9.15216,2.55133 c -5.03369,1.40325 -9.28275,2.54531 -9.44234,2.53797 -0.1596,-0.007 -3.81576,-1.8971 -8.12482,-4.19945 z m 18.5162,0.70615 7.77984,-2.20985 6.04469,-10.36554 6.04471,-10.3655 1.92184,-6.0562 c 1.05701,-3.3309 1.85739,-6.17546 1.77863,-6.32125 -0.0787,-0.14581 -0.6626,-0.3601 -1.29743,-0.47626 -1.30514,-0.23875 -1.20503,0.0722 -1.77681,-5.51959 -1.07668,-10.5297 -3.84845,-21.22321 -7.27207,-28.05575 -3.55108,-7.08689 -7.54805,-11.4816 -13.13411,-14.44108 -3.5106,-1.85991 -5.55731,-2.36597 -10.33559,-2.55555 -4.64886,-0.18445 -7.47214,0.22243 -12.02593,1.73312 -4.89427,1.62365 -6.81405,2.70928 -8.62175,4.8756 -3.90245,4.6766 -8.23883,13.17136 -10.10669,19.79853 -3.18404,11.29692 -3.37002,23.62414 -0.55568,36.83313 0.89868,4.21796 2.38645,9.41971 3.55888,12.44312 l 0.67333,1.73636 4.90631,1.45196 c 2.69846,0.79856 5.04332,1.51062 5.2108,1.58232 0.19703,0.0844 0.42973,-1.89255 0.65932,-5.6016 1.21642,-19.65072 5.1916,-35.0032 11.67013,-45.07098 1.61774,-2.51401 5.04911,-6.38307 7.0269,-7.92323 1.35546,-1.05553 4.99335,-3.11676 6.19527,-3.51024 1.29907,-0.42528 5.73903,3.82185 7.78803,7.44977 2.69642,4.77424 3.50679,8.72237 3.26684,15.91586 -0.29889,8.95954 -2.75162,17.78893 -8.23618,29.64864 -2.12629,4.59788 -7.22412,13.5341 -9.11994,15.98675 -1.13559,1.46912 -1.189,1.61005 -0.54152,1.42862 0.39509,-0.11072 4.21927,-1.19574 8.49818,-2.41116 z m -8.69381,-2.8259 c 3.20791,-4.52046 7.59667,-12.34061 9.75183,-17.37633 3.18315,-7.43775 4.64407,-13.83762 4.27978,-18.74844 -0.24994,-3.36941 -0.26495,-3.38827 -1.94066,-2.43949 -1.75644,0.99447 -4.94083,1.08685 -7.36231,0.21358 -1.8412,-0.66399 -1.98859,-0.92987 -2.68024,-4.835 -1.36115,-7.68529 0.72105,-13.70056 5.4979,-15.88292 l 1.49249,-0.68186 -2.32138,0.11997 c -1.90886,0.0986 -2.64514,0.30825 -4.14338,1.17947 -6.64818,3.86588 -12.08537,16.7539 -15.70459,37.22539 -0.98053,5.54618 -2.04617,13.62531 -2.1404,16.22739 l -0.0647,1.78649 6.38378,3.10127 c 3.51108,1.70569 6.51435,3.05858 6.67395,3.00643 0.1596,-0.0522 1.18467,-1.35532 2.27792,-2.89595 z m -4.31554,-19.64876 c -0.74952,-2.09532 -0.91706,-7.26705 -0.3125,-9.64625 0.81919,-3.22386 3.46985,-5.44204 4.82564,-4.0383 1.01504,1.0509 1.541,3.27128 1.36,5.74127 -0.31892,4.35218 -2.75305,9.35417 -4.55205,9.35417 -0.68785,0 -0.89586,-0.22215 -1.32109,-1.41089 z m -114.56034,-7.59065 c -1.05903,-0.99871 -1.15385,-1.34607 -0.4055,-1.48559 0.19488,-0.0363 1.44333,-0.77051 2.77433,-1.63149 1.41667,-0.91638 2.52724,-1.44272 2.67865,-1.2695 0.14225,0.16273 0.33669,0.7423 0.43207,1.28792 0.16218,0.92774 0.0432,1.09383 -1.8355,2.56245 -1.10491,0.86369 -2.13009,1.57037 -2.27817,1.57037 -0.14807,0 -0.76272,-0.46536 -1.36588,-1.03416 z m -31.02704,-14.81581 c -1.39645,-0.0609 -2.539,-0.15849 -2.539,-0.21696 0,-0.0584 0.45702,-1.23797 1.0156,-2.6211 0.55858,-1.38315 1.01561,-2.64892 1.01561,-2.81283 0,-0.16391 -1.10837,-0.95799 -2.46303,-1.76463 -1.35466,-0.80662 -2.46457,-1.57864 -2.46646,-1.71558 -0.004,-0.31686 -0.19895,-0.3288 4.05896,0.24898 1.99494,0.27071 3.77125,0.4935 3.94737,0.49508 0.23025,0.002 0.2196,0.72559 -0.0379,2.57569 -0.19696,1.41504 -0.33023,2.61009 -0.29612,2.65568 0.0341,0.0456 2.04247,0.18094 4.46305,0.3008 4.824,0.23889 4.7266,0.1845 4.21815,2.35511 -0.17198,0.73417 -0.24508,0.74577 -4.27608,0.67867 -2.2556,-0.0376 -5.24366,-0.11805 -6.64011,-0.17891 z m 233.49084,119.58576 c 5.35673,-5.1145 7.13429,-6.9938 7.13429,-7.54272 0,-0.40209 -0.27271,-2.96566 -0.606,-5.69679 -0.57196,-4.68687 -0.58806,-5.50316 -0.28712,-14.53645 l 0.31884,-9.57071 4.1319,-5.93365 c 2.27256,-3.2635 5.23241,-7.68607 6.57748,-9.82793 l 2.44551,-3.89429 3.01395,-10.83461 c 3.86974,-13.91089 8.30063,-25.69468 13.26527,-35.27851 l 3.20417,-6.18532 6.21589,-7.50562 c 4.62389,-5.58328 6.75959,-7.91024 8.3387,-9.08548 1.16754,-0.86892 2.12449,-1.6754 2.12656,-1.79215 0.003,-0.11677 -7.86354,-5.80905 -17.47912,-12.64951 -16.34974,-11.63112 -17.99687,-12.72026 -25.41341,-16.80396 l -7.93055,-4.36674 -7.0133,-0.28963 c -3.85732,-0.15928 -7.03465,-0.27017 -7.06074,-0.24641 -0.0261,0.0238 -0.52831,3.62853 -1.11611,8.01059 -2.56831,19.14699 -10.17807,56.63395 -13.74754,67.72275 -0.94039,2.92137 -1.67365,5.35696 -1.62949,5.41244 0.0442,0.0555 5.42523,-3.04436 11.95791,-6.88846 6.53264,-3.84413 12.00052,-6.98933 12.1508,-6.98933 0.15027,0 0.85003,3.84675 1.555,8.54834 0.70495,4.70158 1.35633,8.87464 1.44747,9.27347 0.14863,0.65017 0.55396,0.33098 3.92179,-3.08819 3.19502,-3.24375 8.99321,-8.09467 9.67444,-8.0939 0.11416,1.4e-4 1.16113,2.08516 2.32658,4.6334 l 2.11895,4.63313 -0.34197,7.01936 -0.34199,7.0194 -2.32138,4.69697 c -5.05677,10.23165 -6.56276,12.93203 -11.04345,19.802 l -4.65526,7.13766 -6.04417,4.92779 -6.04416,4.92782 -5.29378,1.82111 c -3.8702,1.33135 -5.72295,1.81099 -6.88974,1.7836 -0.87776,-0.0206 -6.74359,-0.48077 -13.03519,-1.02255 -6.29158,-0.54178 -11.78032,-0.98507 -12.1972,-0.98507 -0.69314,0 -1.10026,0.72646 -4.76054,8.49473 -2.20141,4.67208 -3.93071,8.57692 -3.8429,8.67738 0.0879,0.10045 2.67693,-0.24889 5.75359,-0.77632 l 5.59391,-0.95898 1.1607,-3.56441 c 0.63837,-1.9604 1.22597,-3.56033 1.30577,-3.55534 0.0798,0.005 3.01605,4.40994 6.52498,9.78889 3.50893,5.37894 6.45514,9.77989 6.54712,9.77989 0.092,0 0.51721,-0.41792 0.94498,-0.92872 0.71202,-0.85026 0.78808,-1.20275 0.90037,-4.17219 0.0997,-2.63651 0.26423,-3.57457 0.87922,-5.01265 2.25531,-5.27371 7.61222,-3.16265 16.10322,6.34595 2.165,2.42445 4.023,4.4134 4.12891,4.41984 0.10589,0.006 3.40299,-3.05353 7.32684,-6.79992 z m 228.31014,-5.4653 15.82412,-8.9572 27.23888,-8.2952 c 14.98141,-4.56239 28.15295,-8.57772 29.27011,-8.92297 l 2.03121,-0.6277 -1.30578,-0.19311 c -0.71817,-0.1062 -3.52558,-0.3592 -6.2387,-0.56216 -13.18193,-0.98626 -30.97663,-4.49301 -48.94646,-9.64578 -6.71635,-1.92588 -18.56306,-5.78253 -22.82575,-7.43085 -2.51448,-0.97229 -2.97008,-1.06823 -2.80805,-0.59114 1.42799,4.20498 0.62712,14.75244 -2.21096,29.11716 -1.22886,6.2199 -3.67872,16.70684 -5.13834,21.99539 -0.46617,1.68892 -0.8176,3.07076 -0.78098,3.07076 0.0366,0 7.18742,-4.03073 15.8907,-8.9572 z m -210.44924,-4.67506 c 6.22859,-1.15613 10.39733,-7.62525 12.04765,-18.69573 0.77609,-5.20619 0.49662,-8.74789 -0.97228,-12.32112 -1.55361,-3.77936 -5.12374,-6.68428 -8.64103,-7.03099 -1.55303,-0.1531 -1.81883,-0.0757 -3.09086,0.89965 -2.00102,1.53439 -4.55782,5.47802 -6.7722,10.44558 l -1.92381,4.31566 0.1602,4.14968 c 0.0882,2.28232 0.49561,6.33778 0.90557,9.01211 1.22206,7.97242 1.29028,8.24866 2.12618,8.61227 0.61119,0.26585 2.82627,0.77878 3.99403,0.92485 0.1596,0.0199 1.13455,-0.1204 2.16655,-0.31196 z m 322.68101,-25.22533 c 14.74342,-0.33668 16.83496,-0.46124 30.88523,-1.83914 8.28897,-0.81287 15.12426,-1.53903 15.18949,-1.61368 0.0652,-0.0747 -0.48017,-0.82078 -1.21205,-1.65809 -4.27096,-4.88623 -18.82851,-13.41694 -39.92976,-23.39884 -11.19393,-5.29526 -9.88166,-4.82741 -11.66534,-4.15894 -2.95741,1.10833 -4.97335,2.51478 -7.06462,4.92865 -3.47896,4.0157 -5.21592,9.27437 -5.55287,16.81135 -0.15525,3.47259 0.21122,9.39962 0.66475,10.75181 0.21504,0.64112 -1.09952,0.62867 18.68517,0.17688 z M 328.105,413.60601 c 6.59123,-5.17156 12.1397,-14.09483 15.85309,-25.49566 1.12654,-3.4586 3.214,-12.6194 3.06134,-13.4346 -0.0682,-0.36385 -1.13022,0.41045 -3.67059,2.67595 -1.96609,1.75335 -3.64729,3.10485 -3.73602,3.00333 -0.0887,-0.10151 -0.47205,-1.93434 -0.85185,-4.07299 -0.37979,-2.13861 -0.73107,-3.93479 -0.7806,-3.99149 -0.11232,-0.12847 -13.90638,6.16512 -14.17876,6.46911 -0.10913,0.12177 -1.02318,4.30688 -2.0312,9.3002 l -1.83284,9.07879 -5.48263,5.69407 c -3.01547,3.13174 -5.88536,6.08581 -6.37754,6.56462 l -0.8949,0.87057 2.02496,1.16519 c 4.83125,2.78002 8.8168,3.9003 13.52936,3.80297 l 3.37961,-0.0698 1.98857,-1.56025 z m -231.519005,-85.16804 1.518986,-7.22044 -0.600201,-10.94072 -0.60019,-10.94074 0.617836,-9.14371 c 1.109454,-16.41921 0.476668,-13.42563 5.135984,-24.29735 l 4.06837,-9.49283 3.23162,-3.57193 c 1.77739,-1.96457 3.23162,-3.75375 3.23162,-3.97597 0,-0.22222 0.7642,-1.23796 1.6982,-2.2572 1.5563,-1.69831 1.71288,-2.00075 1.87367,-3.61926 0.0966,-0.97134 0.99054,-8.51153 1.98678,-16.75597 l 1.81134,-14.98988 -1.06768,-1.49067 c -0.80048,-1.11759 -0.97835,-1.56937 -0.71074,-1.80517 0.19633,-0.17299 4.65404,-3.05632 9.90602,-6.40741 l 9.54907,-6.0929 -1.3671,-1.41602 c -1.60791,-1.66545 -7.98927,-6.54047 -13.52354,-10.33128 l -3.91732,-2.68323 -13.98738,2.20507 c -7.693051,1.2128 -13.927557,2.27351 -13.854462,2.35714 0.07306,0.0836 4.065535,0.56793 8.872072,1.07621 4.80653,0.50829 8.7998,0.99354 8.87391,1.07833 0.0742,0.0848 0.041,1.66762 -0.0736,3.51737 l -0.20842,3.36318 -1.92024,1.00183 c -1.05615,0.55099 -3.16074,1.60435 -4.67689,2.34078 -1.62306,0.78837 -8.424484,5.24547 -16.5398,10.83887 -10.626324,7.32407 -15.112371,10.62654 -19.586612,14.41895 -3.191892,2.70549 -5.839762,5.03849 -5.884165,5.18445 -0.04436,0.14596 0.673775,0.45165 1.595941,0.67932 4.10846,1.01428 21.685837,5.71223 21.781406,5.82156 0.05838,0.0668 -0.330435,0.80978 -0.864064,1.65104 -0.818215,1.2899 -1.877526,2.12641 -6.760874,5.33887 -5.549696,3.65079 -6.282269,4.26183 -17.605308,14.68437 -6.498055,5.98129 -11.822496,10.97746 -11.832097,11.1026 -0.0162,0.21078 23.448593,25.4382 29.581432,31.80355 1.492936,1.54954 4.2524,4.83608 6.132143,7.30343 l 3.417724,4.48609 -0.173459,1.99186 c -0.09535,1.09551 -0.189582,2.01874 -0.209283,2.05161 -0.01968,0.0329 -2.678649,0.33165 -5.908791,0.66395 l -5.872977,0.60417 9.039428,8.63134 c 8.250635,7.87814 11.188884,10.43592 12.006175,10.45152 0.163097,0.003 0.980084,-3.24353 1.81552,-7.21478 z m 48.690885,-0.0604 c 5.43895,-3.56906 12.08214,-18.08432 18.30041,-39.98609 1.19846,-4.22117 2.36472,-8.16544 2.5917,-8.76504 0.52501,-1.38696 0.51965,-2.58531 -0.0262,-5.84889 -0.54715,-3.27128 -1.71807,-6.31056 -2.80678,-7.28534 -0.6866,-0.61476 -0.97713,-1.37705 -1.66977,-4.38106 -2.66966,-11.57839 -6.3647,-18.31556 -11.62437,-21.19471 -2.57298,-1.40845 -6.21937,-1.61892 -9.3588,-0.54018 -6.36112,2.18577 -15.77603,10.41001 -18.5833,16.23316 -7.94372,16.47769 -9.75378,33.30457 -5.27882,49.07349 1.06976,3.7696 4.01938,10.91838 5.13983,12.45698 0.40418,0.55502 2.34072,1.80482 4.99798,3.2256 2.38599,1.27573 4.37795,2.27397 4.42659,2.21832 0.0486,-0.0557 -0.0302,-2.40351 -0.17536,-5.21745 -1.25938,-24.42334 5.69345,-44.9833 18.83188,-55.68717 1.03737,-0.84514 1.92965,-1.65146 1.98285,-1.79181 0.24167,-0.63765 0.63414,-0.0453 1.86564,2.81556 4.79932,11.14936 4.94231,23.83843 0.43673,38.758 -2.12881,7.04923 -6.86082,17.42656 -10.79376,23.67072 -0.89735,1.42471 -1.55512,2.73185 -1.46171,2.90478 0.32204,0.59613 1.73555,0.30557 3.20527,-0.65887 z m -0.55078,-10.81181 c 5.81523,-12.0074 8.93734,-22.00209 9.28126,-29.71169 l 0.17031,-3.81771 -0.97976,1.03909 c -1.40344,1.48842 -2.20637,1.87755 -3.87411,1.87755 -1.7842,0 -3.00042,-0.67207 -4.18065,-2.31016 -1.71048,-2.37405 -2.2466,-6.17854 -1.35063,-9.58453 0.23354,-0.88778 0.37873,-1.66665 0.32263,-1.73082 -0.20555,-0.23518 -2.16659,2.80163 -3.16375,4.89932 -3.47924,7.31912 -5.63852,18.26857 -6.57943,33.36342 -0.1821,2.92138 -0.2891,6.86596 -0.23778,8.76574 l 0.0933,3.45416 2.90172,1.41757 2.90171,1.41755 1.14177,-2.04994 c 0.62798,-1.12746 2.22701,-4.29075 3.55341,-7.02955 z m -3.80256,-9.75233 c -0.38427,-0.71134 -1.02951,-4.68933 -1.03341,-6.37116 -0.008,-3.10939 0.71378,-5.20851 2.48713,-7.24103 0.85714,-0.98241 1.48826,-1.91608 1.4025,-2.07483 -0.27175,-0.50304 0.68767,-0.3112 1.16293,0.23253 0.67477,0.77197 0.83493,1.88894 0.67807,4.72899 -0.24733,4.4785 -2.60366,11.01657 -3.97037,11.01657 -0.31328,0 -0.64037,-0.13098 -0.72685,-0.29107 z m 266.06562,8.65912 8.41499,-5.2143 7.76874,-11.09828 c 4.27284,-6.10406 7.73314,-11.21473 7.68956,-11.35704 -0.15393,-0.50297 -21.67602,-16.41137 -30.69234,-22.68675 -13.90311,-9.67662 -17.98857,-12.57324 -18.52039,-13.13112 -0.26722,-0.28034 -9.23456,-6.55039 -19.92739,-13.93349 -10.69284,-7.38309 -24.27288,-17.07361 -30.17789,-21.53447 -9.15336,-6.91481 -11.01446,-8.19306 -12.62248,-8.66943 -1.03737,-0.30731 -5.80344,-2.54531 -10.59128,-4.97334 -9.85319,-4.9968 -34.02672,-18.09115 -36.35778,-19.69433 -1.47414,-1.01384 -1.53052,-1.10492 -1.37562,-2.22241 0.0888,-0.64087 0.28977,-2.8832 0.44652,-4.98292 1.77766,-23.81312 -5.11353,-41.56615 -19.29665,-49.71196 -2.37137,-1.36195 -6.06464,-2.83389 -8.13176,-3.24089 -0.63456,-0.12494 -2.52481,-0.60963 -4.20056,-1.07708 -6.31141,-1.76062 -12.08102,-1.00155 -18.15077,2.38797 -3.99394,2.23035 -7.3044,5.0074 -10.87109,9.11948 -4.08941,4.71471 -9.74623,13.59161 -9.10716,14.29129 0.14387,0.15752 5.87641,2.60174 12.73897,5.43162 6.86258,2.82988 18.09223,7.47684 24.9548,10.32658 6.86257,2.84975 12.64519,5.25071 12.85025,5.33547 0.38934,0.16093 0.0235,1.25326 -0.85854,2.56359 -0.35558,0.52822 -2.3589,-0.17995 -26.35523,-9.31651 -25.44786,-9.68922 -26.33178,-9.99795 -43.93226,-15.34452 -17.79333,-5.40516 -17.96757,-5.46627 -18.56834,-6.51282 -0.65059,-1.13336 -0.99217,-1.2547 -8.73662,-3.10361 -1.59595,-0.38101 -5.64385,-1.35486 -8.99533,-2.16411 -3.35148,-0.80926 -6.28947,-1.46918 -6.52887,-1.46652 -0.44564,0.005 -7.96092,16.01518 -7.58978,16.16893 0.1047,0.0434 7.63331,0.52588 16.7302,1.07222 l 16.5398,0.99336 18.39807,2.6727 18.39806,2.6727 12.21508,6.17597 c 6.71829,3.39679 13.22155,6.67036 14.45167,7.27463 2.50986,1.2329 7.57779,4.60002 24.45923,16.25069 19.31864,13.33268 18.89184,13.00436 36.12641,27.7907 l 13.493,11.57627 12.98996,14.45516 c 12.11752,13.48435 13.72531,15.4136 23.93919,28.726 l 10.94923,14.27082 0.0911,1.71363 0.0912,1.71362 6.29261,3.96836 c 11.25539,7.09804 20.2576,13.06538 23.82019,15.78983 4.1613,3.18229 18.97214,13.92973 19.1792,13.91731 0.0798,-0.005 3.93184,-2.35513 8.56008,-5.223 z M 107.09059,288.51807 c 4.23781,-16.8511 7.58776,-31.81004 7.7671,-34.68325 l 0.16527,-2.64773 -1.42427,1.37603 c -4.94246,4.77505 -5.0121,4.88503 -8.7881,13.87865 l -3.4845,8.29937 -1.02043,8.9633 c -1.454983,12.78031 -1.617591,16.9551 -1.021456,26.22597 0.270038,4.19948 0.514211,7.7101 0.54261,7.80139 0.02838,0.0913 1.139006,-4.31566 2.468016,-9.79323 1.32901,-5.47758 3.48711,-14.2168 4.79576,-19.4205 z m 237.94374,-1.82224 1.27841,-1.49028 -0.73758,-0.91654 c -0.40566,-0.5041 -4.92149,-6.21983 -10.03514,-12.70163 -5.11364,-6.48179 -10.71411,-13.27897 -12.44547,-15.10483 -1.73137,-1.82586 -7.58959,-8.10597 -13.0183,-13.95581 -9.47822,-10.21346 -22.04276,-22.73657 -28.15122,-28.05836 -5.89576,-5.13648 -23.06326,-19.1941 -27.42125,-22.4539 -5.92286,-4.43034 -32.21052,-21.17983 -38.30271,-24.40501 -5.93245,-3.14062 -15.02537,-6.23324 -27.13107,-9.22763 l -8.12482,-2.0097 -11.60688,-0.98145 c -27.65746,-2.33867 -29.51066,-2.39204 -73.26843,-2.10961 l -36.706759,0.2369 10.301107,2.07489 c 10.458464,2.10659 19.14979,4.45712 22.62093,6.11772 1.044231,0.49956 7.581676,4.11124 14.527662,8.02595 l 12.62905,7.11764 10.43962,7.90758 c 5.74179,4.34916 11.81656,8.84527 13.49949,9.99133 1.68292,1.14608 4.10046,3.03011 5.37229,4.18676 1.27184,1.15665 2.50426,2.15195 2.73869,2.21179 0.5205,0.13285 3.30601,2.73377 4.49844,4.20034 0.47879,0.58887 4.72254,4.77097 9.43058,9.29357 4.70804,4.5226 10.59505,10.50015 13.08223,13.28342 4.0698,4.55428 16.1308,19.52088 17.49599,21.7109 0.29998,0.48122 1.12035,1.37989 1.82304,1.99705 0.7027,0.61716 2.90731,2.63946 4.89913,4.49399 3.43729,3.20038 3.97935,3.56778 10.65662,7.22285 l 7.03513,3.85095 10.1106,2.3575 c 14.98658,3.49445 36.06079,7.89901 41.44795,8.66276 2.60165,0.36883 8.6476,0.97781 13.43543,1.35329 6.54843,0.51354 12.12,1.22131 22.48833,2.85675 7.58075,1.19574 15.61126,2.3032 17.84558,2.46102 2.85677,0.20181 5.91391,0.72134 10.30111,1.75059 3.43128,0.80499 6.57059,1.48069 6.97626,1.50154 0.5161,0.0265 1.1214,-0.40951 2.01596,-1.45233 z m 88.68896,-3.74608 c 0.81904,-1.77701 3.1873,-7.86154 5.26281,-13.52117 9.25817,-25.24569 10.53563,-29.01744 13.59369,-40.13579 l 3.00432,-10.92305 1.22067,-9.78872 1.2207,-9.78873 -0.69114,-10.65981 -0.69116,-10.6598 -4.41107,-10.12522 -4.41108,-10.12522 -7.26666,-10.98816 c -6.37931,-9.64637 -8.1814,-12.10702 -14.7576,-20.15072 -6.26135,-7.65862 -9.32461,-11.0476 -18.66252,-20.64701 L 395.96263,93.951887 383.0867,83.3249 c -11.24158,-9.278121 -13.41462,-10.936333 -17.12014,-13.064131 -2.33432,-1.34043 -6.13761,-3.582155 -8.45172,-4.981617 -5.5967,-3.384583 -28.22161,-14.672423 -31.33858,-15.635178 -1.35655,-0.419005 -5.60032,-1.829012 -9.43059,-3.133345 l -6.96413,-2.371512 -18.42592,-2.983061 -18.42592,-2.983061 -9.28551,-0.301942 c -10.01172,-0.325556 -7.53779,-0.445741 -44.10613,2.142686 l -11.31672,0.801032 -4.28006,1.508018 -4.28009,1.50802 -9.87186,8.72543 -9.87187,8.725429 -9.72477,14.525444 c -9.60433,14.345545 -9.79069,14.653915 -15.04696,24.898068 -5.32083,10.37001 -15.25989,30.59267 -15.25989,31.04881 0,0.13294 5.31358,1.32718 11.80795,2.65387 9.52387,1.94555 11.87672,2.3305 12.16345,1.99009 0.19553,-0.23214 2.67081,-5.05311 5.50062,-10.71328 2.8298,-5.66016 5.44073,-10.81406 5.80205,-11.45311 0.36131,-0.63905 3.00146,-4.26554 5.86699,-8.05886 5.02693,-6.654537 5.3975,-7.061383 10.54364,-11.575562 4.53444,-3.977599 6.02928,-5.077884 9.9766,-7.343401 6.56343,-3.76698 15.88929,-7.312147 25.10982,-9.545321 l 6.82873,-1.653893 7.58139,0 7.58138,0 6.77244,1.637002 c 6.71148,1.622265 6.84433,1.671139 14.76045,5.429917 5.69916,2.706105 8.90024,4.436751 11.17163,6.039876 2.94239,2.076711 13.73422,10.342335 14.06505,10.772633 0.0798,0.103739 0.81966,0.703829 1.64415,1.333429 1.19405,0.91181 2.93572,3.29332 8.56007,11.70486 10.15123,15.18171 9.01596,12.94844 12.28371,24.16421 l 2.82624,9.70034 0.41599,9.3424 c 1.2014,26.98112 1.18367,25.08089 0.35833,38.38162 -0.41381,6.66907 -0.74009,12.15069 -0.72505,12.18136 0.0151,0.0307 2.57345,1.68815 5.68534,3.68327 6.44524,4.13224 43.79002,29.8708 50.95008,35.11552 2.60711,1.90969 4.78574,3.47217 4.84143,3.47217 0.0557,0 1.62421,-1.92527 3.4856,-4.27837 l 3.38437,-4.27837 6.85668,-16.22105 c 3.77119,-8.92156 8.26656,-20.10514 9.98972,-24.85237 1.72318,-4.74722 3.72419,-10.21058 4.44668,-12.14078 0.7225,-1.93021 3.15328,-9.47161 5.4017,-16.7587 4.01418,-13.00987 4.11283,-13.27832 5.4617,-14.85888 1.82019,-2.13289 4.11705,-4.33774 4.30032,-4.12808 0.0808,0.0924 -0.32775,1.94128 -0.90771,4.10872 -0.57997,2.16745 -1.49958,5.65878 -2.04357,7.75851 -0.54401,2.09974 -1.12183,4.19118 -1.28407,4.64765 -0.1622,0.45645 -0.34823,1.12871 -0.41338,1.49388 -0.18359,1.02938 -1.0412,3.96294 -3.73639,12.781 -2.26103,7.39757 -3.16682,9.74065 -10.01253,25.89979 -6.98375,16.48498 -8.00086,18.67333 -14.10138,30.34008 -3.61613,6.91552 -6.53746,12.69066 -6.49184,12.83366 0.0456,0.14299 0.95138,1.36332 2.01289,2.71181 1.79254,2.27721 2.79477,3.06995 14.07335,11.13139 6.67883,4.77377 15.93008,11.44045 20.55833,14.81483 4.62824,3.3744 8.54556,6.14147 8.70516,6.14905 0.15959,0.007 0.96029,-1.44013 1.77934,-3.21715 z M 188.88494,266.49657 c 6.44159,-3.7411 11.83787,-6.94602 11.99173,-7.12204 0.17954,-0.2054 -2.74549,-4.11023 -8.16592,-10.90129 -4.64511,-5.81969 -8.55605,-10.62481 -8.69097,-10.67805 -0.13491,-0.0532 -0.44627,0.46962 -0.69191,1.16191 -0.24564,0.69229 -3.08421,7.45833 -6.30794,15.03564 -5.50668,12.94336 -5.92043,14.04811 -6.83814,18.25858 -0.53725,2.46491 -0.97945,4.50522 -0.98269,4.53402 -0.003,0.0287 1.78955,-0.74394 3.98398,-1.71721 2.19442,-0.97325 9.26026,-4.83046 15.70186,-8.57156 z m 390.4584,-50.49468 c 14.50308,-18.50695 17.13147,-22.02169 19.48812,-26.05998 1.49822,-2.56732 2.55294,-4.66784 2.34381,-4.66784 -0.20913,0 -0.50429,0.13257 -0.6559,0.2946 -0.15161,0.16204 -2.56077,0.91884 -5.35368,1.68181 -6.87109,1.87704 -22.63219,8.35112 -39.02813,16.03134 -7.02215,3.28932 -12.87278,6.08904 -13.00139,6.22159 -0.12858,0.13255 0.51753,0.34201 1.4358,0.46549 0.91829,0.12347 2.85158,0.6755 4.29621,1.22675 5.46922,2.08692 9.1246,5.55118 11.34123,10.74823 1.57173,3.685 2.16685,6.92162 2.16685,11.78443 0,2.01615 0.0457,3.66572 0.10155,3.66572 0.0558,0 7.64533,-9.62646 16.86558,-21.39214 z m -404.24125,18.86213 4.89374,-1.86607 -3.58689,-4.11351 c -1.9728,-2.26243 -3.73762,-4.04735 -3.92182,-3.96648 -0.6949,0.30507 -8.66572,7.26791 -8.74466,7.63883 -0.25352,1.19108 3.77725,4.10916 5.74069,4.15599 0.39885,0.01 2.92738,-0.82243 5.61894,-1.84876 z m -6.19756,-9.36043 c 1.53341,-2.04126 1.76009,-2.49669 1.41947,-2.85198 -1.46258,-1.52558 -12.51605,-11.84747 -12.59237,-11.75895 -0.0519,0.0601 1.23262,2.81063 2.85444,6.11211 2.78256,5.66432 5.92695,11.13601 6.31716,10.99277 0.0971,-0.0356 0.99765,-1.1579 2.0013,-2.49395 z m 148.10998,-24.62673 c 0.26302,-2.28232 0.80613,-6.43257 1.20694,-9.22276 0.6663,-4.63828 0.73208,-6.01826 0.7678,-16.10076 0.0273,-7.70395 -0.11517,-13.42901 -0.47263,-18.99505 l -0.51171,-7.96737 -1.73768,-6.6395 -1.73766,-6.63948 -4.80844,-8.79732 c -5.07412,-9.28344 -10.60523,-18.34642 -12.8282,-21.01969 -4.12918,-4.9656 -11.84309,-10.673866 -22.51237,-16.65907 -15.2106,-8.532773 -19.51517,-9.929565 -30.61314,-9.933681 -11.29423,-0.0041 -15.31456,0.962629 -31.46119,7.565837 l -11.79232,4.822497 -7.43548,6.739888 c -4.08952,3.706949 -8.33571,7.785619 -9.436,9.063709 -1.64107,1.90631 -3.43163,4.9452 -9.96589,16.91395 -5.91059,10.82638 -7.96505,14.85136 -7.96408,15.6028 l 0.001,1.01267 7.47062,2.4015 c 19.82818,6.37402 23.01039,7.39174 23.11227,7.39174 0.0603,0 1.4451,-2.61689 3.07723,-5.81529 l 2.96752,-5.8153 5.79582,-6.37978 c 3.18769,-3.50888 6.53461,-6.95074 7.43756,-7.64859 3.62277,-2.79981 8.48797,-5.08613 12.82693,-6.02779 3.08019,-0.66848 9.07991,-0.66848 12.16011,0 5.78887,1.25633 12.04804,4.73353 17.40929,9.67149 2.75328,2.5359 7.61255,9.19688 10.30433,14.12489 l 2.49003,4.55867 1.572,6.63182 1.57199,6.63182 -0.22541,11.38376 c -0.12398,6.26108 -0.21388,11.40243 -0.19978,11.42526 0.0141,0.0228 3.22477,1.62639 7.13484,3.56346 3.91006,1.93707 13.50751,6.9352 21.32764,11.10694 7.82014,4.17174 14.30191,7.498 14.40393,7.3917 0.10209,-0.10632 0.4007,-2.06064 0.66369,-4.34297 z"
       id="path3347"
       inkscape:connector-curvature="0" />
  </g>
</svg>
