<svg height="512pt" viewBox="0 -79 512.00001 512" width="512pt" xmlns="http://www.w3.org/2000/svg"><path d="m512 17.65625v105.929688h-353.101562l-152.984376-118.996094c3.183594-2.976563 7.382813-4.621094 11.742188-4.589844h476.6875c9.742188.0273438 17.628906 7.917969 17.65625 17.65625zm0 0" fill="#4c8056"/><path d="m512 229.515625v105.933594c-.027344 9.738281-7.914062 17.625-17.65625 17.652343h-476.6875c-4.359375.03125-8.558594-1.609374-11.742188-4.589843l152.980469-118.996094zm0 0" fill="#c03a2b"/><path d="m158.898438 123.585938h353.101562v105.929687h-353.101562zm0 0" fill="#e6e7e8"/><path d="m158.898438 123.585938v105.929687l-152.984376 118.996094c-3.761718-3.296875-5.91796825-8.058594-5.914062-13.0625v-317.792969c-.00390625-5.003906 2.152344-9.769531 5.914062-13.066406zm0 0" fill="#2c2f38"/></svg>