<svg xmlns="http://www.w3.org/2000/svg" width="17.779" height="17.779" viewBox="0 0 17.779 17.779">
  <path id="Icon_awesome-pinterest" data-name="Icon awesome-pinterest" d="M17.779,9.452A8.891,8.891,0,0,1,6.259,17.944a9.993,9.993,0,0,0,1.1-2.33c.108-.416.552-2.115.552-2.115a2.381,2.381,0,0,0,2.036,1.022c2.681,0,4.613-2.466,4.613-5.531A5.218,5.218,0,0,0,9.083,3.857c-3.835,0-5.875,2.574-5.875,5.38a3.989,3.989,0,0,0,1.8,3.445c.168.079.258.043.3-.118.029-.122.179-.728.247-1.007A.266.266,0,0,0,5.5,11.3a3.5,3.5,0,0,1-.656-2.029A3.847,3.847,0,0,1,8.854,5.416a3.51,3.51,0,0,1,3.714,3.617c0,2.405-1.215,4.072-2.8,4.072A1.289,1.289,0,0,1,8.456,11.5a17.863,17.863,0,0,0,.735-2.961A1.116,1.116,0,0,0,8.065,7.287c-.893,0-1.609.921-1.609,2.158a3.2,3.2,0,0,0,.265,1.319s-.878,3.721-1.04,4.416a8.6,8.6,0,0,0-.032,2.552,8.891,8.891,0,1,1,12.13-8.28Z" transform="translate(0 -0.563)" fill="#a40a0a"/>
</svg>
