<svg xmlns="http://www.w3.org/2000/svg" width="21.891" height="17.779" viewBox="0 0 21.891 17.779">
  <path id="Icon_awesome-twitter" data-name="Icon awesome-twitter" d="M19.64,7.812c.014.194.014.389.014.583A12.677,12.677,0,0,1,6.889,21.16,12.678,12.678,0,0,1,0,19.146a9.281,9.281,0,0,0,1.083.056,8.985,8.985,0,0,0,5.57-1.917,4.494,4.494,0,0,1-4.195-3.111,5.658,5.658,0,0,0,.847.069,4.745,4.745,0,0,0,1.181-.153,4.487,4.487,0,0,1-3.6-4.4V9.631a4.518,4.518,0,0,0,2.028.569,4.493,4.493,0,0,1-1.389-6A12.753,12.753,0,0,0,10.779,8.9a5.065,5.065,0,0,1-.111-1.028A4.491,4.491,0,0,1,18.432,4.8a8.833,8.833,0,0,0,2.847-1.083,4.474,4.474,0,0,1-1.972,2.472,8.994,8.994,0,0,0,2.584-.694,9.644,9.644,0,0,1-2.25,2.32Z" transform="translate(0 -3.381)" fill="#2a9dc1"/>
</svg>
