<svg xmlns="http://www.w3.org/2000/svg" width="17.779" height="17.779" viewBox="0 0 17.779 17.779">
  <path id="Icon_awesome-facebook-square" data-name="Icon awesome-facebook-square" d="M15.874,2.25H1.9A1.9,1.9,0,0,0,0,4.155V18.124a1.9,1.9,0,0,0,1.9,1.9H7.352V13.985h-2.5V11.14h2.5V8.971a3.473,3.473,0,0,1,3.717-3.829,15.147,15.147,0,0,1,2.2.192V7.755H12.032a1.423,1.423,0,0,0-1.6,1.537V11.14h2.73l-.437,2.845H10.427v6.045h5.447a1.9,1.9,0,0,0,1.9-1.9V4.155a1.9,1.9,0,0,0-1.9-1.9Z" transform="translate(0 -2.25)" fill="#0a2068"/>
</svg>
