<svg xmlns="http://www.w3.org/2000/svg" width="18" height="18" viewBox="0 0 18 18">
  <path id="Icon_ionic-logo-whatsapp" data-name="Icon ionic-logo-whatsapp" d="M11.413,2.25a8.8,8.8,0,0,0-8.836,8.768,8.678,8.678,0,0,0,1.268,4.528L2.25,20.25,7.142,18.7A8.851,8.851,0,0,0,20.25,11.018,8.8,8.8,0,0,0,11.413,2.25Zm4.394,12.1a2.282,2.282,0,0,1-1.563,1.007c-.414.022-.426.321-2.686-.66a9.22,9.22,0,0,1-3.725-3.522A4.333,4.333,0,0,1,7,8.824a2.5,2.5,0,0,1,.86-1.837.865.865,0,0,1,.612-.258c.178,0,.293-.005.425,0s.329-.028.5.427.58,1.573.633,1.687a.409.409,0,0,1,0,.393,1.535,1.535,0,0,1-.24.365c-.118.126-.248.283-.353.38s-.24.224-.117.453a6.762,6.762,0,0,0,1.2,1.6,6.165,6.165,0,0,0,1.772,1.178c.222.121.354.107.491-.037s.588-.633.747-.851.308-.176.512-.094,1.292.665,1.514.786.369.182.422.277A1.856,1.856,0,0,1,15.807,14.348Z" transform="translate(-2.25 -2.25)" fill="#25d366"/>
</svg>
