<?xml version="1.0" encoding="UTF-8" standalone="no"?>
<!DOCTYPE svg PUBLIC "-//W3C//DTD SVG 1.1//EN" "http://www.w3.org/Graphics/SVG/1.1/DTD/svg11.dtd">
<svg xmlns="http://www.w3.org/2000/svg" xmlns:xlink="http://www.w3.org/1999/xlink" version="1.1" width="2000pt" height="1449pt" viewBox="0 0 2000 1449">
<g enable-background="new">
<g>
<path transform="matrix(1,0,0,-1,0,1449)" d="M 0 0 L 1999.994 0 L 1999.994 1448.997 L 0 1448.997 Z " fill="#f7f7f7"/>
<clipPath id="cp0">
<path transform="matrix(1,0,0,-1,0,1449)" d="M 0 1449 L 2000 1449 L 2000 0 L 0 0 Z "/>
</clipPath>
<g clip-path="url(#cp0)">
<g opacity=".289993">
<clipPath id="cp1">
<path transform="matrix(1,0,0,-1,0,1449)" d="M -752.908 -.00294495 L 2896.45 -.00294495 L 2896.45 1449 L -752.908 1449 Z "/>
</clipPath>
<g clip-path="url(#cp1)">
<clipPath id="cp2">
<path transform="matrix(1,0,0,-1,0,1449)" d="M -.007 1448.997 L 1999.993 1448.997 L 1999.993 -.0030517579 L -.007 -.0030517579 Z "/>
</clipPath>
<g clip-path="url(#cp2)">
<path transform="matrix(1,0,0,-1,-326.9963,1006.40896)" d="M 0 0 C 87.448 36.397 176.54 68.426 267.284 96.093 C 278.316 100.045 289.845 103.095 301.868 105.233 C 313.232 107.542 324.262 110.506 334.971 114.126 C 345.674 117.751 355.308 123.598 363.872 131.665 C 369.307 134.795 373.012 134.136 374.989 129.689 C 376.965 125.243 377.088 120.055 375.359 114.126 C 373.631 108.198 370.048 104.331 364.613 102.515 C 344.686 99.718 325.128 95.642 305.944 90.289 C 286.758 84.938 267.613 79.214 248.51 73.119 C 229.57 66.863 210.55 61.1 191.447 55.828 C 104.493 25.856 18.937 -7.659 -65.215 -44.712 C -104.739 -60.19 -143.646 -77.154 -181.935 -95.6 C -220.225 -114.043 -257.402 -134.631 -293.468 -157.357 C -312.242 -169.543 -330.152 -182.963 -347.198 -197.622 C -364.241 -212.279 -380.916 -227.266 -397.22 -242.582 C -398.042 -243.238 -398.864 -243.979 -399.69 -244.805 C -404.465 -249.907 -410.227 -253.613 -416.982 -255.921 C -423.733 -255.59 -426.655 -253.451 -425.751 -249.498 C -424.844 -245.546 -421.757 -240.768 -416.489 -235.171 C -411.216 -229.57 -405.329 -223.97 -398.827 -218.373 C -392.318 -212.773 -386.845 -208.244 -382.398 -204.787 C -379.763 -202.644 -377.952 -201.081 -376.964 -200.092 C -357.035 -184.611 -338.343 -167.813 -320.889 -149.699 C -306.395 -134.711 -291.161 -120.55 -275.188 -107.21 C -265.145 -97.658 -255.51 -87.611 -246.286 -77.073 C -237.231 -66.532 -227.597 -56.485 -217.384 -46.936 C -191.036 -19.597 -164.358 7.411 -137.347 34.089 C -90.577 79.38 -45.537 126.315 -2.223 174.895 C 24.456 203.223 51.544 231.217 79.05 258.884 C 122.526 302.029 164.521 346.579 205.033 392.527 C 213.1 401.253 221.338 409.819 229.736 418.218 C 242.088 430.568 254.027 443.167 265.556 456.012 C 286.962 482.853 309.935 508.051 334.476 531.603 C 357.037 553.504 378.363 576.477 398.456 600.524 C 413.278 617.65 428.756 634.282 444.897 650.424 C 463.34 668.703 480.879 687.806 497.515 707.733 C 508.218 720.247 519.254 732.27 530.617 743.801 C 545.6 758.95 559.681 774.925 572.858 791.724 C 578.949 798.475 585.125 805.31 591.385 812.227 C 613.451 836.104 634.368 861.053 654.131 887.076 C 659.726 893.333 663.763 900.578 666.235 908.815 C 666.562 914.578 663.105 917.584 655.859 917.831 C 648.61 918.079 639.841 916.801 629.55 914.003 C 619.257 911.2 609.665 908.401 600.772 905.604 C 592.041 902.64 586.032 900.909 582.739 900.416 C 512.911 878.512 443.99 854.012 375.976 826.925 C 307.96 799.833 241.755 768.997 177.366 734.413 C 174.07 732.599 170.777 730.788 167.485 728.979 C 149.206 717.777 130.018 708.637 109.928 701.558 L 107.951 703.781 C 111.244 709.71 124.379 719.22 147.353 732.314 C 170.326 745.406 199.804 760.513 235.789 777.643 C 271.77 794.769 310.8 812.266 352.88 830.136 C 394.955 848.003 436.661 864.721 477.999 880.283 C 519.334 895.846 556.802 908.649 590.398 918.696 C 623.992 928.74 650.382 934.42 669.57 935.741 C 688.753 937.057 697.274 932.53 695.136 922.155 C 692.666 914.083 688.876 906.672 683.773 899.922 C 661.869 869.29 637.826 840.389 611.641 813.215 C 597.641 795.262 582.573 778.219 566.436 762.08 C 556.06 751.539 545.932 740.671 536.051 729.472 C 519.086 708.228 500.807 688.052 481.211 668.951 C 476.926 664.505 472.645 660.058 468.366 655.611 C 462.437 649.351 456.423 643.174 450.333 637.084 C 435.511 622.756 421.591 607.603 408.585 591.63 C 392.115 572.03 374.657 553.256 356.215 535.308 C 347.816 526.744 339.498 518.179 331.265 509.618 C 324.676 502.368 318.087 495.044 311.502 487.633 C 284.986 457.329 257.565 427.852 229.242 399.197 C 218.868 388.161 208.82 376.879 199.105 365.353 C 184.777 348.061 169.462 331.51 153.158 315.701 C 147.724 310.267 142.288 304.747 136.854 299.15 C 88.765 251.721 42.243 202.894 -2.716 152.662 C -18.859 136.196 -35.077 119.726 -51.381 103.256 C -104.083 50.725 -155.38 -3.127 -205.28 -58.299 C -211.54 -65.215 -218.045 -71.8 -224.795 -78.062 C -237.972 -89.425 -249.25 -102.351 -258.638 -116.844 L -258.638 -116.598 L -258.884 -116.598 C -173.744 -75.259 -87.447 -36.395 0 0 " fill="#fbbe9f"/>
<path transform="matrix(1,0,0,-1,2200.987,1159.3995)" d="M 0 0 C 87.448 36.397 176.54 68.426 267.284 96.093 C 278.316 100.045 289.845 103.095 301.868 105.233 C 313.233 107.542 324.262 110.506 334.971 114.126 C 345.674 117.751 355.308 123.598 363.872 131.665 C 369.307 134.795 373.012 134.136 374.989 129.689 C 376.966 125.243 377.088 120.055 375.359 114.126 C 373.631 108.198 370.048 104.331 364.614 102.515 C 344.686 99.718 325.128 95.642 305.944 90.289 C 286.758 84.938 267.613 79.214 248.51 73.119 C 229.571 66.863 210.55 61.1 191.447 55.828 C 104.494 25.856 18.937 -7.659 -65.215 -44.712 C -104.739 -60.19 -143.646 -77.154 -181.935 -95.6 C -220.224 -114.043 -257.402 -134.631 -293.468 -157.357 C -312.242 -169.543 -330.152 -182.963 -347.197 -197.622 C -364.241 -212.279 -380.916 -227.266 -397.22 -242.582 C -398.042 -243.238 -398.864 -243.979 -399.69 -244.805 C -404.465 -249.907 -410.227 -253.613 -416.982 -255.921 C -423.732 -255.59 -426.655 -253.451 -425.751 -249.498 C -424.844 -245.546 -421.757 -240.768 -416.489 -235.171 C -411.216 -229.57 -405.329 -223.97 -398.826 -218.373 C -392.318 -212.773 -386.845 -208.244 -382.398 -204.787 C -379.763 -202.644 -377.952 -201.081 -376.964 -200.092 C -357.035 -184.611 -338.343 -167.813 -320.888 -149.699 C -306.395 -134.711 -291.161 -120.55 -275.188 -107.21 C -265.145 -97.658 -255.51 -87.611 -246.286 -77.073 C -237.231 -66.532 -227.597 -56.485 -217.384 -46.936 C -191.036 -19.597 -164.358 7.411 -137.347 34.089 C -90.577 79.38 -45.537 126.316 -2.223 174.895 C 24.456 203.223 51.544 231.217 79.05 258.884 C 122.527 302.029 164.521 346.579 205.034 392.527 C 213.101 401.253 221.338 409.819 229.736 418.218 C 242.089 430.568 254.027 443.167 265.556 456.012 C 286.962 482.853 309.935 508.051 334.476 531.603 C 357.037 553.504 378.363 576.477 398.456 600.524 C 413.278 617.65 428.756 634.282 444.897 650.424 C 463.34 668.703 480.879 687.806 497.515 707.733 C 508.218 720.247 519.254 732.27 530.617 743.801 C 545.6 758.95 559.681 774.925 572.858 791.724 C 578.95 798.475 585.125 805.311 591.385 812.227 C 613.451 836.104 634.368 861.053 654.131 887.077 C 659.727 893.333 663.764 900.578 666.235 908.815 C 666.562 914.578 663.105 917.584 655.86 917.831 C 648.61 918.079 639.841 916.801 629.551 914.003 C 619.257 911.2 609.665 908.401 600.772 905.604 C 592.042 902.64 586.032 900.909 582.739 900.416 C 512.911 878.512 443.99 854.013 375.977 826.925 C 307.96 799.833 241.755 768.997 177.366 734.413 C 174.07 732.599 170.777 730.788 167.486 728.979 C 149.206 717.777 130.018 708.637 109.928 701.558 L 107.951 703.781 C 111.244 709.71 124.379 719.22 147.353 732.314 C 170.326 745.406 199.804 760.513 235.789 777.643 C 271.77 794.769 310.8 812.266 352.88 830.136 C 394.955 848.003 436.662 864.721 477.999 880.283 C 519.334 895.846 556.802 908.649 590.398 918.696 C 623.992 928.74 650.382 934.42 669.57 935.741 C 688.753 937.057 697.275 932.53 695.136 922.155 C 692.667 914.083 688.876 906.672 683.773 899.922 C 661.869 869.29 637.827 840.389 611.642 813.215 C 597.641 795.262 582.573 778.219 566.436 762.08 C 556.061 751.539 545.932 740.671 536.051 729.472 C 519.086 708.228 500.807 688.052 481.211 668.951 C 476.926 664.505 472.645 660.058 468.366 655.611 C 462.437 649.351 456.423 643.174 450.333 637.084 C 435.511 622.756 421.592 607.603 408.585 591.63 C 392.115 572.03 374.657 553.256 356.215 535.308 C 347.816 526.744 339.498 518.179 331.265 509.618 C 324.676 502.368 318.087 495.044 311.502 487.633 C 284.986 457.329 257.565 427.852 229.242 399.197 C 218.868 388.161 208.82 376.879 199.105 365.353 C 184.777 348.061 169.462 331.51 153.158 315.701 C 147.724 310.267 142.288 304.747 136.854 299.15 C 88.765 251.721 42.243 202.894 -2.716 152.662 C -18.859 136.196 -35.077 119.726 -51.381 103.256 C -104.083 50.725 -155.38 -3.127 -205.28 -58.299 C -211.54 -65.215 -218.044 -71.8 -224.795 -78.062 C -237.972 -89.425 -249.25 -102.351 -258.638 -116.844 L -258.638 -116.598 L -258.884 -116.598 C -173.744 -75.259 -87.447 -36.395 0 0 " fill="#fbbe9f"/>
</g>
</g>
</g>
<path transform="matrix(1,0,0,-1,725.9257,750.8884)" d="M 0 0 L .54 -12.42 C 1.08 -18.183 2.295 -22.186 4.185 -24.435 C 6.075 -26.688 8.953 -28.038 12.825 -28.486 C 16.694 -28.937 20.25 -29.253 23.49 -29.43 C 26.731 -29.612 29.519 -29.793 31.86 -29.97 L 31.86 -34.291 L -99.631 -34.291 L -99.631 -29.97 L -81.811 -29.16 C -76.411 -28.62 -72.723 -27.27 -70.741 -25.11 C -68.762 -22.95 -67.501 -18.9 -66.961 -12.96 L -66.421 -.54 L -66.421 49.681 L -117.451 132.841 C -123.573 142.38 -128.386 148.678 -131.896 151.741 C -135.406 154.8 -140.042 156.69 -145.801 157.412 L -153.361 158.221 L -153.361 162.541 L -27.27 162.541 L -27.27 158.221 L -41.31 157.681 C -45.09 157.319 -47.79 156.779 -49.41 156.061 C -51.03 155.34 -51.84 153.631 -51.84 150.931 C -51.84 148.949 -51.482 147.016 -50.76 145.126 C -50.043 143.237 -48.242 139.815 -45.36 134.866 C -42.483 129.914 -36.948 120.868 -28.755 107.731 C -20.567 94.59 -12.69 82.081 -5.13 70.201 C .988 80.819 7.649 92.294 14.851 104.626 C 22.048 116.953 27.406 126.403 30.915 132.976 C 34.425 139.545 36.181 144.898 36.181 149.042 C 36.181 153.901 32.219 156.779 24.301 157.681 L 13.5 158.221 L 13.5 162.541 L 78.031 162.541 L 78.031 158.221 L 70.986 157.681 C 64.843 157.681 59.696 156.508 55.541 154.171 C 51.385 151.83 47.048 147.194 42.534 140.266 C 38.02 133.335 31.742 122.893 23.705 108.946 C 15.669 94.995 7.767 81.089 0 67.23 Z " fill="#00564e"/>
<path transform="matrix(1,0,0,-1,851.7472,763.8447)" d="M 0 0 L 0 51.583 L -.802 51.854 C -2.405 49.693 -5.387 47.664 -9.75 45.774 C -14.112 43.884 -17.137 42.036 -18.828 40.239 C -20.52 38.438 -21.853 34.97 -22.832 29.84 C -23.811 24.71 -24.301 19.445 -24.301 14.045 C -24.301 5.94 -23.68 -.544 -22.432 -5.404 C -21.187 -10.264 -18.339 -12.694 -13.884 -12.694 C -10.505 -12.694 -7.522 -11.344 -4.94 -8.644 C -2.359 -5.944 -.713 -3.063 0 0 M 60.637 -8.104 C 64.898 -8.104 67.872 -5.438 69.56 -.101 C 71.247 5.232 72.091 11.611 72.091 19.027 L 75.871 19.027 C 75.871 3.139 73.035 -7.336 67.366 -12.39 C 61.696 -17.444 56.608 -20.651 52.111 -22.005 C 47.609 -23.355 41.85 -24.034 34.83 -24.034 C 27.089 -24.034 20.204 -22.052 14.175 -18.086 C 8.142 -14.12 4.497 -8.804 3.24 -2.135 C .359 -9.433 -4.455 -14.909 -11.206 -18.558 C -17.955 -22.208 -26.73 -24.034 -37.531 -24.034 C -49.052 -24.034 -58.413 -20.879 -65.61 -14.567 C -72.812 -8.256 -76.411 .494 -76.411 11.682 C -76.411 20.697 -74.162 27.958 -69.661 33.46 C -65.163 38.961 -60.573 42.345 -55.891 43.606 C -51.212 44.867 -44.01 45.951 -34.291 46.854 C -24.57 47.757 -17.415 48.794 -12.825 49.967 C -8.235 51.14 -4.953 52.402 -2.97 53.756 C -.992 55.106 0 57.405 0 60.654 L -.266 85.275 C -.266 92.307 -1.16 97.357 -2.94 100.424 C -4.725 103.492 -8.467 105.027 -14.166 105.027 C -17.732 105.027 -20.719 104.213 -23.123 102.584 C -25.528 100.956 -26.73 98.876 -26.73 96.345 C -26.73 94.354 -24.815 91.868 -20.976 88.886 C -17.141 85.899 -15.221 81.423 -15.221 75.454 C -15.221 69.847 -17.707 64.872 -22.672 60.531 C -27.637 56.19 -35.717 54.022 -46.909 54.022 C -53.051 54.022 -58.422 55.693 -63.025 59.038 C -67.631 62.384 -69.931 66.86 -69.931 72.462 C -69.931 83.672 -63.662 92.62 -51.123 99.311 C -38.585 106.002 -23.659 109.347 -6.341 109.347 C 8.273 109.347 21.71 106.318 33.978 100.26 C 46.246 94.202 52.38 84.845 52.38 72.188 L 52.38 10.07 C 52.38 4.282 52.912 -.151 53.979 -3.223 C 54.865 -6.48 57.084 -8.104 60.637 -8.104 " fill="#00564e"/>
<path transform="matrix(1,0,0,-1,709.8025,897.6369)" d="M 0 0 C -7.346 -6.177 2.489 -7.875 10.099 -4 C 24.691 3.185 39.619 9.513 54.883 14.983 C 70.147 20.455 85.587 25.339 101.202 29.635 C 134.611 40.337 168.412 49.64 202.601 57.543 C 210.06 58.782 217.507 60.21 224.943 61.828 C 232.435 63.378 239.927 64.786 247.421 66.051 C 254.914 67.317 262.497 68.083 270.17 68.349 C 272.305 68.821 273.819 70.146 274.711 72.326 C 275.604 74.507 275.764 76.48 275.191 78.246 C 274.619 80.013 273.239 80.41 271.052 79.439 C 267.481 76.72 263.592 74.886 259.386 73.938 C 255.178 72.991 250.875 72.307 246.471 71.884 C 241.823 71.553 237.327 70.855 232.984 69.796 C 197.448 62.919 162.365 54.32 127.731 43.999 C 93.181 33.703 25.42 10.565 25.584 10.762 C 20.556 9.005 15.422 7.67 10.261 6.343 C 7.93 5.743 5.754 4.653 3.87 3.155 C 2.568 2.119 1.277 1.07 0 0 " fill="#fbbe9f"/>
<path transform="matrix(1,0,0,-1,723.0098,899.6462)" d="M 0 0 C 21.135 18.943 15.255 14.131 37.348 31.961 C 44.192 37.559 51.003 43.162 57.785 48.765 C 76.848 66.031 65.731 56.415 85.871 72.493 C 88.156 74.4 91.799 77.431 94.078 79.277 C 100.447 84.928 105.238 89.42 112.273 94.753 C 116.42 98.739 120.682 102.619 125.059 106.392 C 136.949 116.135 148.53 126.226 159.8 136.666 C 162.595 139.216 165.387 141.732 168.176 144.22 C 171.642 147.14 175.14 150.058 178.668 152.972 C 186.382 159.047 193.755 165.474 200.787 172.254 C 206.359 177.795 212.246 182.99 218.441 187.835 C 220.995 189.903 223.524 192.007 226.023 194.145 C 227.824 195.662 229.626 197.178 231.429 198.695 C 239.627 205.161 247.368 212.087 254.652 219.471 C 258.848 223.326 263.125 227.045 267.483 230.631 C 274.25 236.111 280.647 241.977 286.676 248.23 C 297.696 257.496 307.972 267.503 317.505 278.252 C 319.711 280.61 321.444 283.271 322.704 286.235 C 323.929 290.086 320.876 292.144 313.545 292.41 C 306.212 292.675 295.971 291.572 282.824 289.101 C 269.675 286.63 254.948 283.266 238.642 279.01 C 222.336 274.755 205.844 270.076 189.166 264.975 C 172.486 259.873 156.979 254.792 142.643 249.729 C 128.305 244.665 116.517 240.108 107.278 236.058 C 98.038 232.006 92.675 228.922 91.189 226.803 L 91.85 225.881 C 99.756 227.765 107.401 230.468 114.784 233.989 C 116.105 234.544 117.427 235.1 118.75 235.657 C 144.562 246.21 170.913 255.269 197.802 262.835 C 224.69 270.399 251.819 276.946 279.188 282.471 C 280.457 282.527 282.807 282.943 286.238 283.72 C 289.724 284.426 293.475 285.106 297.493 285.758 C 301.509 286.41 304.887 286.545 307.628 286.161 C 310.367 285.779 311.559 284.5 311.205 282.326 C 309.939 279.299 308.118 276.711 305.745 274.561 C 297.208 265.475 288.276 256.843 278.95 248.663 C 276.299 246.289 273.683 243.941 271.102 241.623 C 265.432 235.775 259.452 230.275 253.162 225.124 C 248.391 221.203 243.723 217.081 239.163 212.76 C 232.056 205.862 224.638 199.314 216.911 193.113 C 210.142 187.633 203.606 181.939 197.298 176.032 C 188.715 167.71 179.706 159.844 170.272 152.434 C 160.02 144.476 150.298 135.832 141.105 126.501 C 136.218 122.087 131.185 117.783 126.005 113.59 C 122.484 110.738 119.016 107.816 115.607 104.827 C 97.962 89.445 110.737 101.201 93.424 85.667 C 81.883 76.266 70.112 66.866 58.859 57.182 C 40.486 40.477 21.523 24.465 1.969 9.146 C -9.344 .101 -2.517 9.358 -13.605 .036 Z " fill="#fbbe9f"/>
<path transform="matrix(1,0,0,-1,992.5704,740.1749)" d="M 0 0 C .093 .427 .093 .876 0 1.352 C -.192 1.73 -.381 2.014 -.57 2.205 C -.761 2.394 -1.045 2.583 -1.423 2.774 C -2.277 3.059 -4.009 2.276 -6.616 .427 C -9.226 -1.423 -12.023 -3.677 -15.011 -6.331 C -17.999 -8.988 -20.584 -11.311 -22.765 -13.303 C -22.387 -13.21 -21.153 -12.712 -19.066 -11.809 C -16.98 -10.909 -14.608 -9.842 -11.952 -8.608 C -9.297 -7.376 -6.879 -6.118 -4.696 -4.838 C -2.515 -3.557 -1.138 -2.49 -.57 -1.636 C -.285 -.974 -.096 -.427 0 0 M -38.842 -45.245 C -42.351 -42.826 -43.68 -38.724 -42.826 -32.938 C -42.542 -31.515 -42.257 -30.519 -41.973 -29.95 C -40.739 -26.82 -39.34 -24.023 -37.776 -21.555 C -36.21 -19.09 -34.241 -16.34 -31.871 -13.303 C -29.879 -10.933 -26.157 -7.21 -20.702 -2.134 C -15.248 2.939 -9.439 6.805 -3.273 9.462 C -2.515 9.746 -1.138 10.077 .853 10.457 C 2.845 10.835 4.979 10.646 7.256 9.888 C 8.203 9.413 9.057 8.843 9.817 8.181 C 10.86 7.136 11.333 5.951 11.24 4.624 C 11.144 3.294 11.002 2.252 10.813 1.494 C 10.813 1.398 10.764 1.302 10.671 1.209 C 9.532 -2.586 6.545 -6.071 1.707 -9.248 C -3.13 -12.427 -8.11 -15.082 -13.232 -17.216 C -18.354 -19.35 -21.911 -20.702 -23.903 -21.271 C -24.188 -21.366 -24.828 -21.651 -25.824 -22.124 C -26.82 -22.6 -27.983 -23.312 -29.31 -24.259 C -32.533 -26.251 -34.525 -29.145 -35.285 -32.938 C -36.328 -38.82 -33.672 -42.424 -27.318 -43.751 C -25.706 -44.036 -24.141 -44.036 -22.623 -43.751 C -14.94 -42.613 -7.636 -40.243 -.712 -36.637 C 5.168 -33.413 10.906 -29.999 16.504 -26.393 C 23.523 -21.935 30.636 -17.667 37.846 -13.588 C 38.888 -12.83 40.074 -12.403 41.403 -12.307 C 41.972 -12.307 42.492 -12.499 42.968 -12.876 C 43.253 -13.257 43.395 -13.659 43.395 -14.086 C 43.395 -14.513 43.299 -14.964 43.111 -15.437 C 42.541 -16.197 41.877 -16.814 41.118 -17.287 C 32.486 -23.358 23.618 -29.096 14.512 -34.503 C 6.922 -39.531 -1.138 -43.608 -9.675 -46.739 C -14.228 -48.257 -19.588 -49.015 -25.753 -49.015 C -30.968 -48.922 -35.332 -47.663 -38.842 -45.245 " fill="#fbbe9f"/>
<path transform="matrix(1,0,0,-1,1063.2831,740.1749)" d="M 0 0 C .093 .427 .093 .876 0 1.352 C -.192 1.73 -.381 2.014 -.569 2.205 C -.761 2.394 -1.045 2.583 -1.423 2.774 C -2.277 3.059 -4.009 2.276 -6.616 .427 C -9.226 -1.423 -12.023 -3.677 -15.011 -6.331 C -17.999 -8.988 -20.584 -11.311 -22.765 -13.303 C -22.387 -13.21 -21.153 -12.712 -19.066 -11.809 C -16.98 -10.909 -14.608 -9.842 -11.952 -8.608 C -9.297 -7.376 -6.879 -6.118 -4.696 -4.838 C -2.515 -3.557 -1.138 -2.49 -.569 -1.636 C -.285 -.974 -.096 -.427 0 0 M -38.842 -45.245 C -42.351 -42.826 -43.68 -38.724 -42.826 -32.938 C -42.542 -31.515 -42.257 -30.519 -41.973 -29.95 C -40.739 -26.82 -39.34 -24.023 -37.776 -21.555 C -36.21 -19.09 -34.241 -16.34 -31.871 -13.303 C -29.879 -10.933 -26.157 -7.21 -20.702 -2.134 C -15.248 2.939 -9.439 6.805 -3.273 9.462 C -2.515 9.746 -1.138 10.077 .853 10.457 C 2.845 10.835 4.979 10.646 7.256 9.888 C 8.203 9.413 9.057 8.843 9.817 8.181 C 10.86 7.136 11.333 5.951 11.24 4.624 C 11.144 3.294 11.002 2.252 10.813 1.494 C 10.813 1.398 10.764 1.302 10.671 1.209 C 9.532 -2.586 6.545 -6.071 1.707 -9.248 C -3.13 -12.427 -8.11 -15.082 -13.232 -17.216 C -18.354 -19.35 -21.911 -20.702 -23.903 -21.271 C -24.188 -21.366 -24.828 -21.651 -25.824 -22.124 C -26.82 -22.6 -27.983 -23.312 -29.31 -24.259 C -32.533 -26.251 -34.525 -29.145 -35.285 -32.938 C -36.328 -38.82 -33.672 -42.424 -27.318 -43.751 C -25.706 -44.036 -24.141 -44.036 -22.623 -43.751 C -14.94 -42.613 -7.636 -40.243 -.712 -36.637 C 5.168 -33.413 10.906 -29.999 16.504 -26.393 C 23.523 -21.935 30.636 -17.667 37.846 -13.588 C 38.888 -12.83 40.074 -12.403 41.403 -12.307 C 41.972 -12.307 42.492 -12.499 42.968 -12.876 C 43.253 -13.257 43.395 -13.659 43.395 -14.086 C 43.395 -14.513 43.3 -14.964 43.111 -15.437 C 42.541 -16.197 41.877 -16.814 41.118 -17.287 C 32.486 -23.358 23.618 -29.096 14.512 -34.503 C 6.922 -39.531 -1.138 -43.608 -9.675 -46.739 C -14.228 -48.257 -19.588 -49.015 -25.753 -49.015 C -30.968 -48.922 -35.332 -47.663 -38.842 -45.245 " fill="#fbbe9f"/>
<path transform="matrix(1,0,0,-1,1153.0608,779.2306)" d="M 0 0 C -2.372 1.992 -4.411 4.315 -6.118 6.971 C -7.351 8.964 -8.536 10.956 -9.675 12.948 C -10.528 14.559 -11.431 16.124 -12.378 17.643 C -12.947 18.685 -13.612 19.681 -14.37 20.63 C -14.561 20.915 -14.75 21.151 -14.939 21.342 C -15.888 22.48 -17.24 23.192 -18.994 23.476 C -20.75 23.761 -22.244 23.476 -23.476 22.622 C -23.667 22.431 -23.903 22.242 -24.187 22.053 C -24.852 21.673 -25.421 21.246 -25.895 20.773 C -31.112 15.744 -35.712 10.244 -39.696 4.268 C -41.119 1.992 -42.541 -.238 -43.964 -2.419 C -45.102 -4.126 -46.194 -5.833 -47.237 -7.541 C -50.555 -12.759 -54.255 -17.691 -58.334 -22.338 C -59.473 -23.476 -60.8 -24.187 -62.318 -24.472 C -63.076 -24.663 -63.834 -24.568 -64.595 -24.187 C -65.353 -23.809 -65.875 -23.24 -66.159 -22.48 C -66.822 -21.057 -67.013 -19.588 -66.729 -18.069 C -65.684 -12.948 -64.214 -8.016 -62.318 -3.273 C -60.989 -.049 -59.661 3.177 -58.334 6.402 C -56.342 11.334 -54.35 16.22 -52.358 21.057 C -51.789 22.289 -51.267 23.523 -50.794 24.757 C -48.423 30.163 -46.289 35.663 -44.391 41.261 C -43.633 43.726 -42.683 46.098 -41.545 48.375 C -37.468 57.385 -34.196 66.633 -31.728 76.119 C -31.159 78.585 -30.116 80.908 -28.598 83.091 C -28.22 83.564 -27.58 83.874 -26.677 84.016 C -25.777 84.158 -25.041 84.087 -24.472 83.803 C -24.187 83.611 -23.952 83.422 -23.76 83.233 C -23.572 83.042 -23.429 82.853 -23.334 82.664 C -23.145 81.146 -23.049 79.627 -23.049 78.111 C -23.145 77.066 -23.429 76.071 -23.903 75.123 C -26.559 69.621 -28.978 63.976 -31.159 58.192 C -32.108 55.724 -33.058 53.306 -34.005 50.936 C -38.084 40.881 -42.257 30.875 -46.525 20.915 C -50.224 12.378 -53.448 3.699 -56.2 -5.122 C -56.484 -6.356 -56.104 -7.068 -55.062 -7.256 C -54.777 -7.256 -54.515 -7.185 -54.279 -7.043 C -54.041 -6.901 -53.828 -6.736 -53.639 -6.545 C -48.328 .947 -43.017 8.537 -37.704 16.22 C -34.385 20.866 -30.447 24.899 -25.895 28.313 C -24.187 29.545 -22.386 30.541 -20.488 31.301 C -17.265 32.439 -14.37 31.87 -11.809 29.594 C -10.386 28.171 -9.105 26.557 -7.968 24.757 C -7.209 23.427 -6.498 22.004 -5.833 20.488 C -5.456 19.539 -5.075 18.638 -4.695 17.785 C -4.506 17.5 -4.317 17.167 -4.126 16.789 C -3.179 14.797 -2.134 12.852 -.996 10.956 C 4.315 2.228 12.329 -.903 23.049 1.565 C 25.23 2.039 27.364 2.75 29.452 3.699 C 29.736 3.793 30.021 3.888 30.306 3.984 C 39.411 7.588 48.375 11.571 57.196 15.935 C 64.595 19.635 72.182 22.858 79.961 25.61 C 81.857 26.273 83.849 26.699 85.937 26.891 C 86.98 26.984 87.975 26.842 88.925 26.464 C 89.967 26.084 90.536 25.326 90.632 24.187 C 90.632 23.143 90.156 22.289 89.209 21.626 C 89.114 21.626 89.067 21.578 89.067 21.484 C 88.687 21.2 88.307 21.009 87.929 20.915 C 74.839 17.689 62.318 12.948 50.367 6.687 C 43.916 3.366 37.324 .427 30.59 -2.134 C 27.269 -3.368 23.854 -4.411 20.346 -5.265 C 18.732 -5.549 17.358 -5.691 16.22 -5.691 C 15.84 -5.691 15.509 -5.74 15.224 -5.833 C 8.964 -5.36 3.888 -3.415 0 0 " fill="#fbbe9f"/>
<path transform="matrix(1,0,0,-1,1246.9646,762.5842)" d="M 0 0 C 1.896 1.138 3.888 2.039 5.976 2.704 C 8.346 3.177 10.48 2.868 12.379 1.779 C 14.275 .687 15.84 -.902 17.074 -2.988 C 18.212 -4.886 19.159 -6.925 19.919 -9.106 C 20.297 -9.96 20.631 -10.813 20.915 -11.667 C 21.862 -13.943 23.285 -16.149 25.184 -18.283 C 27.08 -20.417 29.452 -20.915 32.298 -19.777 C 32.676 -19.588 33.056 -19.446 33.436 -19.35 C 34.479 -18.876 35.474 -18.354 36.424 -17.785 C 36.993 -17.311 37.608 -16.884 38.273 -16.504 C 41.973 -14.039 45.53 -11.477 48.944 -8.821 C 55.774 -3.795 62.839 .854 70.144 5.122 C 71.282 5.785 72.467 6.496 73.701 7.256 C 75.408 8.204 77.258 9.057 79.25 9.817 C 80.197 10.102 81.193 10.196 82.237 10.102 C 83.469 10.102 84.134 9.533 84.229 8.395 C 84.229 8.11 84.205 7.848 84.158 7.612 C 84.109 7.374 84.038 7.161 83.945 6.972 C 83.754 6.781 83.565 6.639 83.376 6.545 C 82.426 5.596 81.431 4.789 80.388 4.127 C 71.282 -.807 62.554 -6.356 54.209 -12.52 C 49.18 -16.126 44.107 -19.683 38.985 -23.191 C 37.277 -24.236 35.474 -25.232 33.578 -26.179 C 28.645 -28.267 24.615 -27.531 21.484 -23.974 C 18.354 -20.417 15.935 -16.6 14.228 -12.52 C 14.037 -12.236 13.895 -12 13.801 -11.809 C 13.801 -11.716 13.752 -11.62 13.659 -11.524 C 13.09 -10.197 12.33 -8.963 11.382 -7.825 C 10.718 -7.067 9.888 -6.474 8.893 -6.047 C 7.896 -5.62 6.876 -5.548 5.833 -5.833 C 3.273 -6.498 1.043 -7.683 -.853 -9.39 C -3.606 -11.858 -5.882 -14.655 -7.683 -17.785 C -8.914 -19.683 -10.102 -21.626 -11.24 -23.618 C -12.378 -25.706 -13.563 -27.744 -14.797 -29.736 C -15.651 -30.874 -16.646 -31.919 -17.785 -32.866 L -17.927 -33.008 C -18.781 -33.769 -19.777 -33.911 -20.915 -33.436 C -21.862 -32.962 -22.384 -32.155 -22.48 -31.016 C -22.573 -30.354 -22.573 -29.832 -22.48 -29.452 C -22.384 -28.598 -22.195 -27.887 -21.911 -27.317 C -21.626 -26.748 -21.484 -26.417 -21.484 -26.321 C -20.63 -24.521 -16.86 -15.39 -10.173 1.067 C -3.485 17.523 3.842 35.877 11.809 56.129 C 19.777 76.38 26.131 93.098 30.875 106.283 C 35.616 119.941 40.643 135.307 45.957 152.381 C 50.698 167.271 54.92 180.148 58.619 191.01 C 62.318 201.87 64.83 207.49 66.16 207.87 C 66.729 207.774 67.203 207.657 67.583 207.514 C 67.961 207.372 68.341 207.159 68.721 206.874 C 69.195 206.305 69.526 205.711 69.717 205.096 C 69.906 204.477 70.002 203.886 70.002 203.317 C 59.851 171.54 48.944 139.1 37.277 105.998 C 24.281 69.099 11.049 33.34 -2.419 -1.28 C -1.661 -.807 -.853 -.38 0 0 " fill="#fbbe9f"/>
<path transform="matrix(1,0,0,-1,1340.0155,749.921)" d="M 0 0 C -.76 -.284 -1.661 -.712 -2.703 -1.281 C -7.163 -4.791 -10.956 -8.964 -14.085 -13.801 C -17.974 -19.303 -21.72 -24.852 -25.326 -30.448 C -25.988 -31.493 -26.557 -32.631 -27.033 -33.862 C -27.126 -34.147 -27.222 -34.432 -27.318 -34.716 C -27.887 -35.95 -27.553 -36.757 -26.321 -37.135 C -26.13 -37.135 -25.895 -37.113 -25.61 -37.064 C -25.326 -37.017 -25.088 -36.899 -24.899 -36.708 C -20.724 -33.578 -17.074 -29.974 -13.943 -25.895 C -9.486 -20.203 -4.791 -14.704 .142 -9.391 C 1.185 -8.252 2.134 -7.021 2.988 -5.691 C 3.273 -5.029 3.557 -4.364 3.842 -3.699 C 3.935 -3.415 4.031 -3.13 4.126 -2.846 C 4.315 -2.087 4.077 -1.352 3.415 -.64 C 2.75 .071 1.85 .378 .711 .284 C .52 .189 .285 .093 0 0 M 36.566 -21.769 C 38.177 -21.58 39.885 -21.295 41.688 -20.915 C 47.188 -19.399 52.406 -17.216 57.338 -14.37 C 59.519 -13.139 61.653 -11.858 63.741 -10.529 C 66.018 -9.202 68.341 -7.874 70.713 -6.545 C 70.902 -6.451 71.091 -6.309 71.282 -6.118 C 73.748 -4.602 76.355 -3.464 79.107 -2.704 C 80.246 -2.419 81.146 -2.704 81.811 -3.557 C 82.38 -4.506 82.331 -5.456 81.668 -6.402 C 81.383 -6.879 81.05 -7.256 80.672 -7.541 C 72.609 -13.043 64.168 -17.927 55.347 -22.195 C 50.698 -24.472 45.86 -26.275 40.834 -27.602 C 36.755 -28.647 32.676 -28.598 28.598 -27.46 C 28.407 -27.367 28.218 -27.318 28.029 -27.318 C 26.7 -26.94 25.419 -26.513 24.187 -26.037 C 20.203 -24.426 17.263 -21.675 15.366 -17.785 C 14.891 -16.647 14.512 -15.415 14.228 -14.086 C 13.848 -12.378 13.137 -10.767 12.094 -9.248 C 11.429 -8.394 10.529 -8.159 9.391 -8.537 C 8.441 -8.822 7.588 -9.297 6.829 -9.96 C 2.561 -13.85 -1.281 -18.023 -4.695 -22.48 C -9.533 -28.741 -14.748 -34.574 -20.346 -39.98 C -21.293 -41.025 -22.289 -42.068 -23.334 -43.111 C -24.187 -43.871 -25.088 -44.582 -26.037 -45.245 C -26.415 -45.436 -26.749 -45.625 -27.033 -45.814 C -27.887 -46.383 -28.905 -46.645 -30.092 -46.597 C -31.277 -46.55 -32.202 -46.29 -32.867 -45.814 C -34.667 -44.391 -35.521 -42.591 -35.427 -40.408 C -35.427 -39.365 -35.285 -38.369 -35.001 -37.419 L -34.859 -37.419 C -34.479 -35.903 -33.956 -34.481 -33.293 -33.151 C -26.368 -20.346 -17.832 -8.775 -7.683 1.565 C -5.407 3.746 -2.988 5.642 -.427 7.256 C 3.082 9.722 7.019 10.717 11.382 10.244 C 13.752 9.864 16.124 9.437 18.496 8.963 L 18.923 8.963 C 20.155 8.679 21.151 7.99 21.911 6.9 C 22.669 5.809 23 4.553 22.907 3.13 C 22.623 1.516 22.384 -.049 22.195 -1.565 C 22.1 -2.041 22.004 -2.514 21.911 -2.988 C 21.815 -3.557 21.72 -4.126 21.626 -4.696 C 21.435 -5.645 21.293 -6.594 21.2 -7.541 C 20.82 -11.147 21.72 -14.277 23.903 -16.931 C 26.084 -19.588 28.976 -21.153 32.582 -21.626 C 32.771 -21.626 33.151 -21.675 33.72 -21.769 C 34.005 -21.769 34.432 -21.818 35.001 -21.911 C 35.474 -21.818 35.996 -21.769 36.566 -21.769 " fill="#fbbe9f"/>
<path transform="matrix(1,0,0,-1,1202.6112,860.2034)" d="M 0 0 L -4.968 -12.553 L 4.968 -12.553 Z M 7.719 -18.136 L 7.158 -18.136 L 5.155 -13.034 L -5.155 -13.034 L -7.158 -18.136 L -7.719 -18.136 L -.321 .561 L .32 .561 Z " fill="#00564e"/>
<path transform="matrix(1,0,0,-1,1228.3295,878.6063)" d="M 0 0 C -1.977 0 -3.632 .668 -4.968 2.003 C -6.303 3.339 -6.971 4.986 -6.971 6.945 C -6.971 8.903 -6.303 10.55 -4.968 11.886 C -3.632 13.221 -1.977 13.889 0 13.889 C 1.3 13.889 2.471 13.595 3.512 13.008 C 4.554 12.42 5.324 11.628 5.823 10.63 L 5.395 10.363 C 4.915 11.289 4.197 12.028 3.245 12.58 C 2.292 13.132 1.211 13.408 0 13.408 C -1.852 13.408 -3.392 12.785 -4.621 11.539 C -5.832 10.292 -6.437 8.761 -6.437 6.945 C -6.437 5.128 -5.832 3.588 -4.621 2.324 C -3.392 1.095 -1.852 .481 0 .481 C 1.193 .481 2.27 .757 3.232 1.309 C 4.193 1.861 4.915 2.6 5.395 3.526 L 5.823 3.259 C 5.324 2.261 4.554 1.469 3.512 .882 C 2.471 .294 1.3 0 0 0 " fill="#00564e"/>
<path transform="matrix(1,0,0,-1,1252.1513,878.6063)" d="M 0 0 C -1.977 0 -3.632 .668 -4.968 2.003 C -6.303 3.339 -6.971 4.986 -6.971 6.945 C -6.971 8.903 -6.303 10.55 -4.968 11.886 C -3.632 13.221 -1.977 13.889 0 13.889 C 1.3 13.889 2.471 13.595 3.512 13.008 C 4.554 12.42 5.324 11.628 5.823 10.63 L 5.395 10.363 C 4.915 11.289 4.198 12.028 3.245 12.58 C 2.292 13.132 1.211 13.408 0 13.408 C -1.852 13.408 -3.392 12.785 -4.621 11.539 C -5.832 10.292 -6.437 8.761 -6.437 6.945 C -6.437 5.128 -5.832 3.588 -4.621 2.324 C -3.392 1.095 -1.852 .481 0 .481 C 1.193 .481 2.27 .757 3.232 1.309 C 4.193 1.861 4.915 2.6 5.395 3.526 L 5.823 3.259 C 5.324 2.261 4.554 1.469 3.512 .882 C 2.471 .294 1.3 0 0 0 " fill="#00564e"/>
<path transform="matrix(1,0,0,-1,1269.536,871.5013)" d="M 0 0 L 12.313 0 C 12.206 1.87 11.574 3.383 10.417 4.54 C 9.277 5.716 7.88 6.303 6.223 6.303 C 4.478 6.303 3.009 5.707 1.816 4.514 C .623 3.321 .018 1.816 0 0 M 6.223 6.784 C 8.164 6.784 9.74 6.09 10.951 4.701 C 12.18 3.347 12.794 1.709 12.794 -.214 L 12.794 -.481 L 0 -.481 C .089 -2.297 .721 -3.775 1.897 -4.915 C 3.089 -6.055 4.568 -6.624 6.33 -6.624 C 7.506 -6.624 8.561 -6.375 9.495 -5.876 C 10.43 -5.378 11.12 -4.71 11.566 -3.873 L 12.019 -4.14 C 11.485 -5.048 10.719 -5.77 9.722 -6.304 C 8.725 -6.838 7.594 -7.105 6.33 -7.105 C 4.354 -7.105 2.715 -6.455 1.416 -5.155 C .116 -3.856 -.534 -2.19 -.534 -.16 C -.534 1.816 .098 3.463 1.362 4.781 C 2.645 6.116 4.265 6.784 6.223 6.784 " fill="#00564e"/>
<path transform="matrix(1,0,0,-1,1294.2931,868.4565)" d="M 0 0 C 0 -1.389 1.024 -2.288 3.072 -2.698 C 4.977 -3.072 6.267 -3.428 6.944 -3.766 C 8.12 -4.372 8.698 -5.253 8.681 -6.41 C 8.681 -7.479 8.244 -8.369 7.372 -9.081 C 6.499 -9.794 5.377 -10.15 4.006 -10.15 C 1.371 -10.15 -.277 -9.215 -.935 -7.345 L -.508 -7.105 C .062 -8.814 1.567 -9.669 4.006 -9.669 C 5.217 -9.669 6.21 -9.362 6.984 -8.747 C 7.759 -8.133 8.146 -7.354 8.146 -6.41 C 8.146 -4.968 7.122 -4.042 5.074 -3.632 C 4.95 -3.597 4.603 -3.522 4.033 -3.406 C 3.463 -3.29 3.076 -3.201 2.871 -3.138 C 2.666 -3.076 2.332 -2.974 1.87 -2.831 C 1.406 -2.689 1.072 -2.542 .868 -2.391 C .663 -2.239 .427 -2.048 .16 -1.816 C -.107 -1.585 -.29 -1.318 -.387 -1.015 C -.485 -.712 -.535 -.374 -.535 0 C -.535 1.086 -.125 1.981 .694 2.684 C 1.513 3.387 2.599 3.739 3.953 3.739 C 4.968 3.739 5.853 3.512 6.61 3.058 C 7.367 2.604 7.906 1.977 8.226 1.175 L 7.799 .935 C 7.514 1.647 7.029 2.212 6.343 2.631 C 5.658 3.049 4.861 3.258 3.953 3.258 C 2.778 3.258 1.825 2.956 1.095 2.35 C .365 1.745 0 .961 0 0 " fill="#00564e"/>
<path transform="matrix(1,0,0,-1,1314.937,868.4565)" d="M 0 0 C 0 -1.389 1.024 -2.288 3.072 -2.698 C 4.977 -3.072 6.268 -3.428 6.944 -3.766 C 8.12 -4.372 8.698 -5.253 8.681 -6.41 C 8.681 -7.479 8.244 -8.369 7.372 -9.081 C 6.499 -9.794 5.377 -10.15 4.006 -10.15 C 1.371 -10.15 -.277 -9.215 -.935 -7.345 L -.508 -7.105 C .062 -8.814 1.567 -9.669 4.006 -9.669 C 5.217 -9.669 6.21 -9.362 6.984 -8.747 C 7.759 -8.133 8.146 -7.354 8.146 -6.41 C 8.146 -4.968 7.122 -4.042 5.075 -3.632 C 4.95 -3.597 4.603 -3.522 4.033 -3.406 C 3.463 -3.29 3.076 -3.201 2.871 -3.138 C 2.666 -3.076 2.332 -2.974 1.87 -2.831 C 1.406 -2.689 1.072 -2.542 .868 -2.391 C .663 -2.239 .427 -2.048 .16 -1.816 C -.107 -1.585 -.29 -1.318 -.387 -1.015 C -.485 -.712 -.534 -.374 -.534 0 C -.534 1.086 -.125 1.981 .694 2.684 C 1.513 3.387 2.599 3.739 3.953 3.739 C 4.968 3.739 5.853 3.512 6.61 3.058 C 7.367 2.604 7.906 1.977 8.226 1.175 L 7.799 .935 C 7.514 1.647 7.029 2.212 6.343 2.631 C 5.658 3.049 4.861 3.258 3.953 3.258 C 2.778 3.258 1.825 2.956 1.095 2.35 C .365 1.745 0 .961 0 0 " fill="#00564e"/>
<path transform="matrix(1,0,0,-1,1335.18,871.6615)" d="M 0 0 C 0 -1.816 .623 -3.348 1.87 -4.594 C 3.116 -5.841 4.638 -6.464 6.437 -6.464 C 8.235 -6.464 9.758 -5.841 11.005 -4.594 C 12.251 -3.348 12.874 -1.816 12.874 0 C 12.874 1.816 12.251 3.347 11.005 4.594 C 9.758 5.84 8.235 6.464 6.437 6.464 C 4.638 6.464 3.116 5.84 1.87 4.594 C .623 3.347 0 1.816 0 0 M 13.408 0 C 13.408 -1.959 12.731 -3.606 11.379 -4.941 C 10.025 -6.277 8.378 -6.945 6.437 -6.945 C 4.496 -6.945 2.849 -6.277 1.496 -4.941 C .142 -3.606 -.534 -1.959 -.534 0 C -.534 1.958 .142 3.606 1.496 4.941 C 2.849 6.277 4.496 6.944 6.437 6.944 C 8.378 6.944 10.025 6.277 11.379 4.941 C 12.731 3.606 13.408 1.958 13.408 0 " fill="#00564e"/>
<path transform="matrix(1,0,0,-1,1360.1504,864.9843)" d="M 0 0 L 0 -3.579 C .303 -2.386 .908 -1.465 1.816 -.815 C 2.724 -.165 3.766 .16 4.941 .16 L 4.941 -.32 C 3.552 -.32 2.377 -.819 1.416 -1.816 C .472 -2.814 0 -4.185 0 -5.929 L 0 -13.355 L -.534 -13.355 L -.534 0 Z " fill="#00564e"/>
<path transform="matrix(1,0,0,-1,0,1449)" d="M 1377.014 570.661 L 1376.48 570.661 L 1376.48 584.016 L 1377.014 584.016 Z M 1377.334 588.837 C 1377.388 588.632 1377.334 588.431 1377.174 588.236 C 1377.014 588.04 1376.818 587.982 1376.586 588.062 C 1376.355 588.142 1376.208 588.289 1376.146 588.503 C 1376.083 588.717 1376.132 588.912 1376.293 589.091 C 1376.47 589.268 1376.675 589.322 1376.907 589.251 C 1377.138 589.18 1377.281 589.041 1377.334 588.837 " fill="#00564e"/>
<path transform="matrix(1,0,0,-1,1388.9164,871.5013)" d="M 0 0 L 12.313 0 C 12.206 1.87 11.574 3.383 10.417 4.54 C 9.277 5.716 7.88 6.303 6.223 6.303 C 4.478 6.303 3.009 5.707 1.816 4.514 C .623 3.321 .018 1.816 0 0 M 6.223 6.784 C 8.164 6.784 9.74 6.09 10.951 4.701 C 12.179 3.347 12.794 1.709 12.794 -.214 L 12.794 -.481 L 0 -.481 C .089 -2.297 .721 -3.775 1.897 -4.915 C 3.089 -6.055 4.568 -6.624 6.33 -6.624 C 7.506 -6.624 8.561 -6.375 9.495 -5.876 C 10.43 -5.378 11.12 -4.71 11.565 -3.873 L 12.019 -4.14 C 11.485 -5.048 10.719 -5.77 9.722 -6.304 C 8.725 -6.838 7.594 -7.105 6.33 -7.105 C 4.354 -7.105 2.715 -6.455 1.416 -5.155 C .116 -3.856 -.534 -2.19 -.534 -.16 C -.534 1.816 .098 3.463 1.362 4.781 C 2.644 6.116 4.265 6.784 6.223 6.784 " fill="#00564e"/>
<path transform="matrix(1,0,0,-1,1413.6734,868.4565)" d="M 0 0 C 0 -1.389 1.024 -2.288 3.072 -2.698 C 4.977 -3.072 6.267 -3.428 6.944 -3.766 C 8.12 -4.372 8.698 -5.253 8.681 -6.41 C 8.681 -7.479 8.244 -8.369 7.372 -9.081 C 6.499 -9.794 5.377 -10.15 4.006 -10.15 C 1.371 -10.15 -.277 -9.215 -.935 -7.345 L -.508 -7.105 C .062 -8.814 1.567 -9.669 4.006 -9.669 C 5.217 -9.669 6.21 -9.362 6.984 -8.747 C 7.759 -8.133 8.146 -7.354 8.146 -6.41 C 8.146 -4.968 7.122 -4.042 5.075 -3.632 C 4.95 -3.597 4.603 -3.522 4.033 -3.406 C 3.463 -3.29 3.076 -3.201 2.871 -3.138 C 2.666 -3.076 2.332 -2.974 1.87 -2.831 C 1.406 -2.689 1.072 -2.542 .868 -2.391 C .663 -2.239 .427 -2.048 .16 -1.816 C -.107 -1.585 -.29 -1.318 -.387 -1.015 C -.485 -.712 -.534 -.374 -.534 0 C -.534 1.086 -.125 1.981 .694 2.684 C 1.513 3.387 2.599 3.739 3.953 3.739 C 4.968 3.739 5.853 3.512 6.61 3.058 C 7.367 2.604 7.906 1.977 8.226 1.175 L 7.799 .935 C 7.514 1.647 7.029 2.212 6.343 2.631 C 5.658 3.049 4.861 3.258 3.953 3.258 C 2.778 3.258 1.825 2.956 1.095 2.35 C .365 1.745 0 .961 0 0 " fill="#00564e"/>
</g>
</g>
</g>
</svg>
